Miso.ufo
<glyph name="exclam" format="1">
  <advance width="200"/>
  <unicode hex="0021"/>
  <outline>
    <contour>
      <point x="100" y="-4" type="qcurve" smooth="yes"/>
      <point x="83" y="-4"/>
      <point x="58" y="21"/>
      <point x="58" y="38" type="qcurve" smooth="yes"/>
      <point x="58" y="55"/>
      <point x="83" y="80"/>
      <point x="100" y="80" type="qcurve" smooth="yes"/>
      <point x="117" y="80"/>
      <point x="142" y="55"/>
      <point x="142" y="38" type="qcurve" smooth="yes"/>
      <point x="142" y="21"/>
      <point x="117" y="-4"/>
    </contour>
    <contour>
      <point x="68" y="588" type="line" smooth="yes"/>
      <point x="68" y="602"/>
      <point x="87" y="620"/>
      <point x="100" y="620" type="qcurve" smooth="yes"/>
      <point x="114" y="620"/>
      <point x="132" y="602"/>
      <point x="132" y="588" type="qcurve" smooth="yes"/>
      <point x="132" y="188" type="line" smooth="yes"/>
      <point x="132" y="174"/>
      <point x="114" y="156"/>
      <point x="100" y="156" type="qcurve" smooth="yes"/>
      <point x="87" y="156"/>
      <point x="68" y="174"/>
      <point x="68" y="188" type="qcurve" smooth="yes"/>
    </contour>
  </outline>
</glyph>
<glyph name="quotedbl" format="1">
  <advance width="352"/>
  <unicode hex="0022"/>
  <outline>
    <contour>
      <point x="256" y="640" type="qcurve" smooth="yes"/>
      <point x="270" y="640"/>
      <point x="288" y="622"/>
      <point x="288" y="608" type="qcurve" smooth="yes"/>
      <point x="288" y="508" type="line" smooth="yes"/>
      <point x="288" y="494"/>
      <point x="270" y="476"/>
      <point x="256" y="476" type="qcurve" smooth="yes"/>
      <point x="242" y="476"/>
      <point x="224" y="494"/>
      <point x="224" y="508" type="qcurve" smooth="yes"/>
      <point x="224" y="608" type="line" smooth="yes"/>
      <point x="224" y="622"/>
      <point x="242" y="640"/>
    </contour>
    <contour>
      <point x="64" y="608" type="line" smooth="yes"/>
      <point x="64" y="622"/>
      <point x="82" y="640"/>
      <point x="96" y="640" type="qcurve" smooth="yes"/>
      <point x="110" y="640"/>
      <point x="128" y="622"/>
      <point x="128" y="608" type="qcurve" smooth="yes"/>
      <point x="128" y="508" type="line" smooth="yes"/>
      <point x="128" y="494"/>
      <point x="110" y="476"/>
      <point x="96" y="476" type="qcurve" smooth="yes"/>
      <point x="82" y="476"/>
      <point x="64" y="494"/>
      <point x="64" y="508" type="qcurve" smooth="yes"/>
    </contour>
  </outline>
</glyph>
<glyph name="numbersign" format="1">
  <advance width="458"/>
  <unicode hex="0023"/>
  <outline>
    <contour>
      <point x="340" y="377" type="line"/>
      <point x="340" y="278" type="line"/>
      <point x="409" y="278" type="line" smooth="yes"/>
      <point x="422" y="278"/>
      <point x="440" y="261"/>
      <point x="440" y="248" type="qcurve" smooth="yes"/>
      <point x="440" y="235"/>
      <point x="422" y="217"/>
      <point x="409" y="217" type="qcurve" smooth="yes"/>
      <point x="340" y="217" type="line"/>
      <point x="340" y="28" type="line" smooth="yes"/>
      <point x="340" y="15"/>
      <point x="322" y="-3"/>
      <point x="309" y="-3" type="qcurve" smooth="yes"/>
      <point x="296" y="-3"/>
      <point x="279" y="15"/>
      <point x="279" y="28" type="qcurve" smooth="yes"/>
      <point x="279" y="217" type="line"/>
      <point x="180" y="217" type="line"/>
      <point x="180" y="28" type="line" smooth="yes"/>
      <point x="180" y="15"/>
      <point x="162" y="-3"/>
      <point x="149" y="-3" type="qcurve" smooth="yes"/>
      <point x="136" y="-3"/>
      <point x="119" y="15"/>
      <point x="119" y="28" type="qcurve" smooth="yes"/>
      <point x="119" y="217" type="line"/>
      <point x="49" y="217" type="line" smooth="yes"/>
      <point x="36" y="217"/>
      <point x="19" y="235"/>
      <point x="19" y="248" type="qcurve" smooth="yes"/>
      <point x="19" y="261"/>
      <point x="36" y="278"/>
      <point x="49" y="278" type="qcurve" smooth="yes"/>
      <point x="119" y="278" type="line"/>
      <point x="119" y="377" type="line"/>
      <point x="49" y="377" type="line" smooth="yes"/>
      <point x="36" y="377"/>
      <point x="19" y="395"/>
      <point x="19" y="408" type="qcurve" smooth="yes"/>
      <point x="19" y="421"/>
      <point x="36" y="438"/>
      <point x="49" y="438" type="qcurve" smooth="yes"/>
      <point x="119" y="438" type="line"/>
      <point x="119" y="608" type="line" smooth="yes"/>
      <point x="119" y="621"/>
      <point x="136" y="638"/>
      <point x="149" y="638" type="qcurve" smooth="yes"/>
      <point x="162" y="638"/>
      <point x="180" y="621"/>
      <point x="180" y="608" type="qcurve" smooth="yes"/>
      <point x="180" y="438" type="line"/>
      <point x="279" y="438" type="line"/>
      <point x="279" y="608" type="line" smooth="yes"/>
      <point x="279" y="621"/>
      <point x="296" y="638"/>
      <point x="309" y="638" type="qcurve" smooth="yes"/>
      <point x="322" y="638"/>
      <point x="340" y="621"/>
      <point x="340" y="608" type="qcurve" smooth="yes"/>
      <point x="340" y="438" type="line"/>
      <point x="409" y="438" type="line" smooth="yes"/>
      <point x="422" y="438"/>
      <point x="440" y="421"/>
      <point x="440" y="408" type="qcurve" smooth="yes"/>
      <point x="440" y="395"/>
      <point x="422" y="377"/>
      <point x="409" y="377" type="qcurve" smooth="yes"/>
    </contour>
    <contour>
      <point x="279" y="377" type="line"/>
      <point x="180" y="377" type="line"/>
      <point x="180" y="278" type="line"/>
      <point x="279" y="278" type="line"/>
    </contour>
  </outline>
</glyph>
<glyph name="dollar" format="1">
  <advance width="416"/>
  <unicode hex="0024"/>
  <outline>
    <contour>
      <point x="293" y="295" type="line"/>
      <point x="319" y="275"/>
      <point x="346" y="216"/>
      <point x="347" y="183" type="qcurve" smooth="yes"/>
      <point x="347" y="151"/>
      <point x="320" y="92"/>
      <point x="295" y="71" type="qcurve" smooth="yes"/>
      <point x="281" y="59"/>
      <point x="250" y="44"/>
      <point x="233" y="39" type="qcurve"/>
      <point x="233" y="-12" type="line" smooth="yes"/>
      <point x="233" y="-26"/>
      <point x="214" y="-44"/>
      <point x="201" y="-44" type="qcurve" smooth="yes"/>
      <point x="187" y="-44"/>
      <point x="169" y="-26"/>
      <point x="169" y="-12" type="qcurve" smooth="yes"/>
      <point x="169" y="40" type="line"/>
      <point x="139" y="46"/>
      <point x="90" y="82"/>
      <point x="74" y="109" type="qcurve" smooth="yes"/>
      <point x="67" y="120"/>
      <point x="75" y="146"/>
      <point x="86" y="153" type="qcurve" smooth="yes"/>
      <point x="97" y="159"/>
      <point x="123" y="152"/>
      <point x="130" y="141" type="qcurve" smooth="yes"/>
      <point x="149" y="107"/>
      <point x="187" y="101" type="qcurve" smooth="yes"/>
      <point x="190" y="100"/>
      <point x="197" y="100"/>
      <point x="200" y="100" type="qcurve" smooth="yes"/>
      <point x="201" y="100" type="line" smooth="yes"/>
      <point x="231" y="100"/>
      <point x="254" y="120" type="qcurve" smooth="yes"/>
      <point x="283" y="144"/>
      <point x="283" y="183" type="qcurve" smooth="yes"/>
      <point x="282" y="201"/>
      <point x="266" y="234"/>
      <point x="252" y="245" type="qcurve" smooth="yes"/>
      <point x="127" y="348" type="line" smooth="yes"/>
      <point x="102" y="368"/>
      <point x="75" y="424"/>
      <point x="75" y="456" type="qcurve" smooth="yes"/>
      <point x="74" y="488"/>
      <point x="100" y="546"/>
      <point x="125" y="566" type="qcurve" smooth="yes"/>
      <point x="150" y="588"/>
      <point x="185" y="596" type="qcurve"/>
      <point x="185" y="648" type="line" smooth="yes"/>
      <point x="185" y="662"/>
      <point x="203" y="680"/>
      <point x="217" y="680" type="qcurve" smooth="yes"/>
      <point x="230" y="680"/>
      <point x="249" y="662"/>
      <point x="249" y="648" type="qcurve" smooth="yes"/>
      <point x="249" y="596" type="line"/>
      <point x="278" y="589"/>
      <point x="325" y="555"/>
      <point x="340" y="529" type="qcurve" smooth="yes"/>
      <point x="346" y="518"/>
      <point x="339" y="492"/>
      <point x="328" y="485" type="qcurve" smooth="yes"/>
      <point x="317" y="478"/>
      <point x="291" y="486"/>
      <point x="284" y="497" type="qcurve" smooth="yes"/>
      <point x="267" y="529"/>
      <point x="230" y="535" type="qcurve" smooth="yes"/>
      <point x="227" y="536"/>
      <point x="220" y="536"/>
      <point x="217" y="536" type="qcurve" smooth="yes"/>
      <point x="216" y="536" type="line" smooth="yes"/>
      <point x="188" y="536"/>
      <point x="166" y="517" type="qcurve" smooth="yes"/>
      <point x="137" y="493"/>
      <point x="139" y="457" type="qcurve" smooth="yes"/>
      <point x="139" y="420"/>
      <point x="167" y="398" type="qcurve" smooth="yes"/>
      <point x="293" y="295" type="line"/>
    </contour>
  </outline>
</glyph>
<glyph name="percent" format="1">
  <advance width="593"/>
  <unicode hex="0025"/>
  <outline>
    <contour>
      <point x="437" y="237" type="qcurve" smooth="yes"/>
      <point x="461" y="237"/>
      <point x="505" y="218"/>
      <point x="537" y="186"/>
      <point x="556" y="142"/>
      <point x="556" y="118" type="qcurve" smooth="yes"/>
      <point x="556" y="93"/>
      <point x="537" y="50"/>
      <point x="505" y="18"/>
      <point x="461" y="-1"/>
      <point x="437" y="-1" type="qcurve" smooth="yes"/>
      <point x="412" y="-1"/>
      <point x="369" y="18"/>
      <point x="337" y="50"/>
      <point x="318" y="93"/>
      <point x="318" y="118" type="qcurve" smooth="yes"/>
      <point x="318" y="142"/>
      <point x="337" y="186"/>
      <point x="369" y="218"/>
      <point x="412" y="237"/>
    </contour>
    <contour>
      <point x="437" y="57" type="qcurve" smooth="yes"/>
      <point x="463" y="57"/>
      <point x="498" y="92"/>
      <point x="498" y="118" type="qcurve" smooth="yes"/>
      <point x="498" y="144"/>
      <point x="463" y="179"/>
      <point x="437" y="179" type="qcurve" smooth="yes"/>
      <point x="411" y="179"/>
      <point x="376" y="144"/>
      <point x="376" y="118" type="qcurve" smooth="yes"/>
      <point x="376" y="92"/>
      <point x="411" y="57"/>
    </contour>
    <contour>
      <point x="276" y="518" type="qcurve" smooth="yes"/>
      <point x="276" y="493"/>
      <point x="257" y="450"/>
      <point x="225" y="418"/>
      <point x="181" y="399"/>
      <point x="157" y="399" type="qcurve" smooth="yes"/>
      <point x="132" y="399"/>
      <point x="89" y="418"/>
      <point x="57" y="450"/>
      <point x="38" y="493"/>
      <point x="38" y="518" type="qcurve" smooth="yes"/>
      <point x="38" y="542"/>
      <point x="57" y="586"/>
      <point x="89" y="618"/>
      <point x="132" y="637"/>
      <point x="157" y="637" type="qcurve" smooth="yes"/>
      <point x="181" y="637"/>
      <point x="225" y="618"/>
      <point x="257" y="586"/>
      <point x="276" y="542"/>
    </contour>
    <contour>
      <point x="96" y="518" type="qcurve" smooth="yes"/>
      <point x="96" y="492"/>
      <point x="131" y="457"/>
      <point x="157" y="457" type="qcurve" smooth="yes"/>
      <point x="183" y="457"/>
      <point x="218" y="492"/>
      <point x="218" y="518" type="qcurve" smooth="yes"/>
      <point x="218" y="544"/>
      <point x="183" y="579"/>
      <point x="157" y="579" type="qcurve" smooth="yes"/>
      <point x="131" y="579"/>
      <point x="96" y="544"/>
    </contour>
    <contour>
      <point x="451" y="637" type="qcurve" smooth="yes"/>
      <point x="463" y="631"/>
      <point x="471" y="606"/>
      <point x="466" y="594" type="qcurve" smooth="yes"/>
      <point x="186" y="14" type="line" smooth="yes"/>
      <point x="180" y="2"/>
      <point x="155" y="-7"/>
      <point x="143" y="-1" type="qcurve" smooth="yes"/>
      <point x="131" y="5"/>
      <point x="122" y="30"/>
      <point x="128" y="42" type="qcurve" smooth="yes"/>
      <point x="408" y="622" type="line" smooth="yes"/>
      <point x="414" y="634"/>
      <point x="439" y="642"/>
    </contour>
  </outline>
</glyph>
<glyph name="ampersand" format="1">
  <advance width="493"/>
  <unicode hex="0026"/>
  <outline>
    <contour>
      <point x="349" y="100" type="line"/>
      <point x="331" y="70" type="line" smooth="yes"/>
      <point x="314" y="42"/>
      <point x="264" y="7"/>
      <point x="233" y="-1" type="qcurve" smooth="yes"/>
      <point x="202" y="-8"/>
      <point x="141" y="5"/>
      <point x="115" y="22" type="qcurve" smooth="yes"/>
      <point x="61" y="59"/>
      <point x="50" y="124" type="qcurve" smooth="yes"/>
      <point x="45" y="156"/>
      <point x="60" y="215"/>
      <point x="80" y="241" type="qcurve" smooth="yes"/>
      <point x="160" y="345" type="line"/>
      <point x="92" y="433" type="line"/>
      <point x="91" y="434" type="line"/>
      <point x="91" y="435" type="line"/>
      <point x="90" y="435" type="line"/>
      <point x="90" y="436" type="line"/>
      <point x="70" y="467"/>
      <point x="67" y="540"/>
      <point x="85" y="572" type="qcurve" smooth="yes"/>
      <point x="103" y="605"/>
      <point x="167" y="642"/>
      <point x="205" y="640" type="qcurve" smooth="yes"/>
      <point x="243" y="638"/>
      <point x="304" y="598"/>
      <point x="320" y="564" type="qcurve" smooth="yes"/>
      <point x="336" y="530"/>
      <point x="328" y="457"/>
      <point x="305" y="427" type="qcurve" smooth="yes"/>
      <point x="241" y="345" type="line"/>
      <point x="317" y="246" type="line"/>
      <point x="342" y="213" type="line"/>
      <point x="373" y="264" type="line" smooth="yes"/>
      <point x="380" y="276"/>
      <point x="406" y="282"/>
      <point x="417" y="275" type="qcurve" smooth="yes"/>
      <point x="428" y="268"/>
      <point x="435" y="243"/>
      <point x="428" y="231" type="qcurve" smooth="yes"/>
      <point x="384" y="159" type="line"/>
      <point x="463" y="58" type="line" smooth="yes"/>
      <point x="471" y="47"/>
      <point x="468" y="21"/>
      <point x="457" y="13" type="qcurve" smooth="yes"/>
      <point x="446" y="5"/>
      <point x="420" y="7"/>
      <point x="412" y="18" type="qcurve" smooth="yes"/>
    </contour>
    <contour>
      <point x="201" y="397" type="line"/>
      <point x="254" y="466" type="line" smooth="yes"/>
      <point x="266" y="482"/>
      <point x="270" y="520"/>
      <point x="262" y="537" type="qcurve" smooth="yes"/>
      <point x="254" y="554"/>
      <point x="222" y="575"/>
      <point x="203" y="576" type="qcurve" smooth="yes"/>
      <point x="183" y="577"/>
      <point x="151" y="558"/>
      <point x="141" y="541" type="qcurve" smooth="yes"/>
      <point x="132" y="524"/>
      <point x="133" y="487"/>
      <point x="143" y="471" type="qcurve" smooth="yes"/>
    </contour>
    <contour>
      <point x="307" y="154" type="line"/>
      <point x="266" y="207" type="line"/>
      <point x="201" y="292" type="line"/>
      <point x="131" y="202" type="line" smooth="yes"/>
      <point x="108" y="171"/>
      <point x="114" y="134" type="qcurve" smooth="yes"/>
      <point x="116" y="116"/>
      <point x="136" y="86"/>
      <point x="151" y="75" type="qcurve" smooth="yes"/>
      <point x="181" y="54"/>
      <point x="219" y="62" type="qcurve" smooth="yes"/>
      <point x="255" y="70"/>
      <point x="276" y="103" type="qcurve" smooth="yes"/>
    </contour>
  </outline>
</glyph>
<glyph name="quotesingle" format="1">
  <advance width="192"/>
  <unicode hex="0027"/>
  <outline>
    <contour>
      <point x="128" y="508" type="line"/>
      <point x="128" y="494"/>
      <point x="109" y="476"/>
      <point x="96" y="476" type="qcurve" smooth="yes"/>
      <point x="82" y="476"/>
      <point x="64" y="494"/>
      <point x="64" y="508" type="qcurve" smooth="yes"/>
      <point x="64" y="608" type="line" smooth="yes"/>
      <point x="64" y="622"/>
      <point x="82" y="640"/>
      <point x="96" y="640" type="qcurve" smooth="yes"/>
      <point x="109" y="640"/>
      <point x="128" y="622"/>
      <point x="128" y="608" type="qcurve" smooth="yes"/>
      <point x="128" y="508" type="line"/>
    </contour>
  </outline>
</glyph>
<glyph name="parenleft" format="1">
  <advance width="268"/>
  <unicode hex="0028"/>
  <outline>
    <contour>
      <point x="241" y="668" type="qcurve" smooth="yes"/>
      <point x="211" y="630"/>
      <point x="166" y="546"/>
      <point x="150" y="501" type="qcurve" smooth="yes"/>
      <point x="120" y="412"/>
      <point x="120" y="318" type="qcurve" smooth="yes"/>
      <point x="120" y="223"/>
      <point x="150" y="135" type="qcurve" smooth="yes"/>
      <point x="166" y="90"/>
      <point x="211" y="6"/>
      <point x="241" y="-32" type="qcurve" smooth="yes"/>
      <point x="249" y="-43"/>
      <point x="246" y="-69"/>
      <point x="235" y="-77" type="qcurve" smooth="yes"/>
      <point x="224" y="-85"/>
      <point x="198" y="-83"/>
      <point x="190" y="-72" type="qcurve" smooth="yes"/>
      <point x="123" y="13"/>
      <point x="90" y="114" type="qcurve" smooth="yes"/>
      <point x="56" y="212"/>
      <point x="56" y="318" type="qcurve" smooth="yes"/>
      <point x="56" y="424"/>
      <point x="90" y="522" type="qcurve" smooth="yes"/>
      <point x="107" y="573"/>
      <point x="157" y="665"/>
      <point x="190" y="708" type="qcurve" smooth="yes"/>
      <point x="198" y="719"/>
      <point x="224" y="721"/>
      <point x="235" y="713" type="qcurve" smooth="yes"/>
      <point x="246" y="705"/>
      <point x="249" y="679"/>
    </contour>
  </outline>
</glyph>
<glyph name="parenright" format="1">
  <advance width="269"/>
  <unicode hex="0029"/>
  <outline>
    <contour>
      <point x="212" y="328" type="qcurve" smooth="yes"/>
      <point x="212" y="222"/>
      <point x="178" y="124" type="qcurve" smooth="yes"/>
      <point x="143" y="22"/>
      <point x="77" y="-62" type="qcurve" smooth="yes"/>
      <point x="69" y="-73"/>
      <point x="43" y="-75"/>
      <point x="32" y="-67" type="qcurve" smooth="yes"/>
      <point x="22" y="-59"/>
      <point x="19" y="-33"/>
      <point x="27" y="-22" type="qcurve" smooth="yes"/>
      <point x="57" y="16"/>
      <point x="102" y="100"/>
      <point x="118" y="145" type="qcurve" smooth="yes"/>
      <point x="148" y="233"/>
      <point x="148" y="328" type="qcurve" smooth="yes"/>
      <point x="148" y="422"/>
      <point x="118" y="511" type="qcurve" smooth="yes"/>
      <point x="102" y="556"/>
      <point x="57" y="640"/>
      <point x="27" y="678" type="qcurve" smooth="yes"/>
      <point x="19" y="689"/>
      <point x="22" y="715"/>
      <point x="32" y="723" type="qcurve" smooth="yes"/>
      <point x="43" y="731"/>
      <point x="69" y="729"/>
      <point x="77" y="718" type="qcurve" smooth="yes"/>
      <point x="144" y="631"/>
      <point x="178" y="532" type="qcurve" smooth="yes"/>
      <point x="212" y="434"/>
    </contour>
  </outline>
</glyph>
<glyph name="asterisk" format="1">
  <advance width="416"/>
  <unicode hex="002A"/>
  <outline>
    <contour>
      <point x="239" y="405" type="line"/>
      <point x="239" y="308" type="line" smooth="yes"/>
      <point x="239" y="295"/>
      <point x="221" y="277"/>
      <point x="208" y="277" type="qcurve" smooth="yes"/>
      <point x="195" y="277"/>
      <point x="178" y="295"/>
      <point x="178" y="308" type="qcurve" smooth="yes"/>
      <point x="178" y="405" type="line"/>
      <point x="93" y="357" type="line" smooth="yes"/>
      <point x="82" y="350"/>
      <point x="58" y="357"/>
      <point x="52" y="368" type="qcurve" smooth="yes"/>
      <point x="45" y="379"/>
      <point x="52" y="403"/>
      <point x="63" y="409" type="qcurve" smooth="yes"/>
      <point x="147" y="458" type="line"/>
      <point x="63" y="507" type="line" smooth="yes"/>
      <point x="52" y="513"/>
      <point x="45" y="537"/>
      <point x="52" y="548" type="qcurve" smooth="yes"/>
      <point x="58" y="559"/>
      <point x="82" y="566"/>
      <point x="93" y="559" type="qcurve" smooth="yes"/>
      <point x="178" y="511" type="line"/>
      <point x="178" y="608" type="line" smooth="yes"/>
      <point x="178" y="621"/>
      <point x="195" y="638"/>
      <point x="208" y="638" type="qcurve" smooth="yes"/>
      <point x="221" y="638"/>
      <point x="239" y="621"/>
      <point x="239" y="608" type="qcurve" smooth="yes"/>
      <point x="239" y="511" type="line"/>
      <point x="323" y="559" type="line" smooth="yes"/>
      <point x="334" y="566"/>
      <point x="358" y="559"/>
      <point x="364" y="548" type="qcurve" smooth="yes"/>
      <point x="371" y="537"/>
      <point x="364" y="513"/>
      <point x="353" y="507" type="qcurve" smooth="yes"/>
      <point x="269" y="458" type="line"/>
      <point x="353" y="409" type="line" smooth="yes"/>
      <point x="364" y="403"/>
      <point x="371" y="379"/>
      <point x="364" y="368" type="qcurve" smooth="yes"/>
      <point x="358" y="357"/>
      <point x="334" y="350"/>
      <point x="323" y="357" type="qcurve" smooth="yes"/>
    </contour>
  </outline>
</glyph>
<glyph name="plus" format="1">
  <advance width="416"/>
  <unicode hex="002B"/>
  <outline>
    <contour>
      <point x="328" y="320" type="line"/>
      <point x="341" y="320"/>
      <point x="360" y="302"/>
      <point x="360" y="288" type="qcurve" smooth="yes"/>
      <point x="360" y="274"/>
      <point x="341" y="256"/>
      <point x="328" y="256" type="qcurve" smooth="yes"/>
      <point x="240" y="256" type="line"/>
      <point x="240" y="168" type="line" smooth="yes"/>
      <point x="240" y="154"/>
      <point x="221" y="136"/>
      <point x="208" y="136" type="qcurve" smooth="yes"/>
      <point x="194" y="136"/>
      <point x="176" y="154"/>
      <point x="176" y="168" type="qcurve" smooth="yes"/>
      <point x="176" y="256" type="line"/>
      <point x="88" y="256" type="line" smooth="yes"/>
      <point x="74" y="256"/>
      <point x="56" y="274"/>
      <point x="56" y="288" type="qcurve" smooth="yes"/>
      <point x="56" y="302"/>
      <point x="74" y="320"/>
      <point x="88" y="320" type="qcurve" smooth="yes"/>
      <point x="176" y="320" type="line"/>
      <point x="176" y="408" type="line" smooth="yes"/>
      <point x="176" y="422"/>
      <point x="194" y="440"/>
      <point x="208" y="440" type="qcurve" smooth="yes"/>
      <point x="221" y="440"/>
      <point x="240" y="422"/>
      <point x="240" y="408" type="qcurve" smooth="yes"/>
      <point x="240" y="320" type="line"/>
      <point x="328" y="320" type="line"/>
    </contour>
  </outline>
</glyph>
<glyph name="comma" format="1">
  <advance width="192"/>
  <unicode hex="002C"/>
  <outline>
    <contour>
      <point x="68" y="-20" type="qcurve" smooth="yes"/>
      <point x="82" y="-15"/>
      <point x="82" y="0" type="qcurve" smooth="yes"/>
      <point x="82" y="17" type="line"/>
      <point x="80" y="17" type="line" smooth="yes"/>
      <point x="67" y="17"/>
      <point x="50" y="35"/>
      <point x="50" y="48" type="qcurve" smooth="yes"/>
      <point x="50" y="61"/>
      <point x="67" y="78"/>
      <point x="80" y="78" type="qcurve" smooth="yes"/>
      <point x="112" y="78" type="line" smooth="yes"/>
      <point x="125" y="78"/>
      <point x="143" y="61"/>
      <point x="143" y="48" type="qcurve" smooth="yes"/>
      <point x="143" y="0" type="line" smooth="yes"/>
      <point x="143" y="-25"/>
      <point x="115" y="-66"/>
      <point x="92" y="-76" type="qcurve" smooth="yes"/>
      <point x="80" y="-81"/>
      <point x="57" y="-71"/>
      <point x="52" y="-60" type="qcurve" smooth="yes"/>
      <point x="47" y="-48"/>
      <point x="57" y="-25"/>
    </contour>
  </outline>
</glyph>
<glyph name="hyphen" format="1">
  <advance width="416"/>
  <unicode hex="002D"/>
  <outline>
    <contour>
      <point x="360" y="288" type="qcurve" smooth="yes"/>
      <point x="360" y="274"/>
      <point x="341" y="256"/>
      <point x="328" y="256" type="qcurve" smooth="yes"/>
      <point x="88" y="256" type="line" smooth="yes"/>
      <point x="74" y="256"/>
      <point x="56" y="274"/>
      <point x="56" y="288" type="qcurve" smooth="yes"/>
      <point x="56" y="302"/>
      <point x="74" y="320"/>
      <point x="88" y="320" type="qcurve" smooth="yes"/>
      <point x="328" y="320" type="line" smooth="yes"/>
      <point x="341" y="320"/>
      <point x="360" y="302"/>
    </contour>
  </outline>
</glyph>
<glyph name="period" format="1">
  <advance width="192"/>
  <unicode hex="002E"/>
  <outline>
    <contour>
      <point x="54" y="38" type="qcurve" smooth="yes"/>
      <point x="54" y="55"/>
      <point x="79" y="80"/>
      <point x="96" y="80" type="qcurve" smooth="yes"/>
      <point x="113" y="80"/>
      <point x="138" y="55"/>
      <point x="138" y="38" type="qcurve" smooth="yes"/>
      <point x="138" y="21"/>
      <point x="113" y="-4"/>
      <point x="96" y="-4" type="qcurve" smooth="yes"/>
      <point x="79" y="-4"/>
      <point x="54" y="21"/>
    </contour>
  </outline>
</glyph>
<glyph name="slash" format="1">
  <advance width="416"/>
  <unicode hex="002F"/>
  <outline>
    <contour>
      <point x="339" y="678" type="qcurve" smooth="yes"/>
      <point x="352" y="673"/>
      <point x="363" y="650"/>
      <point x="358" y="637" type="qcurve" smooth="yes"/>
      <point x="118" y="-23" type="line" smooth="yes"/>
      <point x="113" y="-36"/>
      <point x="90" y="-47"/>
      <point x="77" y="-42" type="qcurve" smooth="yes"/>
      <point x="65" y="-37"/>
      <point x="53" y="-14"/>
      <point x="58" y="-1" type="qcurve" smooth="yes"/>
      <point x="298" y="659" type="line" smooth="yes"/>
      <point x="303" y="671"/>
      <point x="327" y="683"/>
    </contour>
  </outline>
</glyph>
<glyph name="zero" format="1">
  <advance width="416"/>
  <unicode hex="0030"/>
  <outline>
    <contour>
      <point x="208" y="-4" type="qcurve" smooth="yes"/>
      <point x="176" y="-4"/>
      <point x="121" y="20"/>
      <point x="80" y="61"/>
      <point x="56" y="116"/>
      <point x="56" y="148" type="qcurve" smooth="yes"/>
      <point x="56" y="488" type="line" smooth="yes"/>
      <point x="56" y="519"/>
      <point x="80" y="575"/>
      <point x="121" y="616"/>
      <point x="176" y="640"/>
      <point x="208" y="640" type="qcurve" smooth="yes"/>
      <point x="239" y="640"/>
      <point x="294" y="616"/>
      <point x="336" y="575"/>
      <point x="360" y="519"/>
      <point x="360" y="488" type="qcurve" smooth="yes"/>
      <point x="360" y="148" type="line" smooth="yes"/>
      <point x="360" y="116"/>
      <point x="336" y="61"/>
      <point x="294" y="20"/>
      <point x="239" y="-4"/>
    </contour>
    <contour>
      <point x="208" y="576" type="qcurve" smooth="yes"/>
      <point x="171" y="576"/>
      <point x="120" y="524"/>
      <point x="120" y="488" type="qcurve" smooth="yes"/>
      <point x="120" y="148" type="line" smooth="yes"/>
      <point x="120" y="111"/>
      <point x="171" y="60"/>
      <point x="208" y="60" type="qcurve" smooth="yes"/>
      <point x="244" y="60"/>
      <point x="296" y="111"/>
      <point x="296" y="148" type="qcurve" smooth="yes"/>
      <point x="296" y="488" type="line" smooth="yes"/>
      <point x="296" y="506"/>
      <point x="282" y="538"/>
      <point x="258" y="562"/>
      <point x="226" y="576"/>
    </contour>
  </outline>
</glyph>
<glyph name="one" format="1">
  <advance width="416"/>
  <unicode hex="0031"/>
  <outline>
    <contour>
      <point x="134" y="465" type="line"/>
      <point x="125" y="456"/>
      <point x="99" y="456"/>
      <point x="89" y="465" type="qcurve" smooth="yes"/>
      <point x="80" y="475"/>
      <point x="80" y="501"/>
      <point x="89" y="511" type="qcurve" smooth="yes"/>
      <point x="209" y="631" type="line" smooth="yes"/>
      <point x="216" y="638"/>
      <point x="235" y="641"/>
      <point x="244" y="638" type="qcurve" smooth="yes"/>
      <point x="264" y="630"/>
      <point x="264" y="608" type="qcurve" smooth="yes"/>
      <point x="264" y="28" type="line" smooth="yes"/>
      <point x="264" y="14"/>
      <point x="245" y="-4"/>
      <point x="232" y="-4" type="qcurve" smooth="yes"/>
      <point x="218" y="-4"/>
      <point x="200" y="14"/>
      <point x="200" y="28" type="qcurve" smooth="yes"/>
      <point x="200" y="531" type="line"/>
      <point x="134" y="465" type="line"/>
    </contour>
  </outline>
</glyph>
<glyph name="two" format="1">
  <advance width="416"/>
  <unicode hex="0032"/>
  <outline>
    <contour>
      <point x="76" y="520" type="qcurve" smooth="yes"/>
      <point x="65" y="527"/>
      <point x="57" y="553"/>
      <point x="64" y="564" type="qcurve" smooth="yes"/>
      <point x="95" y="619"/>
      <point x="155" y="634" type="qcurve" smooth="yes"/>
      <point x="184" y="642"/>
      <point x="243" y="635"/>
      <point x="269" y="621" type="qcurve" smooth="yes"/>
      <point x="295" y="607"/>
      <point x="333" y="561"/>
      <point x="341" y="532" type="qcurve" smooth="yes"/>
      <point x="359" y="473"/>
      <point x="330" y="417" type="qcurve" smooth="yes"/>
      <point x="288" y="338"/>
      <point x="252" y="268" type="qcurve" smooth="yes"/>
      <point x="236" y="238"/>
      <point x="204" y="177"/>
      <point x="176" y="122"/>
      <point x="152" y="77"/>
      <point x="145" y="64" type="qcurve"/>
      <point x="316" y="64" type="line" smooth="yes"/>
      <point x="329" y="64"/>
      <point x="348" y="46"/>
      <point x="348" y="32" type="qcurve" smooth="yes"/>
      <point x="348" y="18"/>
      <point x="329" y="0"/>
      <point x="316" y="0" type="qcurve" smooth="yes"/>
      <point x="92" y="0" type="line" smooth="yes"/>
      <point x="73" y="0"/>
      <point x="65" y="15" type="qcurve" smooth="yes"/>
      <point x="55" y="32"/>
      <point x="64" y="47" type="qcurve" smooth="yes"/>
      <point x="274" y="447" type="line" smooth="yes"/>
      <point x="291" y="479"/>
      <point x="280" y="513" type="qcurve" smooth="yes"/>
      <point x="275" y="530"/>
      <point x="254" y="557"/>
      <point x="238" y="565" type="qcurve" smooth="yes"/>
      <point x="207" y="582"/>
      <point x="172" y="573" type="qcurve" smooth="yes"/>
      <point x="155" y="568"/>
      <point x="128" y="547"/>
      <point x="120" y="532" type="qcurve" smooth="yes"/>
      <point x="113" y="521"/>
      <point x="87" y="513"/>
    </contour>
  </outline>
</glyph>
<glyph name="three" format="1">
  <advance width="416"/>
  <unicode hex="0033"/>
  <outline>
    <contour>
      <point x="205" y="63" type="qcurve" smooth="yes"/>
      <point x="234" y="71"/>
      <point x="270" y="118"/>
      <point x="270" y="148" type="qcurve" smooth="yes"/>
      <point x="270" y="208" type="line" smooth="yes"/>
      <point x="270" y="244"/>
      <point x="218" y="296"/>
      <point x="182" y="296" type="qcurve" smooth="yes"/>
      <point x="168" y="296"/>
      <point x="150" y="314"/>
      <point x="150" y="328" type="qcurve" smooth="yes"/>
      <point x="150" y="342"/>
      <point x="168" y="360"/>
      <point x="182" y="360" type="qcurve" smooth="yes"/>
      <point x="218" y="360"/>
      <point x="270" y="411"/>
      <point x="270" y="448" type="qcurve" smooth="yes"/>
      <point x="270" y="488" type="line" smooth="yes"/>
      <point x="270" y="518"/>
      <point x="234" y="565"/>
      <point x="205" y="573" type="qcurve" smooth="yes"/>
      <point x="176" y="581"/>
      <point x="121" y="558"/>
      <point x="106" y="532" type="qcurve" smooth="yes"/>
      <point x="99" y="521"/>
      <point x="73" y="513"/>
      <point x="62" y="520" type="qcurve" smooth="yes"/>
      <point x="51" y="527"/>
      <point x="43" y="553"/>
      <point x="50" y="564" type="qcurve" smooth="yes"/>
      <point x="63" y="586"/>
      <point x="101" y="619"/>
      <point x="146" y="638"/>
      <point x="196" y="642"/>
      <point x="221" y="635" type="qcurve" smooth="yes"/>
      <point x="272" y="621"/>
      <point x="334" y="540"/>
      <point x="334" y="488" type="qcurve" smooth="yes"/>
      <point x="334" y="448" type="line" smooth="yes"/>
      <point x="334" y="411"/>
      <point x="302" y="349"/>
      <point x="275" y="328" type="qcurve"/>
      <point x="302" y="307"/>
      <point x="334" y="245"/>
      <point x="334" y="208" type="qcurve" smooth="yes"/>
      <point x="334" y="148" type="line" smooth="yes"/>
      <point x="334" y="96"/>
      <point x="272" y="15"/>
      <point x="221" y="1" type="qcurve" smooth="yes"/>
      <point x="196" y="-6"/>
      <point x="146" y="-2"/>
      <point x="101" y="17"/>
      <point x="63" y="49"/>
      <point x="50" y="72" type="qcurve" smooth="yes"/>
      <point x="43" y="83"/>
      <point x="51" y="109"/>
      <point x="62" y="116" type="qcurve" smooth="yes"/>
      <point x="73" y="122"/>
      <point x="99" y="115"/>
      <point x="106" y="104" type="qcurve" smooth="yes"/>
      <point x="121" y="78"/>
      <point x="176" y="55"/>
    </contour>
  </outline>
</glyph>
<glyph name="four" format="1">
  <advance width="416"/>
  <unicode hex="0034"/>
  <outline>
    <contour>
      <point x="74" y="136" type="line"/>
      <point x="58" y="136"/>
      <point x="48" y="149" type="qcurve" smooth="yes"/>
      <point x="38" y="162"/>
      <point x="43" y="178" type="qcurve" smooth="yes"/>
      <point x="183" y="618" type="line" smooth="yes"/>
      <point x="188" y="630"/>
      <point x="211" y="643"/>
      <point x="224" y="638" type="qcurve" smooth="yes"/>
      <point x="246" y="631"/>
      <point x="246" y="608" type="qcurve" smooth="yes"/>
      <point x="246" y="601"/>
      <point x="244" y="598" type="qcurve" smooth="yes"/>
      <point x="215" y="504"/>
      <point x="189" y="424" type="qcurve" smooth="yes"/>
      <point x="178" y="390"/>
      <point x="156" y="321"/>
      <point x="137" y="260"/>
      <point x="122" y="213"/>
      <point x="118" y="200" type="qcurve"/>
      <point x="242" y="200" type="line"/>
      <point x="242" y="308" type="line" smooth="yes"/>
      <point x="242" y="322"/>
      <point x="260" y="340"/>
      <point x="274" y="340" type="qcurve" smooth="yes"/>
      <point x="288" y="340"/>
      <point x="306" y="322"/>
      <point x="306" y="308" type="qcurve" smooth="yes"/>
      <point x="306" y="200" type="line"/>
      <point x="354" y="200" type="line" smooth="yes"/>
      <point x="368" y="200"/>
      <point x="386" y="182"/>
      <point x="386" y="168" type="qcurve" smooth="yes"/>
      <point x="386" y="154"/>
      <point x="368" y="136"/>
      <point x="354" y="136" type="qcurve" smooth="yes"/>
      <point x="306" y="136" type="line"/>
      <point x="306" y="28" type="line" smooth="yes"/>
      <point x="306" y="14"/>
      <point x="288" y="-4"/>
      <point x="274" y="-4" type="qcurve" smooth="yes"/>
      <point x="260" y="-4"/>
      <point x="242" y="14"/>
      <point x="242" y="28" type="qcurve" smooth="yes"/>
      <point x="242" y="136" type="line"/>
      <point x="74" y="136" type="line"/>
    </contour>
  </outline>
</glyph>
<glyph name="five" format="1">
  <advance width="416"/>
  <unicode hex="0035"/>
  <outline>
    <contour>
      <point x="95" y="287" type="qcurve" smooth="yes"/>
      <point x="84" y="290"/>
      <point x="71" y="307"/>
      <point x="71" y="318" type="qcurve" smooth="yes"/>
      <point x="71" y="604" type="line" smooth="yes"/>
      <point x="71" y="618"/>
      <point x="89" y="636"/>
      <point x="103" y="636" type="qcurve" smooth="yes"/>
      <point x="311" y="636" type="line" smooth="yes"/>
      <point x="325" y="636"/>
      <point x="343" y="618"/>
      <point x="343" y="604" type="qcurve" smooth="yes"/>
      <point x="343" y="590"/>
      <point x="325" y="572"/>
      <point x="311" y="572" type="qcurve" smooth="yes"/>
      <point x="135" y="572" type="line"/>
      <point x="135" y="392" type="line"/>
      <point x="187" y="420"/>
      <point x="246" y="405" type="qcurve" smooth="yes"/>
      <point x="297" y="391"/>
      <point x="359" y="310"/>
      <point x="359" y="258" type="qcurve" smooth="yes"/>
      <point x="359" y="148" type="line" smooth="yes"/>
      <point x="359" y="96"/>
      <point x="297" y="15"/>
      <point x="246" y="1" type="qcurve" smooth="yes"/>
      <point x="221" y="-6"/>
      <point x="171" y="-2"/>
      <point x="126" y="17"/>
      <point x="88" y="49"/>
      <point x="75" y="72" type="qcurve" smooth="yes"/>
      <point x="69" y="83"/>
      <point x="76" y="109"/>
      <point x="87" y="116" type="qcurve" smooth="yes"/>
      <point x="98" y="122"/>
      <point x="124" y="115"/>
      <point x="131" y="104" type="qcurve" smooth="yes"/>
      <point x="146" y="78"/>
      <point x="201" y="55"/>
      <point x="230" y="63" type="qcurve" smooth="yes"/>
      <point x="259" y="71"/>
      <point x="295" y="118"/>
      <point x="295" y="148" type="qcurve" smooth="yes"/>
      <point x="295" y="258" type="line" smooth="yes"/>
      <point x="295" y="288"/>
      <point x="259" y="335"/>
      <point x="230" y="343" type="qcurve" smooth="yes"/>
      <point x="201" y="351"/>
      <point x="146" y="328"/>
      <point x="131" y="302" type="qcurve" smooth="yes"/>
      <point x="126" y="292"/>
      <point x="106" y="284"/>
    </contour>
  </outline>
</glyph>
<glyph name="six" format="1">
  <advance width="416"/>
  <unicode hex="0036"/>
  <outline>
    <contour>
      <point x="217" y="-4" type="qcurve" smooth="yes"/>
      <point x="185" y="-4"/>
      <point x="130" y="20"/>
      <point x="89" y="61"/>
      <point x="65" y="116"/>
      <point x="65" y="148" type="qcurve" smooth="yes"/>
      <point x="65" y="488" type="line" smooth="yes"/>
      <point x="65" y="540"/>
      <point x="128" y="621"/>
      <point x="178" y="635" type="qcurve" smooth="yes"/>
      <point x="203" y="642"/>
      <point x="253" y="638"/>
      <point x="298" y="619"/>
      <point x="336" y="586"/>
      <point x="349" y="564" type="qcurve" smooth="yes"/>
      <point x="356" y="553"/>
      <point x="348" y="527"/>
      <point x="337" y="520" type="qcurve" smooth="yes"/>
      <point x="326" y="513"/>
      <point x="300" y="521"/>
      <point x="293" y="532" type="qcurve" smooth="yes"/>
      <point x="279" y="558"/>
      <point x="223" y="581"/>
      <point x="194" y="573" type="qcurve" smooth="yes"/>
      <point x="165" y="565"/>
      <point x="129" y="518"/>
      <point x="129" y="488" type="qcurve" smooth="yes"/>
      <point x="129" y="372" type="line"/>
      <point x="168" y="400"/>
      <point x="217" y="400" type="qcurve" smooth="yes"/>
      <point x="248" y="400"/>
      <point x="304" y="376"/>
      <point x="345" y="335"/>
      <point x="369" y="279"/>
      <point x="369" y="248" type="qcurve" smooth="yes"/>
      <point x="369" y="148" type="line" smooth="yes"/>
      <point x="369" y="116"/>
      <point x="345" y="61"/>
      <point x="304" y="20"/>
      <point x="248" y="-4"/>
    </contour>
    <contour>
      <point x="217" y="336" type="qcurve" smooth="yes"/>
      <point x="199" y="336"/>
      <point x="167" y="322"/>
      <point x="143" y="298"/>
      <point x="129" y="266"/>
      <point x="129" y="248" type="qcurve" smooth="yes"/>
      <point x="129" y="148" type="line" smooth="yes"/>
      <point x="129" y="111"/>
      <point x="181" y="60"/>
      <point x="217" y="60" type="qcurve" smooth="yes"/>
      <point x="254" y="60"/>
      <point x="305" y="111"/>
      <point x="305" y="148" type="qcurve" smooth="yes"/>
      <point x="305" y="248" type="line" smooth="yes"/>
      <point x="305" y="284"/>
      <point x="254" y="336"/>
    </contour>
  </outline>
</glyph>
<glyph name="seven" format="1">
  <advance width="416"/>
  <unicode hex="0037"/>
  <outline>
    <contour>
      <point x="85" y="492" type="qcurve" smooth="yes"/>
      <point x="72" y="492"/>
      <point x="53" y="510"/>
      <point x="53" y="524" type="qcurve" smooth="yes"/>
      <point x="53" y="604" type="line" smooth="yes"/>
      <point x="53" y="618"/>
      <point x="72" y="636"/>
      <point x="85" y="636" type="qcurve" smooth="yes"/>
      <point x="325" y="636" type="line" smooth="yes"/>
      <point x="340" y="636"/>
      <point x="350" y="624" type="qcurve" smooth="yes"/>
      <point x="360" y="610"/>
      <point x="356" y="596" type="qcurve" smooth="yes"/>
      <point x="216" y="20" type="line" smooth="yes"/>
      <point x="213" y="7"/>
      <point x="191" y="-6"/>
      <point x="178" y="-3" type="qcurve" smooth="yes"/>
      <point x="167" y="-1"/>
      <point x="153" y="17"/>
      <point x="153" y="28" type="qcurve" smooth="yes"/>
      <point x="153" y="30"/>
      <point x="154" y="34"/>
      <point x="154" y="36" type="qcurve" smooth="yes"/>
      <point x="186" y="168"/>
      <point x="213" y="278" type="qcurve" smooth="yes"/>
      <point x="225" y="325"/>
      <point x="247" y="419"/>
      <point x="267" y="499"/>
      <point x="282" y="559"/>
      <point x="285" y="572" type="qcurve"/>
      <point x="117" y="572" type="line"/>
      <point x="117" y="524" type="line" smooth="yes"/>
      <point x="117" y="510"/>
      <point x="99" y="492"/>
    </contour>
  </outline>
</glyph>
<glyph name="eight" format="1">
  <advance width="416"/>
  <unicode hex="0038"/>
  <outline>
    <contour>
      <point x="208" y="-4" type="qcurve" smooth="yes"/>
      <point x="177" y="-4"/>
      <point x="122" y="20"/>
      <point x="80" y="61"/>
      <point x="56" y="116"/>
      <point x="56" y="148" type="qcurve" smooth="yes"/>
      <point x="56" y="208" type="line" smooth="yes"/>
      <point x="56" y="245"/>
      <point x="88" y="307"/>
      <point x="115" y="328" type="qcurve"/>
      <point x="88" y="349"/>
      <point x="56" y="411"/>
      <point x="56" y="448" type="qcurve" smooth="yes"/>
      <point x="56" y="488" type="line" smooth="yes"/>
      <point x="56" y="519"/>
      <point x="80" y="575"/>
      <point x="122" y="616"/>
      <point x="177" y="640"/>
      <point x="208" y="640" type="qcurve" smooth="yes"/>
      <point x="239" y="640"/>
      <point x="295" y="616"/>
      <point x="336" y="575"/>
      <point x="360" y="519"/>
      <point x="360" y="488" type="qcurve" smooth="yes"/>
      <point x="360" y="448" type="line" smooth="yes"/>
      <point x="360" y="411"/>
      <point x="328" y="349"/>
      <point x="302" y="328" type="qcurve"/>
      <point x="328" y="307"/>
      <point x="360" y="245"/>
      <point x="360" y="208" type="qcurve" smooth="yes"/>
      <point x="360" y="148" type="line" smooth="yes"/>
      <point x="360" y="116"/>
      <point x="336" y="61"/>
      <point x="295" y="20"/>
      <point x="239" y="-4"/>
    </contour>
    <contour>
      <point x="120" y="448" type="line" smooth="yes"/>
      <point x="120" y="411"/>
      <point x="172" y="360"/>
      <point x="208" y="360" type="qcurve" smooth="yes"/>
      <point x="245" y="360"/>
      <point x="296" y="411"/>
      <point x="296" y="448" type="qcurve" smooth="yes"/>
      <point x="296" y="488" type="line" smooth="yes"/>
      <point x="296" y="524"/>
      <point x="245" y="576"/>
      <point x="208" y="576" type="qcurve" smooth="yes"/>
      <point x="190" y="576"/>
      <point x="158" y="562"/>
      <point x="134" y="538"/>
      <point x="120" y="506"/>
      <point x="120" y="488" type="qcurve" smooth="yes"/>
    </contour>
    <contour>
      <point x="296" y="208" type="line" smooth="yes"/>
      <point x="296" y="244"/>
      <point x="245" y="296"/>
      <point x="208" y="296" type="qcurve" smooth="yes"/>
      <point x="190" y="296"/>
      <point x="158" y="282"/>
      <point x="134" y="258"/>
      <point x="120" y="226"/>
      <point x="120" y="208" type="qcurve" smooth="yes"/>
      <point x="120" y="148" type="line" smooth="yes"/>
      <point x="120" y="111"/>
      <point x="172" y="60"/>
      <point x="208" y="60" type="qcurve" smooth="yes"/>
      <point x="245" y="60"/>
      <point x="296" y="111"/>
      <point x="296" y="148" type="qcurve" smooth="yes"/>
    </contour>
  </outline>
</glyph>
<glyph name="nine" format="1">
  <advance width="416"/>
  <unicode hex="0039"/>
  <outline>
    <contour>
      <point x="199" y="236" type="qcurve" smooth="yes"/>
      <point x="168" y="236"/>
      <point x="113" y="260"/>
      <point x="71" y="301"/>
      <point x="47" y="356"/>
      <point x="47" y="388" type="qcurve" smooth="yes"/>
      <point x="47" y="488" type="line" smooth="yes"/>
      <point x="47" y="519"/>
      <point x="71" y="575"/>
      <point x="113" y="616"/>
      <point x="168" y="640"/>
      <point x="199" y="640" type="qcurve" smooth="yes"/>
      <point x="230" y="640"/>
      <point x="286" y="616"/>
      <point x="327" y="575"/>
      <point x="351" y="519"/>
      <point x="351" y="488" type="qcurve" smooth="yes"/>
      <point x="351" y="148" type="line" smooth="yes"/>
      <point x="351" y="96"/>
      <point x="289" y="15"/>
      <point x="239" y="1" type="qcurve" smooth="yes"/>
      <point x="188" y="-13"/>
      <point x="94" y="27"/>
      <point x="68" y="72" type="qcurve" smooth="yes"/>
      <point x="61" y="83"/>
      <point x="68" y="109"/>
      <point x="79" y="116" type="qcurve" smooth="yes"/>
      <point x="91" y="122"/>
      <point x="116" y="115"/>
      <point x="123" y="104" type="qcurve" smooth="yes"/>
      <point x="138" y="78"/>
      <point x="193" y="55"/>
      <point x="222" y="63" type="qcurve" smooth="yes"/>
      <point x="251" y="71"/>
      <point x="287" y="118"/>
      <point x="287" y="148" type="qcurve" smooth="yes"/>
      <point x="287" y="264" type="line"/>
      <point x="250" y="236"/>
    </contour>
    <contour>
      <point x="199" y="576" type="qcurve" smooth="yes"/>
      <point x="181" y="576"/>
      <point x="149" y="562"/>
      <point x="125" y="538"/>
      <point x="111" y="506"/>
      <point x="111" y="488" type="qcurve" smooth="yes"/>
      <point x="111" y="388" type="line" smooth="yes"/>
      <point x="111" y="351"/>
      <point x="163" y="300"/>
      <point x="199" y="300" type="qcurve" smooth="yes"/>
      <point x="236" y="300"/>
      <point x="287" y="351"/>
      <point x="287" y="388" type="qcurve" smooth="yes"/>
      <point x="287" y="488" type="line" smooth="yes"/>
      <point x="287" y="524"/>
      <point x="236" y="576"/>
    </contour>
  </outline>
</glyph>
<glyph name="colon" format="1">
  <advance width="192"/>
  <unicode hex="003A"/>
  <outline>
    <contour>
      <point x="138" y="38" type="qcurve" smooth="yes"/>
      <point x="138" y="21"/>
      <point x="114" y="-4"/>
      <point x="96" y="-4" type="qcurve" smooth="yes"/>
      <point x="79" y="-4"/>
      <point x="54" y="21"/>
      <point x="54" y="38" type="qcurve" smooth="yes"/>
      <point x="54" y="55"/>
      <point x="79" y="80"/>
      <point x="96" y="80" type="qcurve" smooth="yes"/>
      <point x="114" y="80"/>
      <point x="138" y="55"/>
    </contour>
    <contour>
      <point x="96" y="460" type="qcurve" smooth="yes"/>
      <point x="114" y="460"/>
      <point x="138" y="435"/>
      <point x="138" y="418" type="qcurve" smooth="yes"/>
      <point x="138" y="401"/>
      <point x="114" y="376"/>
      <point x="96" y="376" type="qcurve" smooth="yes"/>
      <point x="79" y="376"/>
      <point x="54" y="401"/>
      <point x="54" y="418" type="qcurve" smooth="yes"/>
      <point x="54" y="435"/>
      <point x="79" y="460"/>
    </contour>
  </outline>
</glyph>
<glyph name="semicolon" format="1">
  <advance width="192"/>
  <unicode hex="003B"/>
  <outline>
    <contour>
      <point x="112" y="78" type="line" smooth="yes"/>
      <point x="125" y="78"/>
      <point x="143" y="61"/>
      <point x="143" y="48" type="qcurve" smooth="yes"/>
      <point x="143" y="0" type="line" smooth="yes"/>
      <point x="143" y="-25"/>
      <point x="115" y="-66"/>
      <point x="92" y="-76" type="qcurve" smooth="yes"/>
      <point x="80" y="-81"/>
      <point x="57" y="-71"/>
      <point x="52" y="-60" type="qcurve" smooth="yes"/>
      <point x="47" y="-48"/>
      <point x="57" y="-25"/>
      <point x="68" y="-20" type="qcurve" smooth="yes"/>
      <point x="82" y="-15"/>
      <point x="82" y="0" type="qcurve" smooth="yes"/>
      <point x="82" y="17" type="line"/>
      <point x="80" y="17" type="line" smooth="yes"/>
      <point x="67" y="17"/>
      <point x="50" y="35"/>
      <point x="50" y="48" type="qcurve" smooth="yes"/>
      <point x="50" y="61"/>
      <point x="67" y="78"/>
      <point x="80" y="78" type="qcurve" smooth="yes"/>
    </contour>
    <contour>
      <point x="96" y="376" type="qcurve" smooth="yes"/>
      <point x="79" y="376"/>
      <point x="54" y="401"/>
      <point x="54" y="418" type="qcurve" smooth="yes"/>
      <point x="54" y="435"/>
      <point x="79" y="460"/>
      <point x="96" y="460" type="qcurve" smooth="yes"/>
      <point x="113" y="460"/>
      <point x="138" y="435"/>
      <point x="138" y="418" type="qcurve" smooth="yes"/>
      <point x="138" y="401"/>
      <point x="113" y="376"/>
    </contour>
  </outline>
</glyph>
<glyph name="less" format="1">
  <advance width="416"/>
  <unicode hex="003C"/>
  <outline>
    <contour>
      <point x="344" y="67" type="qcurve" smooth="yes"/>
      <point x="336" y="57"/>
      <point x="310" y="55"/>
      <point x="299" y="63" type="qcurve" smooth="yes"/>
      <point x="59" y="263" type="line" smooth="yes"/>
      <point x="48" y="272"/>
      <point x="48" y="288" type="qcurve" smooth="yes"/>
      <point x="48" y="302"/>
      <point x="59" y="313" type="qcurve" smooth="yes"/>
      <point x="299" y="513" type="line" smooth="yes"/>
      <point x="310" y="521"/>
      <point x="336" y="519"/>
      <point x="344" y="508" type="qcurve" smooth="yes"/>
      <point x="352" y="498"/>
      <point x="352" y="488" type="qcurve" smooth="yes"/>
      <point x="352" y="473"/>
      <point x="340" y="463" type="qcurve" smooth="yes"/>
      <point x="293" y="424"/>
      <point x="252" y="390" type="qcurve" smooth="yes"/>
      <point x="234" y="375"/>
      <point x="198" y="345"/>
      <point x="165" y="318"/>
      <point x="138" y="295"/>
      <point x="130" y="288" type="qcurve"/>
      <point x="138" y="281"/>
      <point x="165" y="258"/>
      <point x="198" y="231"/>
      <point x="234" y="201"/>
      <point x="252" y="186" type="qcurve" smooth="yes"/>
      <point x="293" y="152"/>
      <point x="340" y="113" type="qcurve" smooth="yes"/>
      <point x="352" y="102"/>
      <point x="352" y="88" type="qcurve" smooth="yes"/>
      <point x="352" y="77"/>
    </contour>
  </outline>
</glyph>
<glyph name="equal" format="1">
  <advance width="416"/>
  <unicode hex="003D"/>
  <outline>
    <contour>
      <point x="328" y="240" type="line" smooth="yes"/>
      <point x="342" y="240"/>
      <point x="360" y="222"/>
      <point x="360" y="208" type="qcurve" smooth="yes"/>
      <point x="360" y="194"/>
      <point x="342" y="176"/>
      <point x="328" y="176" type="qcurve" smooth="yes"/>
      <point x="88" y="176" type="line" smooth="yes"/>
      <point x="75" y="176"/>
      <point x="56" y="194"/>
      <point x="56" y="208" type="qcurve" smooth="yes"/>
      <point x="56" y="222"/>
      <point x="75" y="240"/>
      <point x="88" y="240" type="qcurve" smooth="yes"/>
    </contour>
    <contour>
      <point x="328" y="400" type="line" smooth="yes"/>
      <point x="342" y="400"/>
      <point x="360" y="382"/>
      <point x="360" y="368" type="qcurve" smooth="yes"/>
      <point x="360" y="354"/>
      <point x="342" y="336"/>
      <point x="328" y="336" type="qcurve" smooth="yes"/>
      <point x="88" y="336" type="line" smooth="yes"/>
      <point x="75" y="336"/>
      <point x="56" y="354"/>
      <point x="56" y="368" type="qcurve" smooth="yes"/>
      <point x="56" y="382"/>
      <point x="75" y="400"/>
      <point x="88" y="400" type="qcurve" smooth="yes"/>
    </contour>
  </outline>
</glyph>
<glyph name="greater" format="1">
  <advance width="416"/>
  <unicode hex="003E"/>
  <outline>
    <contour>
      <point x="64" y="88" type="qcurve" smooth="yes"/>
      <point x="64" y="102"/>
      <point x="75" y="113" type="qcurve" smooth="yes"/>
      <point x="123" y="152"/>
      <point x="164" y="186" type="qcurve" smooth="yes"/>
      <point x="182" y="201"/>
      <point x="218" y="231"/>
      <point x="250" y="258"/>
      <point x="277" y="281"/>
      <point x="286" y="288" type="qcurve"/>
      <point x="277" y="295"/>
      <point x="250" y="318"/>
      <point x="218" y="345"/>
      <point x="182" y="375"/>
      <point x="164" y="390" type="qcurve" smooth="yes"/>
      <point x="123" y="424"/>
      <point x="75" y="463" type="qcurve" smooth="yes"/>
      <point x="64" y="474"/>
      <point x="64" y="488" type="qcurve" smooth="yes"/>
      <point x="64" y="500"/>
      <point x="71" y="508" type="qcurve" smooth="yes"/>
      <point x="80" y="519"/>
      <point x="106" y="521"/>
      <point x="116" y="513" type="qcurve" smooth="yes"/>
      <point x="356" y="313" type="line" smooth="yes"/>
      <point x="368" y="302"/>
      <point x="368" y="288" type="qcurve" smooth="yes"/>
      <point x="368" y="272"/>
      <point x="356" y="263" type="qcurve" smooth="yes"/>
      <point x="116" y="63" type="line" smooth="yes"/>
      <point x="106" y="55"/>
      <point x="80" y="57"/>
      <point x="71" y="67" type="qcurve" smooth="yes"/>
      <point x="64" y="75"/>
    </contour>
  </outline>
</glyph>
<glyph name="question" format="1">
  <advance width="357"/>
  <unicode hex="003F"/>
  <outline>
    <contour>
      <point x="218" y="558" type="qcurve" smooth="yes"/>
      <point x="186" y="582"/>
      <point x="147" y="574" type="qcurve" smooth="yes"/>
      <point x="108" y="566"/>
      <point x="88" y="532" type="qcurve" smooth="yes"/>
      <point x="81" y="521"/>
      <point x="56" y="513"/>
      <point x="44" y="520" type="qcurve" smooth="yes"/>
      <point x="33" y="527"/>
      <point x="26" y="553"/>
      <point x="33" y="564" type="qcurve" smooth="yes"/>
      <point x="50" y="593"/>
      <point x="102" y="630"/>
      <point x="134" y="637" type="qcurve" smooth="yes"/>
      <point x="166" y="644"/>
      <point x="230" y="629"/>
      <point x="256" y="609" type="qcurve" smooth="yes"/>
      <point x="282" y="589"/>
      <point x="314" y="531"/>
      <point x="316" y="499" type="qcurve" smooth="yes"/>
      <point x="318" y="466"/>
      <point x="295" y="404"/>
      <point x="272" y="381" type="qcurve" smooth="yes"/>
      <point x="222" y="330" type="line" smooth="yes"/>
      <point x="196" y="304"/>
      <point x="196" y="268" type="qcurve" smooth="yes"/>
      <point x="196" y="188" type="line" smooth="yes"/>
      <point x="196" y="174"/>
      <point x="178" y="156"/>
      <point x="164" y="156" type="qcurve" smooth="yes"/>
      <point x="151" y="156"/>
      <point x="132" y="174"/>
      <point x="132" y="188" type="qcurve" smooth="yes"/>
      <point x="132" y="268" type="line" smooth="yes"/>
      <point x="132" y="298"/>
      <point x="155" y="353"/>
      <point x="176" y="375" type="qcurve" smooth="yes"/>
      <point x="227" y="426" type="line" smooth="yes"/>
      <point x="255" y="454"/>
      <point x="252" y="494" type="qcurve" smooth="yes"/>
      <point x="250" y="513"/>
      <point x="233" y="547"/>
    </contour>
    <contour>
      <point x="206" y="38" type="qcurve" smooth="yes"/>
      <point x="206" y="21"/>
      <point x="181" y="-4"/>
      <point x="164" y="-4" type="qcurve" smooth="yes"/>
      <point x="147" y="-4"/>
      <point x="122" y="21"/>
      <point x="122" y="38" type="qcurve" smooth="yes"/>
      <point x="122" y="55"/>
      <point x="147" y="80"/>
      <point x="164" y="80" type="qcurve" smooth="yes"/>
      <point x="181" y="80"/>
      <point x="206" y="55"/>
    </contour>
  </outline>
</glyph>
<glyph name="at" format="1">
  <advance width="764"/>
  <unicode hex="0040"/>
  <outline>
    <contour>
      <point x="609" y="544" type="qcurve" smooth="yes"/>
      <point x="654" y="498"/>
      <point x="702" y="382"/>
      <point x="702" y="318" type="qcurve" smooth="yes"/>
      <point x="702" y="132" type="line" smooth="yes"/>
      <point x="702" y="105"/>
      <point x="682" y="58"/>
      <point x="646" y="22"/>
      <point x="599" y="2"/>
      <point x="572" y="2" type="qcurve" smooth="yes"/>
      <point x="372" y="2" type="line" smooth="yes"/>
      <point x="345" y="2"/>
      <point x="298" y="22"/>
      <point x="263" y="58"/>
      <point x="242" y="105"/>
      <point x="242" y="132" type="qcurve" smooth="yes"/>
      <point x="242" y="159"/>
      <point x="263" y="206"/>
      <point x="298" y="241"/>
      <point x="345" y="262"/>
      <point x="372" y="262" type="qcurve" smooth="yes"/>
      <point x="442" y="262" type="line"/>
      <point x="442" y="330" type="line" smooth="yes"/>
      <point x="442" y="350"/>
      <point x="419" y="384"/>
      <point x="399" y="392" type="qcurve" smooth="yes"/>
      <point x="379" y="400"/>
      <point x="338" y="392"/>
      <point x="323" y="377" type="qcurve" smooth="yes"/>
      <point x="314" y="369"/>
      <point x="289" y="369"/>
      <point x="280" y="378" type="qcurve" smooth="yes"/>
      <point x="272" y="387"/>
      <point x="272" y="412"/>
      <point x="281" y="420" type="qcurve" smooth="yes"/>
      <point x="309" y="448"/>
      <point x="385" y="462"/>
      <point x="421" y="448" type="qcurve" smooth="yes"/>
      <point x="458" y="434"/>
      <point x="502" y="369"/>
      <point x="502" y="330" type="qcurve" smooth="yes"/>
      <point x="502" y="62" type="line"/>
      <point x="572" y="62" type="line" smooth="yes"/>
      <point x="601" y="62"/>
      <point x="642" y="103"/>
      <point x="642" y="132" type="qcurve" smooth="yes"/>
      <point x="642" y="318" type="line" smooth="yes"/>
      <point x="642" y="370"/>
      <point x="603" y="464"/>
      <point x="566" y="501" type="qcurve" smooth="yes"/>
      <point x="529" y="539"/>
      <point x="435" y="578"/>
      <point x="382" y="578" type="qcurve" smooth="yes"/>
      <point x="330" y="578"/>
      <point x="236" y="539"/>
      <point x="199" y="501" type="qcurve" smooth="yes"/>
      <point x="161" y="464"/>
      <point x="122" y="370"/>
      <point x="122" y="318" type="qcurve" smooth="yes"/>
      <point x="122" y="138" type="line" smooth="yes"/>
      <point x="122" y="85"/>
      <point x="161" y="-9"/>
      <point x="199" y="-46" type="qcurve" smooth="yes"/>
      <point x="236" y="-83"/>
      <point x="330" y="-122"/>
      <point x="382" y="-122" type="qcurve" smooth="yes"/>
      <point x="492" y="-122" type="line" smooth="yes"/>
      <point x="505" y="-122"/>
      <point x="522" y="-140"/>
      <point x="522" y="-152" type="qcurve" smooth="yes"/>
      <point x="522" y="-165"/>
      <point x="505" y="-182"/>
      <point x="492" y="-182" type="qcurve" smooth="yes"/>
      <point x="382" y="-182" type="line" smooth="yes"/>
      <point x="318" y="-182"/>
      <point x="202" y="-134"/>
      <point x="156" y="-89" type="qcurve" smooth="yes"/>
      <point x="111" y="-43"/>
      <point x="62" y="73"/>
      <point x="62" y="138" type="qcurve" smooth="yes"/>
      <point x="62" y="318" type="line" smooth="yes"/>
      <point x="62" y="382"/>
      <point x="111" y="498"/>
      <point x="156" y="544" type="qcurve" smooth="yes"/>
      <point x="202" y="589"/>
      <point x="318" y="638"/>
      <point x="382" y="638" type="qcurve" smooth="yes"/>
      <point x="447" y="638"/>
      <point x="563" y="589"/>
    </contour>
    <contour>
      <point x="302" y="132" type="qcurve" smooth="yes"/>
      <point x="302" y="103"/>
      <point x="343" y="62"/>
      <point x="372" y="62" type="qcurve" smooth="yes"/>
      <point x="442" y="62" type="line"/>
      <point x="442" y="202" type="line"/>
      <point x="372" y="202" type="line" smooth="yes"/>
      <point x="343" y="202"/>
      <point x="302" y="161"/>
    </contour>
  </outline>
</glyph>
<glyph name="A" format="1">
  <advance width="432"/>
  <unicode hex="0041"/>
  <outline>
    <contour>
      <point x="407" y="36" type="line" smooth="yes"/>
      <point x="411" y="23"/>
      <point x="398" y="1"/>
      <point x="384" y="-3" type="qcurve" smooth="yes"/>
      <point x="371" y="-7"/>
      <point x="349" y="6"/>
      <point x="345" y="19" type="qcurve" smooth="yes"/>
      <point x="341" y="34"/>
      <point x="336" y="52" type="qcurve" smooth="yes"/>
      <point x="331" y="68"/>
      <point x="320" y="110"/>
      <point x="313" y="136" type="qcurve"/>
      <point x="119" y="136" type="line"/>
      <point x="111" y="110"/>
      <point x="101" y="68"/>
      <point x="96" y="52" type="qcurve" smooth="yes"/>
      <point x="91" y="34"/>
      <point x="87" y="19" type="qcurve" smooth="yes"/>
      <point x="83" y="6"/>
      <point x="61" y="-7"/>
      <point x="47" y="-3" type="qcurve" smooth="yes"/>
      <point x="34" y="1"/>
      <point x="21" y="23"/>
      <point x="25" y="36" type="qcurve" smooth="yes"/>
      <point x="185" y="616" type="line" smooth="yes"/>
      <point x="188" y="627"/>
      <point x="205" y="640"/>
      <point x="216" y="640" type="qcurve" smooth="yes"/>
      <point x="227" y="640"/>
      <point x="244" y="627"/>
      <point x="247" y="616" type="qcurve" smooth="yes"/>
    </contour>
    <contour>
      <point x="295" y="200" type="line"/>
      <point x="285" y="237"/>
      <point x="263" y="316"/>
      <point x="242" y="392"/>
      <point x="223" y="461"/>
      <point x="216" y="488" type="qcurve"/>
      <point x="208" y="461"/>
      <point x="190" y="392"/>
      <point x="169" y="316"/>
      <point x="147" y="237"/>
      <point x="137" y="200" type="qcurve"/>
    </contour>
  </outline>
</glyph>
<glyph name="B" format="1">
  <advance width="428"/>
  <unicode hex="0042"/>
  <outline>
    <contour>
      <point x="68" y="604" type="line" smooth="yes"/>
      <point x="68" y="618"/>
      <point x="86" y="636"/>
      <point x="100" y="636" type="qcurve" smooth="yes"/>
      <point x="220" y="636" type="line" smooth="yes"/>
      <point x="251" y="636"/>
      <point x="307" y="612"/>
      <point x="348" y="571"/>
      <point x="372" y="515"/>
      <point x="372" y="484" type="qcurve" smooth="yes"/>
      <point x="372" y="448" type="line" smooth="yes"/>
      <point x="372" y="411"/>
      <point x="340" y="349"/>
      <point x="313" y="328" type="qcurve"/>
      <point x="340" y="307"/>
      <point x="372" y="245"/>
      <point x="372" y="208" type="qcurve" smooth="yes"/>
      <point x="372" y="152" type="line" smooth="yes"/>
      <point x="372" y="120"/>
      <point x="348" y="65"/>
      <point x="307" y="24"/>
      <point x="251" y="0"/>
      <point x="220" y="0" type="qcurve" smooth="yes"/>
      <point x="100" y="0" type="line" smooth="yes"/>
      <point x="86" y="0"/>
      <point x="68" y="18"/>
      <point x="68" y="32" type="qcurve" smooth="yes"/>
    </contour>
    <contour>
      <point x="308" y="208" type="line" smooth="yes"/>
      <point x="308" y="226"/>
      <point x="294" y="258"/>
      <point x="270" y="282"/>
      <point x="238" y="296"/>
      <point x="220" y="296" type="qcurve" smooth="yes"/>
      <point x="132" y="296" type="line"/>
      <point x="132" y="64" type="line"/>
      <point x="220" y="64" type="line" smooth="yes"/>
      <point x="256" y="64"/>
      <point x="308" y="115"/>
      <point x="308" y="152" type="qcurve" smooth="yes"/>
    </contour>
    <contour>
      <point x="308" y="484" type="line" smooth="yes"/>
      <point x="308" y="502"/>
      <point x="294" y="534"/>
      <point x="270" y="558"/>
      <point x="238" y="572"/>
      <point x="220" y="572" type="qcurve" smooth="yes"/>
      <point x="132" y="572" type="line"/>
      <point x="132" y="360" type="line"/>
      <point x="220" y="360" type="line" smooth="yes"/>
      <point x="256" y="360"/>
      <point x="308" y="411"/>
      <point x="308" y="448" type="qcurve" smooth="yes"/>
    </contour>
  </outline>
</glyph>
<glyph name="C" format="1">
  <advance width="385"/>
  <unicode hex="0043"/>
  <outline>
    <contour>
      <point x="169" y="1" type="qcurve" smooth="yes"/>
      <point x="118" y="15"/>
      <point x="56" y="96"/>
      <point x="56" y="148" type="qcurve" smooth="yes"/>
      <point x="56" y="488" type="line" smooth="yes"/>
      <point x="56" y="540"/>
      <point x="118" y="621"/>
      <point x="169" y="635" type="qcurve" smooth="yes"/>
      <point x="194" y="642"/>
      <point x="244" y="638"/>
      <point x="289" y="619"/>
      <point x="327" y="586"/>
      <point x="340" y="564" type="qcurve" smooth="yes"/>
      <point x="346" y="553"/>
      <point x="339" y="527"/>
      <point x="328" y="520" type="qcurve" smooth="yes"/>
      <point x="317" y="513"/>
      <point x="291" y="521"/>
      <point x="284" y="532" type="qcurve" smooth="yes"/>
      <point x="269" y="558"/>
      <point x="214" y="581"/>
      <point x="185" y="573" type="qcurve" smooth="yes"/>
      <point x="156" y="565"/>
      <point x="120" y="518"/>
      <point x="120" y="488" type="qcurve" smooth="yes"/>
      <point x="120" y="148" type="line" smooth="yes"/>
      <point x="120" y="118"/>
      <point x="156" y="71"/>
      <point x="185" y="63" type="qcurve" smooth="yes"/>
      <point x="214" y="55"/>
      <point x="269" y="78"/>
      <point x="284" y="104" type="qcurve" smooth="yes"/>
      <point x="291" y="115"/>
      <point x="317" y="122"/>
      <point x="328" y="116" type="qcurve" smooth="yes"/>
      <point x="339" y="109"/>
      <point x="346" y="83"/>
      <point x="340" y="72" type="qcurve" smooth="yes"/>
      <point x="327" y="49"/>
      <point x="289" y="17"/>
      <point x="244" y="-2"/>
      <point x="194" y="-6"/>
    </contour>
  </outline>
</glyph>
<glyph name="D" format="1">
  <advance width="428"/>
  <unicode hex="0044"/>
  <outline>
    <contour>
      <point x="220" y="636" type="line" smooth="yes"/>
      <point x="251" y="636"/>
      <point x="307" y="612"/>
      <point x="348" y="571"/>
      <point x="372" y="515"/>
      <point x="372" y="484" type="qcurve" smooth="yes"/>
      <point x="372" y="152" type="line" smooth="yes"/>
      <point x="372" y="120"/>
      <point x="348" y="65"/>
      <point x="307" y="24"/>
      <point x="251" y="0"/>
      <point x="220" y="0" type="qcurve" smooth="yes"/>
      <point x="100" y="0" type="line" smooth="yes"/>
      <point x="86" y="0"/>
      <point x="68" y="18"/>
      <point x="68" y="32" type="qcurve" smooth="yes"/>
      <point x="68" y="604" type="line" smooth="yes"/>
      <point x="68" y="618"/>
      <point x="86" y="636"/>
      <point x="100" y="636" type="qcurve" smooth="yes"/>
    </contour>
    <contour>
      <point x="308" y="484" type="line" smooth="yes"/>
      <point x="308" y="520"/>
      <point x="257" y="572"/>
      <point x="220" y="572" type="qcurve" smooth="yes"/>
      <point x="132" y="572" type="line"/>
      <point x="132" y="64" type="line"/>
      <point x="220" y="64" type="line" smooth="yes"/>
      <point x="257" y="64"/>
      <point x="308" y="115"/>
      <point x="308" y="152" type="qcurve" smooth="yes"/>
    </contour>
  </outline>
</glyph>
<glyph name="E" format="1">
  <advance width="368"/>
  <unicode hex="0045"/>
  <outline>
    <contour>
      <point x="68" y="604" type="line" smooth="yes"/>
      <point x="68" y="618"/>
      <point x="86" y="636"/>
      <point x="100" y="636" type="qcurve" smooth="yes"/>
      <point x="300" y="636" type="line" smooth="yes"/>
      <point x="314" y="636"/>
      <point x="332" y="618"/>
      <point x="332" y="604" type="qcurve" smooth="yes"/>
      <point x="332" y="590"/>
      <point x="314" y="572"/>
      <point x="300" y="572" type="qcurve" smooth="yes"/>
      <point x="132" y="572" type="line"/>
      <point x="132" y="360" type="line"/>
      <point x="280" y="360" type="line" smooth="yes"/>
      <point x="294" y="360"/>
      <point x="312" y="342"/>
      <point x="312" y="328" type="qcurve" smooth="yes"/>
      <point x="312" y="314"/>
      <point x="294" y="296"/>
      <point x="280" y="296" type="qcurve" smooth="yes"/>
      <point x="132" y="296" type="line"/>
      <point x="132" y="64" type="line"/>
      <point x="300" y="64" type="line" smooth="yes"/>
      <point x="314" y="64"/>
      <point x="332" y="46"/>
      <point x="332" y="32" type="qcurve" smooth="yes"/>
      <point x="332" y="18"/>
      <point x="314" y="0"/>
      <point x="300" y="0" type="qcurve" smooth="yes"/>
      <point x="100" y="0" type="line" smooth="yes"/>
      <point x="86" y="0"/>
      <point x="68" y="18"/>
      <point x="68" y="32" type="qcurve" smooth="yes"/>
    </contour>
  </outline>
</glyph>
<glyph name="F" format="1">
  <advance width="360"/>
  <unicode hex="0046"/>
  <outline>
    <contour>
      <point x="100" y="0" type="qcurve" smooth="yes"/>
      <point x="87" y="0"/>
      <point x="68" y="18"/>
      <point x="68" y="32" type="qcurve" smooth="yes"/>
      <point x="68" y="604" type="line" smooth="yes"/>
      <point x="68" y="618"/>
      <point x="87" y="636"/>
      <point x="100" y="636" type="qcurve" smooth="yes"/>
      <point x="300" y="636" type="line" smooth="yes"/>
      <point x="314" y="636"/>
      <point x="332" y="618"/>
      <point x="332" y="604" type="qcurve" smooth="yes"/>
      <point x="332" y="590"/>
      <point x="314" y="572"/>
      <point x="300" y="572" type="qcurve" smooth="yes"/>
      <point x="132" y="572" type="line"/>
      <point x="132" y="360" type="line"/>
      <point x="280" y="360" type="line" smooth="yes"/>
      <point x="294" y="360"/>
      <point x="312" y="342"/>
      <point x="312" y="328" type="qcurve" smooth="yes"/>
      <point x="312" y="314"/>
      <point x="294" y="296"/>
      <point x="280" y="296" type="qcurve" smooth="yes"/>
      <point x="132" y="296" type="line"/>
      <point x="132" y="32" type="line" smooth="yes"/>
      <point x="132" y="18"/>
      <point x="114" y="0"/>
    </contour>
  </outline>
</glyph>
<glyph name="G" format="1">
  <advance width="412"/>
  <unicode hex="0047"/>
  <outline>
    <contour>
      <point x="56" y="488" type="line"/>
      <point x="56" y="540"/>
      <point x="119" y="621"/>
      <point x="169" y="635" type="qcurve" smooth="yes"/>
      <point x="194" y="642"/>
      <point x="244" y="638"/>
      <point x="289" y="619"/>
      <point x="327" y="586"/>
      <point x="340" y="564" type="qcurve" smooth="yes"/>
      <point x="347" y="553"/>
      <point x="340" y="527"/>
      <point x="328" y="520" type="qcurve" smooth="yes"/>
      <point x="317" y="513"/>
      <point x="291" y="521"/>
      <point x="284" y="532" type="qcurve" smooth="yes"/>
      <point x="270" y="558"/>
      <point x="215" y="581"/>
      <point x="186" y="573" type="qcurve" smooth="yes"/>
      <point x="157" y="565"/>
      <point x="120" y="518"/>
      <point x="120" y="488" type="qcurve" smooth="yes"/>
      <point x="120" y="148" type="line" smooth="yes"/>
      <point x="120" y="111"/>
      <point x="172" y="60"/>
      <point x="208" y="60" type="qcurve" smooth="yes"/>
      <point x="245" y="60"/>
      <point x="296" y="111"/>
      <point x="296" y="148" type="qcurve" smooth="yes"/>
      <point x="296" y="276" type="line"/>
      <point x="228" y="276" type="line" smooth="yes"/>
      <point x="215" y="276"/>
      <point x="196" y="294"/>
      <point x="196" y="308" type="qcurve" smooth="yes"/>
      <point x="196" y="322"/>
      <point x="215" y="340"/>
      <point x="228" y="340" type="qcurve" smooth="yes"/>
      <point x="328" y="340" type="line" smooth="yes"/>
      <point x="342" y="340"/>
      <point x="360" y="322"/>
      <point x="360" y="308" type="qcurve" smooth="yes"/>
      <point x="360" y="148" type="line" smooth="yes"/>
      <point x="360" y="116"/>
      <point x="336" y="61"/>
      <point x="295" y="20"/>
      <point x="239" y="-4"/>
      <point x="208" y="-4" type="qcurve" smooth="yes"/>
      <point x="176" y="-4"/>
      <point x="121" y="20"/>
      <point x="80" y="61"/>
      <point x="56" y="116"/>
      <point x="56" y="148" type="qcurve" smooth="yes"/>
      <point x="56" y="488" type="line"/>
    </contour>
  </outline>
</glyph>
<glyph name="H" format="1">
  <advance width="440"/>
  <unicode hex="0048"/>
  <outline>
    <contour>
      <point x="308" y="608" type="line"/>
      <point x="308" y="622"/>
      <point x="327" y="640"/>
      <point x="340" y="640" type="qcurve" smooth="yes"/>
      <point x="354" y="640"/>
      <point x="372" y="622"/>
      <point x="372" y="608" type="qcurve" smooth="yes"/>
      <point x="372" y="28" type="line" smooth="yes"/>
      <point x="372" y="14"/>
      <point x="354" y="-4"/>
      <point x="340" y="-4" type="qcurve" smooth="yes"/>
      <point x="327" y="-4"/>
      <point x="308" y="14"/>
      <point x="308" y="28" type="qcurve" smooth="yes"/>
      <point x="308" y="296" type="line"/>
      <point x="132" y="296" type="line"/>
      <point x="132" y="28" type="line" smooth="yes"/>
      <point x="132" y="14"/>
      <point x="114" y="-4"/>
      <point x="100" y="-4" type="qcurve" smooth="yes"/>
      <point x="87" y="-4"/>
      <point x="68" y="14"/>
      <point x="68" y="28" type="qcurve" smooth="yes"/>
      <point x="68" y="608" type="line" smooth="yes"/>
      <point x="68" y="622"/>
      <point x="87" y="640"/>
      <point x="100" y="640" type="qcurve" smooth="yes"/>
      <point x="114" y="640"/>
      <point x="132" y="622"/>
      <point x="132" y="608" type="qcurve" smooth="yes"/>
      <point x="132" y="360" type="line"/>
      <point x="308" y="360" type="line"/>
      <point x="308" y="608" type="line"/>
    </contour>
  </outline>
</glyph>
<glyph name="I" format="1">
  <advance width="200"/>
  <unicode hex="0049"/>
  <outline>
    <contour>
      <point x="100" y="-4" type="qcurve" smooth="yes"/>
      <point x="87" y="-4"/>
      <point x="68" y="14"/>
      <point x="68" y="28" type="qcurve" smooth="yes"/>
      <point x="68" y="608" type="line" smooth="yes"/>
      <point x="68" y="622"/>
      <point x="87" y="640"/>
      <point x="100" y="640" type="qcurve" smooth="yes"/>
      <point x="114" y="640"/>
      <point x="132" y="622"/>
      <point x="132" y="608" type="qcurve" smooth="yes"/>
      <point x="132" y="28" type="line" smooth="yes"/>
      <point x="132" y="14"/>
      <point x="114" y="-4"/>
    </contour>
  </outline>
</glyph>
<glyph name="J" format="1">
  <advance width="333"/>
  <unicode hex="004A"/>
  <outline>
    <contour>
      <point x="269" y="148" type="line"/>
      <point x="269" y="107"/>
      <point x="228" y="36"/>
      <point x="193" y="16" type="qcurve" smooth="yes"/>
      <point x="158" y="-4"/>
      <point x="76" y="-4"/>
      <point x="41" y="16" type="qcurve" smooth="yes"/>
      <point x="29" y="23"/>
      <point x="22" y="49"/>
      <point x="29" y="60" type="qcurve" smooth="yes"/>
      <point x="36" y="71"/>
      <point x="61" y="79"/>
      <point x="73" y="72" type="qcurve" smooth="yes"/>
      <point x="93" y="60"/>
      <point x="140" y="60"/>
      <point x="161" y="72" type="qcurve" smooth="yes"/>
      <point x="181" y="83"/>
      <point x="205" y="125"/>
      <point x="205" y="148" type="qcurve" smooth="yes"/>
      <point x="205" y="608" type="line" smooth="yes"/>
      <point x="205" y="622"/>
      <point x="223" y="640"/>
      <point x="237" y="640" type="qcurve" smooth="yes"/>
      <point x="250" y="640"/>
      <point x="269" y="622"/>
      <point x="269" y="608" type="qcurve" smooth="yes"/>
      <point x="269" y="148" type="line"/>
    </contour>
  </outline>
</glyph>
<glyph name="K" format="1">
  <advance width="421"/>
  <unicode hex="004B"/>
  <outline>
    <contour>
      <point x="389" y="42" type="line" smooth="yes"/>
      <point x="395" y="30"/>
      <point x="386" y="5"/>
      <point x="374" y="-1" type="qcurve" smooth="yes"/>
      <point x="362" y="-7"/>
      <point x="337" y="2"/>
      <point x="332" y="14" type="qcurve" smooth="yes"/>
      <point x="188" y="311" type="line"/>
      <point x="132" y="233" type="line"/>
      <point x="132" y="28" type="line" smooth="yes"/>
      <point x="132" y="14"/>
      <point x="114" y="-4"/>
      <point x="100" y="-4" type="qcurve" smooth="yes"/>
      <point x="87" y="-4"/>
      <point x="68" y="14"/>
      <point x="68" y="28" type="qcurve" smooth="yes"/>
      <point x="68" y="608" type="line" smooth="yes"/>
      <point x="68" y="622"/>
      <point x="87" y="640"/>
      <point x="100" y="640" type="qcurve" smooth="yes"/>
      <point x="114" y="640"/>
      <point x="132" y="622"/>
      <point x="132" y="608" type="qcurve" smooth="yes"/>
      <point x="132" y="343" type="line"/>
      <point x="334" y="627" type="line" smooth="yes"/>
      <point x="342" y="638"/>
      <point x="368" y="642"/>
      <point x="379" y="634" type="qcurve" smooth="yes"/>
      <point x="390" y="626"/>
      <point x="394" y="600"/>
      <point x="386" y="589" type="qcurve" smooth="yes"/>
      <point x="231" y="371" type="line"/>
    </contour>
  </outline>
</glyph>
<glyph name="L" format="1">
  <advance width="348"/>
  <unicode hex="004C"/>
  <outline>
    <contour>
      <point x="100" y="0" type="line"/>
      <point x="86" y="0"/>
      <point x="68" y="18"/>
      <point x="68" y="32" type="qcurve" smooth="yes"/>
      <point x="68" y="608" type="line" smooth="yes"/>
      <point x="68" y="622"/>
      <point x="86" y="640"/>
      <point x="100" y="640" type="qcurve" smooth="yes"/>
      <point x="113" y="640"/>
      <point x="132" y="622"/>
      <point x="132" y="608" type="qcurve" smooth="yes"/>
      <point x="132" y="64" type="line"/>
      <point x="300" y="64" type="line" smooth="yes"/>
      <point x="313" y="64"/>
      <point x="332" y="46"/>
      <point x="332" y="32" type="qcurve" smooth="yes"/>
      <point x="332" y="18"/>
      <point x="313" y="0"/>
      <point x="300" y="0" type="qcurve" smooth="yes"/>
      <point x="100" y="0" type="line"/>
    </contour>
  </outline>
</glyph>
<glyph name="M" format="1">
  <advance width="520"/>
  <unicode hex="004D"/>
  <outline>
    <contour>
      <point x="100" y="-4" type="qcurve" smooth="yes"/>
      <point x="86" y="-4"/>
      <point x="68" y="14"/>
      <point x="68" y="28" type="qcurve" smooth="yes"/>
      <point x="68" y="608" type="line" smooth="yes"/>
      <point x="68" y="619"/>
      <point x="82" y="637"/>
      <point x="93" y="639" type="qcurve" smooth="yes"/>
      <point x="104" y="641"/>
      <point x="124" y="632"/>
      <point x="129" y="622" type="qcurve" smooth="yes"/>
      <point x="155" y="566"/>
      <point x="180" y="514" type="qcurve" smooth="yes"/>
      <point x="201" y="469"/>
      <point x="245" y="374"/>
      <point x="260" y="343" type="qcurve"/>
      <point x="267" y="358"/>
      <point x="286" y="399"/>
      <point x="307" y="444"/>
      <point x="329" y="492"/>
      <point x="340" y="514" type="qcurve" smooth="yes"/>
      <point x="365" y="566"/>
      <point x="391" y="622" type="qcurve" smooth="yes"/>
      <point x="396" y="632"/>
      <point x="416" y="641"/>
      <point x="427" y="639" type="qcurve" smooth="yes"/>
      <point x="438" y="637"/>
      <point x="452" y="619"/>
      <point x="452" y="608" type="qcurve" smooth="yes"/>
      <point x="452" y="28" type="line" smooth="yes"/>
      <point x="452" y="14"/>
      <point x="433" y="-4"/>
      <point x="420" y="-4" type="qcurve" smooth="yes"/>
      <point x="406" y="-4"/>
      <point x="388" y="14"/>
      <point x="388" y="28" type="qcurve" smooth="yes"/>
      <point x="388" y="465" type="line"/>
      <point x="370" y="427"/>
      <point x="335" y="352"/>
      <point x="321" y="322" type="qcurve" smooth="yes"/>
      <point x="304" y="287"/>
      <point x="289" y="254" type="qcurve" smooth="yes"/>
      <point x="279" y="236"/>
      <point x="260" y="236" type="qcurve" smooth="yes"/>
      <point x="239" y="236"/>
      <point x="231" y="254" type="qcurve" smooth="yes"/>
      <point x="216" y="287"/>
      <point x="199" y="322" type="qcurve" smooth="yes"/>
      <point x="185" y="352"/>
      <point x="149" y="427"/>
      <point x="132" y="465" type="qcurve"/>
      <point x="132" y="28" type="line" smooth="yes"/>
      <point x="132" y="14"/>
      <point x="113" y="-4"/>
    </contour>
  </outline>
</glyph>
<glyph name="N" format="1">
  <advance width="480"/>
  <unicode hex="004E"/>
  <outline>
    <contour>
      <point x="387" y="-3" type="qcurve" smooth="yes"/>
      <point x="376" y="-6"/>
      <point x="356" y="4"/>
      <point x="351" y="14" type="qcurve" smooth="yes"/>
      <point x="309" y="100"/>
      <point x="269" y="183" type="qcurve" smooth="yes"/>
      <point x="252" y="218"/>
      <point x="215" y="294"/>
      <point x="179" y="369"/>
      <point x="146" y="439"/>
      <point x="132" y="468" type="qcurve"/>
      <point x="132" y="28" type="line" smooth="yes"/>
      <point x="132" y="14"/>
      <point x="114" y="-4"/>
      <point x="100" y="-4" type="qcurve" smooth="yes"/>
      <point x="86" y="-4"/>
      <point x="68" y="14"/>
      <point x="68" y="28" type="qcurve" smooth="yes"/>
      <point x="68" y="608" type="line" smooth="yes"/>
      <point x="68" y="619"/>
      <point x="82" y="637"/>
      <point x="93" y="639" type="qcurve" smooth="yes"/>
      <point x="104" y="641"/>
      <point x="124" y="632"/>
      <point x="129" y="622" type="qcurve" smooth="yes"/>
      <point x="170" y="536"/>
      <point x="210" y="453" type="qcurve" smooth="yes"/>
      <point x="227" y="418"/>
      <point x="264" y="342"/>
      <point x="300" y="267"/>
      <point x="334" y="197"/>
      <point x="348" y="168" type="qcurve"/>
      <point x="348" y="608" type="line" smooth="yes"/>
      <point x="348" y="622"/>
      <point x="366" y="640"/>
      <point x="380" y="640" type="qcurve" smooth="yes"/>
      <point x="394" y="640"/>
      <point x="412" y="622"/>
      <point x="412" y="608" type="qcurve" smooth="yes"/>
      <point x="412" y="28" type="line" smooth="yes"/>
      <point x="412" y="17"/>
      <point x="398" y="-1"/>
    </contour>
  </outline>
</glyph>
<glyph name="P" format="1">
  <advance width="400"/>
  <unicode hex="0050"/>
  <outline>
    <contour>
      <point x="68" y="604" type="line" smooth="yes"/>
      <point x="68" y="618"/>
      <point x="86" y="636"/>
      <point x="100" y="636" type="qcurve" smooth="yes"/>
      <point x="220" y="636" type="line" smooth="yes"/>
      <point x="251" y="636"/>
      <point x="307" y="612"/>
      <point x="348" y="571"/>
      <point x="372" y="515"/>
      <point x="372" y="484" type="qcurve" smooth="yes"/>
      <point x="372" y="428" type="line" smooth="yes"/>
      <point x="372" y="396"/>
      <point x="348" y="341"/>
      <point x="307" y="300"/>
      <point x="251" y="276"/>
      <point x="220" y="276" type="qcurve" smooth="yes"/>
      <point x="132" y="276" type="line"/>
      <point x="132" y="28" type="line" smooth="yes"/>
      <point x="132" y="14"/>
      <point x="114" y="-4"/>
      <point x="100" y="-4" type="qcurve" smooth="yes"/>
      <point x="86" y="-4"/>
      <point x="68" y="14"/>
      <point x="68" y="28" type="qcurve" smooth="yes"/>
    </contour>
    <contour>
      <point x="308" y="484" type="line" smooth="yes"/>
      <point x="308" y="502"/>
      <point x="294" y="534"/>
      <point x="270" y="558"/>
      <point x="238" y="572"/>
      <point x="220" y="572" type="qcurve" smooth="yes"/>
      <point x="132" y="572" type="line"/>
      <point x="132" y="340" type="line"/>
      <point x="220" y="340" type="line" smooth="yes"/>
      <point x="256" y="340"/>
      <point x="308" y="391"/>
      <point x="308" y="428" type="qcurve" smooth="yes"/>
    </contour>
  </outline>
</glyph>
<glyph name="Q" format="1">
  <advance width="416"/>
  <unicode hex="0051"/>
  <outline>
    <contour>
      <point x="56" y="488" type="line" smooth="yes"/>
      <point x="56" y="519"/>
      <point x="80" y="575"/>
      <point x="121" y="616"/>
      <point x="176" y="640"/>
      <point x="208" y="640" type="qcurve" smooth="yes"/>
      <point x="239" y="640"/>
      <point x="295" y="616"/>
      <point x="336" y="575"/>
      <point x="360" y="519"/>
      <point x="360" y="488" type="qcurve" smooth="yes"/>
      <point x="360" y="148" type="line" smooth="yes"/>
      <point x="360" y="114"/>
      <point x="333" y="56"/>
      <point x="310" y="35" type="qcurve"/>
      <point x="356" y="-44" type="line" smooth="yes"/>
      <point x="363" y="-55"/>
      <point x="355" y="-81"/>
      <point x="344" y="-88" type="qcurve" smooth="yes"/>
      <point x="333" y="-94"/>
      <point x="307" y="-87"/>
      <point x="300" y="-76" type="qcurve" smooth="yes"/>
      <point x="255" y="3" type="line"/>
      <point x="244" y="0"/>
      <point x="220" y="-4"/>
      <point x="208" y="-4" type="qcurve" smooth="yes"/>
      <point x="176" y="-4"/>
      <point x="121" y="20"/>
      <point x="80" y="61"/>
      <point x="56" y="116"/>
      <point x="56" y="148" type="qcurve" smooth="yes"/>
    </contour>
    <contour>
      <point x="208" y="576" type="qcurve" smooth="yes"/>
      <point x="190" y="576"/>
      <point x="158" y="562"/>
      <point x="134" y="538"/>
      <point x="120" y="506"/>
      <point x="120" y="488" type="qcurve" smooth="yes"/>
      <point x="120" y="148" type="line" smooth="yes"/>
      <point x="120" y="111"/>
      <point x="172" y="60"/>
      <point x="208" y="60" type="qcurve" smooth="yes"/>
      <point x="245" y="60"/>
      <point x="296" y="111"/>
      <point x="296" y="148" type="qcurve" smooth="yes"/>
      <point x="296" y="488" type="line" smooth="yes"/>
      <point x="296" y="524"/>
      <point x="245" y="576"/>
    </contour>
  </outline>
</glyph>
<glyph name="R" format="1">
  <advance width="416"/>
  <unicode hex="0052"/>
  <outline>
    <contour>
      <point x="372" y="428" type="line" smooth="yes"/>
      <point x="372" y="380"/>
      <point x="320" y="304"/>
      <point x="278" y="287" type="qcurve"/>
      <point x="370" y="39" type="line" smooth="yes"/>
      <point x="375" y="27"/>
      <point x="364" y="3"/>
      <point x="351" y="-2" type="qcurve" smooth="yes"/>
      <point x="339" y="-7"/>
      <point x="315" y="4"/>
      <point x="310" y="17" type="qcurve" smooth="yes"/>
      <point x="214" y="276" type="line"/>
      <point x="132" y="276" type="line"/>
      <point x="132" y="28" type="line" smooth="yes"/>
      <point x="132" y="14"/>
      <point x="114" y="-4"/>
      <point x="100" y="-4" type="qcurve" smooth="yes"/>
      <point x="87" y="-4"/>
      <point x="68" y="14"/>
      <point x="68" y="28" type="qcurve" smooth="yes"/>
      <point x="68" y="604" type="line" smooth="yes"/>
      <point x="68" y="618"/>
      <point x="87" y="636"/>
      <point x="100" y="636" type="qcurve" smooth="yes"/>
      <point x="220" y="636" type="line" smooth="yes"/>
      <point x="251" y="636"/>
      <point x="307" y="612"/>
      <point x="348" y="571"/>
      <point x="372" y="515"/>
      <point x="372" y="484" type="qcurve" smooth="yes"/>
    </contour>
    <contour>
      <point x="220" y="340" type="line" smooth="yes"/>
      <point x="257" y="340"/>
      <point x="308" y="391"/>
      <point x="308" y="428" type="qcurve" smooth="yes"/>
      <point x="308" y="484" type="line" smooth="yes"/>
      <point x="308" y="520"/>
      <point x="257" y="572"/>
      <point x="220" y="572" type="qcurve" smooth="yes"/>
      <point x="132" y="572" type="line"/>
      <point x="132" y="340" type="line"/>
    </contour>
  </outline>
</glyph>
<glyph name="S" format="1">
  <advance width="382"/>
  <unicode hex="0053"/>
  <outline>
    <contour>
      <point x="240" y="79" type="qcurve" smooth="yes"/>
      <point x="274" y="104"/>
      <point x="277" y="146" type="qcurve" smooth="yes"/>
      <point x="279" y="166"/>
      <point x="265" y="204"/>
      <point x="251" y="218" type="qcurve" smooth="yes"/>
      <point x="91" y="382" type="line" smooth="yes"/>
      <point x="68" y="405"/>
      <point x="46" y="467"/>
      <point x="49" y="499" type="qcurve" smooth="yes"/>
      <point x="51" y="532"/>
      <point x="83" y="589"/>
      <point x="109" y="609" type="qcurve" smooth="yes"/>
      <point x="135" y="629"/>
      <point x="199" y="644"/>
      <point x="231" y="637" type="qcurve" smooth="yes"/>
      <point x="263" y="630"/>
      <point x="315" y="593"/>
      <point x="332" y="564" type="qcurve" smooth="yes"/>
      <point x="339" y="553"/>
      <point x="332" y="527"/>
      <point x="320" y="520" type="qcurve" smooth="yes"/>
      <point x="309" y="513"/>
      <point x="283" y="521"/>
      <point x="277" y="532" type="qcurve" smooth="yes"/>
      <point x="257" y="566"/>
      <point x="218" y="574" type="qcurve" smooth="yes"/>
      <point x="179" y="582"/>
      <point x="147" y="558" type="qcurve" smooth="yes"/>
      <point x="116" y="535"/>
      <point x="113" y="495" type="qcurve" smooth="yes"/>
      <point x="110" y="456"/>
      <point x="137" y="427" type="qcurve" smooth="yes"/>
      <point x="297" y="262" type="line" smooth="yes"/>
      <point x="320" y="238"/>
      <point x="343" y="175"/>
      <point x="341" y="141" type="qcurve" smooth="yes"/>
      <point x="338" y="107"/>
      <point x="306" y="48"/>
      <point x="279" y="28" type="qcurve" smooth="yes"/>
      <point x="252" y="8"/>
      <point x="186" y="-8"/>
      <point x="153" y="-1" type="qcurve" smooth="yes"/>
      <point x="120" y="6"/>
      <point x="65" y="45"/>
      <point x="48" y="74" type="qcurve" smooth="yes"/>
      <point x="42" y="86"/>
      <point x="49" y="111"/>
      <point x="60" y="118" type="qcurve" smooth="yes"/>
      <point x="71" y="125"/>
      <point x="97" y="118"/>
      <point x="104" y="106" type="qcurve" smooth="yes"/>
      <point x="114" y="89"/>
      <point x="146" y="66"/>
      <point x="166" y="62" type="qcurve" smooth="yes"/>
      <point x="207" y="54"/>
    </contour>
  </outline>
</glyph>
<glyph name="T" format="1">
  <advance width="380"/>
  <unicode hex="0054"/>
  <outline>
    <contour>
      <point x="320" y="636" type="line" smooth="yes"/>
      <point x="334" y="636"/>
      <point x="352" y="618"/>
      <point x="352" y="604" type="qcurve" smooth="yes"/>
      <point x="352" y="590"/>
      <point x="334" y="572"/>
      <point x="320" y="572" type="qcurve" smooth="yes"/>
      <point x="222" y="572" type="line"/>
      <point x="222" y="28" type="line" smooth="yes"/>
      <point x="222" y="14"/>
      <point x="204" y="-4"/>
      <point x="190" y="-4" type="qcurve" smooth="yes"/>
      <point x="177" y="-4"/>
      <point x="158" y="14"/>
      <point x="158" y="28" type="qcurve" smooth="yes"/>
      <point x="158" y="572" type="line"/>
      <point x="60" y="572" type="line" smooth="yes"/>
      <point x="47" y="572"/>
      <point x="28" y="590"/>
      <point x="28" y="604" type="qcurve" smooth="yes"/>
      <point x="28" y="618"/>
      <point x="47" y="636"/>
      <point x="60" y="636" type="qcurve" smooth="yes"/>
    </contour>
  </outline>
</glyph>
<glyph name="U" format="1">
  <advance width="424"/>
  <unicode hex="0055"/>
  <outline>
    <contour>
      <point x="124" y="148" type="line"/>
      <point x="124" y="111"/>
      <point x="175" y="60"/>
      <point x="212" y="60" type="qcurve" smooth="yes"/>
      <point x="248" y="60"/>
      <point x="300" y="111"/>
      <point x="300" y="148" type="qcurve" smooth="yes"/>
      <point x="300" y="608" type="line" smooth="yes"/>
      <point x="300" y="622"/>
      <point x="318" y="640"/>
      <point x="332" y="640" type="qcurve" smooth="yes"/>
      <point x="345" y="640"/>
      <point x="364" y="622"/>
      <point x="364" y="608" type="qcurve" smooth="yes"/>
      <point x="364" y="148" type="line" smooth="yes"/>
      <point x="364" y="116"/>
      <point x="340" y="61"/>
      <point x="298" y="20"/>
      <point x="243" y="-4"/>
      <point x="212" y="-4" type="qcurve" smooth="yes"/>
      <point x="180" y="-4"/>
      <point x="125" y="20"/>
      <point x="84" y="61"/>
      <point x="60" y="116"/>
      <point x="60" y="148" type="qcurve" smooth="yes"/>
      <point x="60" y="608" type="line" smooth="yes"/>
      <point x="60" y="622"/>
      <point x="78" y="640"/>
      <point x="92" y="640" type="qcurve" smooth="yes"/>
      <point x="105" y="640"/>
      <point x="124" y="622"/>
      <point x="124" y="608" type="qcurve" smooth="yes"/>
      <point x="124" y="148" type="line"/>
    </contour>
  </outline>
</glyph>
<glyph name="V" format="1">
  <advance width="448"/>
  <unicode hex="0056"/>
  <outline>
    <contour>
      <point x="34" y="599" type="line" smooth="yes"/>
      <point x="30" y="612"/>
      <point x="43" y="635"/>
      <point x="56" y="639" type="qcurve" smooth="yes"/>
      <point x="69" y="642"/>
      <point x="92" y="629"/>
      <point x="95" y="616" type="qcurve" smooth="yes"/>
      <point x="121" y="524"/>
      <point x="145" y="437" type="qcurve" smooth="yes"/>
      <point x="155" y="400"/>
      <point x="177" y="321"/>
      <point x="198" y="245"/>
      <point x="217" y="175"/>
      <point x="225" y="148" type="qcurve"/>
      <point x="232" y="175"/>
      <point x="251" y="245"/>
      <point x="272" y="321"/>
      <point x="294" y="400"/>
      <point x="304" y="437" type="qcurve" smooth="yes"/>
      <point x="328" y="524"/>
      <point x="354" y="616" type="qcurve" smooth="yes"/>
      <point x="357" y="629"/>
      <point x="380" y="642"/>
      <point x="393" y="639" type="qcurve" smooth="yes"/>
      <point x="406" y="635"/>
      <point x="419" y="612"/>
      <point x="415" y="599" type="qcurve" smooth="yes"/>
      <point x="255" y="19" type="line" smooth="yes"/>
      <point x="253" y="9"/>
      <point x="236" y="-4"/>
      <point x="225" y="-4" type="qcurve" smooth="yes"/>
      <point x="214" y="-4"/>
      <point x="197" y="9"/>
      <point x="194" y="19" type="qcurve" smooth="yes"/>
    </contour>
  </outline>
</glyph>
<glyph name="W" format="1">
  <advance width="698"/>
  <unicode hex="0057"/>
  <outline>
    <contour>
      <point x="38" y="600" type="line"/>
      <point x="35" y="614"/>
      <point x="48" y="636"/>
      <point x="61" y="639" type="qcurve" smooth="yes"/>
      <point x="74" y="642"/>
      <point x="97" y="629"/>
      <point x="100" y="615" type="qcurve" smooth="yes"/>
      <point x="120" y="530"/>
      <point x="140" y="448" type="qcurve" smooth="yes"/>
      <point x="148" y="413"/>
      <point x="167" y="338"/>
      <point x="185" y="263"/>
      <point x="202" y="193"/>
      <point x="209" y="164" type="qcurve"/>
      <point x="216" y="193"/>
      <point x="232" y="263"/>
      <point x="250" y="338"/>
      <point x="268" y="413"/>
      <point x="277" y="448" type="qcurve" smooth="yes"/>
      <point x="297" y="530"/>
      <point x="318" y="615" type="qcurve" smooth="yes"/>
      <point x="320" y="626"/>
      <point x="338" y="640"/>
      <point x="349" y="640" type="qcurve" smooth="yes"/>
      <point x="373" y="640"/>
      <point x="380" y="615" type="qcurve" smooth="yes"/>
      <point x="400" y="530"/>
      <point x="420" y="448" type="qcurve" smooth="yes"/>
      <point x="428" y="413"/>
      <point x="447" y="338"/>
      <point x="465" y="263"/>
      <point x="482" y="193"/>
      <point x="489" y="164" type="qcurve"/>
      <point x="496" y="193"/>
      <point x="512" y="263"/>
      <point x="530" y="338"/>
      <point x="548" y="413"/>
      <point x="557" y="448" type="qcurve" smooth="yes"/>
      <point x="577" y="530"/>
      <point x="598" y="615" type="qcurve" smooth="yes"/>
      <point x="601" y="629"/>
      <point x="623" y="642"/>
      <point x="636" y="639" type="qcurve" smooth="yes"/>
      <point x="649" y="636"/>
      <point x="663" y="614"/>
      <point x="660" y="600" type="qcurve" smooth="yes"/>
      <point x="520" y="20" type="line" smooth="yes"/>
      <point x="517" y="9"/>
      <point x="500" y="-4"/>
      <point x="489" y="-4" type="qcurve" smooth="yes"/>
      <point x="478" y="-4"/>
      <point x="460" y="9"/>
      <point x="458" y="20" type="qcurve" smooth="yes"/>
      <point x="437" y="104"/>
      <point x="417" y="187" type="qcurve" smooth="yes"/>
      <point x="408" y="222"/>
      <point x="390" y="298"/>
      <point x="372" y="373"/>
      <point x="356" y="443"/>
      <point x="349" y="472" type="qcurve"/>
      <point x="342" y="443"/>
      <point x="325" y="373"/>
      <point x="307" y="298"/>
      <point x="288" y="222"/>
      <point x="280" y="187" type="qcurve" smooth="yes"/>
      <point x="260" y="104"/>
      <point x="240" y="20" type="qcurve" smooth="yes"/>
      <point x="237" y="9"/>
      <point x="220" y="-4"/>
      <point x="209" y="-4" type="qcurve" smooth="yes"/>
      <point x="198" y="-4"/>
      <point x="180" y="9"/>
      <point x="178" y="20" type="qcurve" smooth="yes"/>
      <point x="38" y="600" type="line"/>
    </contour>
  </outline>
</glyph>
<glyph name="X" format="1">
  <advance width="422"/>
  <unicode hex="0058"/>
  <outline>
    <contour>
      <point x="47" y="-1" type="qcurve" smooth="yes"/>
      <point x="35" y="5"/>
      <point x="26" y="30"/>
      <point x="32" y="42" type="qcurve" smooth="yes"/>
      <point x="175" y="328" type="line"/>
      <point x="42" y="594" type="line" smooth="yes"/>
      <point x="36" y="605"/>
      <point x="45" y="631"/>
      <point x="57" y="637" type="qcurve" smooth="yes"/>
      <point x="68" y="642"/>
      <point x="94" y="634"/>
      <point x="100" y="622" type="qcurve" smooth="yes"/>
      <point x="211" y="400" type="line"/>
      <point x="322" y="622" type="line" smooth="yes"/>
      <point x="328" y="634"/>
      <point x="353" y="642"/>
      <point x="365" y="637" type="qcurve" smooth="yes"/>
      <point x="377" y="631"/>
      <point x="385" y="605"/>
      <point x="380" y="594" type="qcurve" smooth="yes"/>
      <point x="247" y="328" type="line"/>
      <point x="390" y="42" type="line" smooth="yes"/>
      <point x="395" y="30"/>
      <point x="387" y="5"/>
      <point x="375" y="-1" type="qcurve" smooth="yes"/>
      <point x="363" y="-7"/>
      <point x="338" y="2"/>
      <point x="332" y="14" type="qcurve" smooth="yes"/>
      <point x="211" y="256" type="line"/>
      <point x="90" y="14" type="line" smooth="yes"/>
      <point x="84" y="2"/>
      <point x="58" y="-7"/>
    </contour>
  </outline>
</glyph>
<glyph name="Y" format="1">
  <advance width="402"/>
  <unicode hex="0059"/>
  <outline>
    <contour>
      <point x="169" y="320" type="line"/>
      <point x="32" y="594" type="line" smooth="yes"/>
      <point x="26" y="605"/>
      <point x="35" y="631"/>
      <point x="47" y="637" type="qcurve" smooth="yes"/>
      <point x="58" y="642"/>
      <point x="84" y="634"/>
      <point x="90" y="622" type="qcurve" smooth="yes"/>
      <point x="201" y="400" type="line"/>
      <point x="312" y="622" type="line" smooth="yes"/>
      <point x="318" y="634"/>
      <point x="343" y="642"/>
      <point x="355" y="637" type="qcurve" smooth="yes"/>
      <point x="367" y="631"/>
      <point x="376" y="605"/>
      <point x="370" y="594" type="qcurve" smooth="yes"/>
      <point x="233" y="320" type="line"/>
      <point x="233" y="28" type="line" smooth="yes"/>
      <point x="233" y="14"/>
      <point x="215" y="-4"/>
      <point x="201" y="-4" type="qcurve" smooth="yes"/>
      <point x="187" y="-4"/>
      <point x="169" y="14"/>
      <point x="169" y="28" type="qcurve" smooth="yes"/>
    </contour>
  </outline>
</glyph>
<glyph name="Z" format="1">
  <advance width="384"/>
  <unicode hex="005A"/>
  <outline>
    <contour>
      <point x="40" y="32" type="qcurve" smooth="yes"/>
      <point x="40" y="38"/>
      <point x="43" y="44" type="qcurve" smooth="yes"/>
      <point x="96" y="171"/>
      <point x="141" y="279" type="qcurve" smooth="yes"/>
      <point x="160" y="325"/>
      <point x="199" y="417"/>
      <point x="232" y="497"/>
      <point x="258" y="558"/>
      <point x="264" y="572" type="qcurve"/>
      <point x="72" y="572" type="line" smooth="yes"/>
      <point x="58" y="572"/>
      <point x="40" y="590"/>
      <point x="40" y="604" type="qcurve" smooth="yes"/>
      <point x="40" y="618"/>
      <point x="58" y="636"/>
      <point x="72" y="636" type="qcurve" smooth="yes"/>
      <point x="312" y="636" type="line" smooth="yes"/>
      <point x="330" y="636"/>
      <point x="339" y="622" type="qcurve" smooth="yes"/>
      <point x="344" y="612"/>
      <point x="344" y="604" type="qcurve" smooth="yes"/>
      <point x="344" y="600"/>
      <point x="342" y="592" type="qcurve" smooth="yes"/>
      <point x="288" y="464"/>
      <point x="243" y="356" type="qcurve" smooth="yes"/>
      <point x="223" y="310"/>
      <point x="185" y="217"/>
      <point x="151" y="138"/>
      <point x="126" y="78"/>
      <point x="120" y="64" type="qcurve"/>
      <point x="312" y="64" type="line" smooth="yes"/>
      <point x="326" y="64"/>
      <point x="344" y="46"/>
      <point x="344" y="32" type="qcurve" smooth="yes"/>
      <point x="344" y="18"/>
      <point x="326" y="0"/>
      <point x="312" y="0" type="qcurve" smooth="yes"/>
      <point x="72" y="0" type="line" smooth="yes"/>
      <point x="54" y="0"/>
      <point x="45" y="14" type="qcurve" smooth="yes"/>
      <point x="40" y="24"/>
    </contour>
  </outline>
</glyph>
<glyph name="bracketleft" format="1">
  <advance width="256"/>
  <unicode hex="005B"/>
  <outline>
    <contour>
      <point x="100" y="-80" type="line"/>
      <point x="86" y="-80"/>
      <point x="68" y="-62"/>
      <point x="68" y="-48" type="qcurve" smooth="yes"/>
      <point x="68" y="684" type="line" smooth="yes"/>
      <point x="68" y="698"/>
      <point x="86" y="716"/>
      <point x="100" y="716" type="qcurve" smooth="yes"/>
      <point x="200" y="716" type="line" smooth="yes"/>
      <point x="214" y="716"/>
      <point x="232" y="698"/>
      <point x="232" y="684" type="qcurve" smooth="yes"/>
      <point x="232" y="670"/>
      <point x="214" y="652"/>
      <point x="200" y="652" type="qcurve" smooth="yes"/>
      <point x="132" y="652" type="line"/>
      <point x="132" y="-16" type="line"/>
      <point x="200" y="-16" type="line" smooth="yes"/>
      <point x="214" y="-16"/>
      <point x="232" y="-34"/>
      <point x="232" y="-48" type="qcurve" smooth="yes"/>
      <point x="232" y="-62"/>
      <point x="214" y="-80"/>
      <point x="200" y="-80" type="qcurve" smooth="yes"/>
      <point x="100" y="-80" type="line"/>
    </contour>
  </outline>
</glyph>
<glyph name="backslash" format="1">
  <advance width="416"/>
  <unicode hex="005C"/>
  <outline>
    <contour>
      <point x="358" y="-1" type="line" smooth="yes"/>
      <point x="363" y="-14"/>
      <point x="352" y="-37"/>
      <point x="339" y="-42" type="qcurve" smooth="yes"/>
      <point x="327" y="-47"/>
      <point x="303" y="-36"/>
      <point x="298" y="-23" type="qcurve" smooth="yes"/>
      <point x="58" y="637" type="line" smooth="yes"/>
      <point x="53" y="650"/>
      <point x="65" y="673"/>
      <point x="77" y="678" type="qcurve" smooth="yes"/>
      <point x="90" y="683"/>
      <point x="113" y="671"/>
      <point x="118" y="659" type="qcurve" smooth="yes"/>
    </contour>
  </outline>
</glyph>
<glyph name="bracketright" format="1">
  <advance width="256"/>
  <unicode hex="005D"/>
  <outline>
    <contour>
      <point x="156" y="716" type="line"/>
      <point x="169" y="716"/>
      <point x="188" y="698"/>
      <point x="188" y="684" type="qcurve" smooth="yes"/>
      <point x="188" y="-48" type="line" smooth="yes"/>
      <point x="188" y="-62"/>
      <point x="169" y="-80"/>
      <point x="156" y="-80" type="qcurve" smooth="yes"/>
      <point x="56" y="-80" type="line" smooth="yes"/>
      <point x="42" y="-80"/>
      <point x="24" y="-62"/>
      <point x="24" y="-48" type="qcurve" smooth="yes"/>
      <point x="24" y="-34"/>
      <point x="42" y="-16"/>
      <point x="56" y="-16" type="qcurve" smooth="yes"/>
      <point x="124" y="-16" type="line"/>
      <point x="124" y="652" type="line"/>
      <point x="56" y="652" type="line" smooth="yes"/>
      <point x="42" y="652"/>
      <point x="24" y="670"/>
      <point x="24" y="684" type="qcurve" smooth="yes"/>
      <point x="24" y="698"/>
      <point x="42" y="716"/>
      <point x="56" y="716" type="qcurve" smooth="yes"/>
      <point x="156" y="716" type="line"/>
    </contour>
  </outline>
</glyph>
<glyph name="asciicircum" format="1">
  <advance width="500"/>
  <unicode hex="005E"/>
  <outline>
    <contour>
      <point x="71" y="404" type="qcurve" smooth="yes"/>
      <point x="61" y="413"/>
      <point x="60" y="439"/>
      <point x="68" y="449" type="qcurve" smooth="yes"/>
      <point x="226" y="629" type="line" smooth="yes"/>
      <point x="235" y="640"/>
      <point x="250" y="640" type="qcurve" smooth="yes"/>
      <point x="265" y="640"/>
      <point x="274" y="629" type="qcurve" smooth="yes"/>
      <point x="432" y="449" type="line" smooth="yes"/>
      <point x="440" y="439"/>
      <point x="439" y="413"/>
      <point x="429" y="404" type="qcurve" smooth="yes"/>
      <point x="418" y="395"/>
      <point x="392" y="397"/>
      <point x="383" y="407" type="qcurve" smooth="yes"/>
      <point x="356" y="439"/>
      <point x="330" y="468" type="qcurve" smooth="yes"/>
      <point x="308" y="493"/>
      <point x="263" y="544"/>
      <point x="250" y="559" type="qcurve"/>
      <point x="236" y="544"/>
      <point x="192" y="493"/>
      <point x="170" y="468" type="qcurve" smooth="yes"/>
      <point x="144" y="439"/>
      <point x="117" y="407" type="qcurve" smooth="yes"/>
      <point x="108" y="397"/>
      <point x="82" y="395"/>
    </contour>
  </outline>
</glyph>
<glyph name="underscore" format="1">
  <advance width="500"/>
  <unicode hex="005F"/>
  <outline>
    <contour>
      <point x="500" y="-80" type="line"/>
      <point x="513" y="-80"/>
      <point x="532" y="-98"/>
      <point x="532" y="-112" type="qcurve" smooth="yes"/>
      <point x="532" y="-126"/>
      <point x="513" y="-144"/>
      <point x="500" y="-144" type="qcurve" smooth="yes"/>
      <point x="0" y="-144" type="line" smooth="yes"/>
      <point x="-14" y="-144"/>
      <point x="-32" y="-126"/>
      <point x="-32" y="-112" type="qcurve" smooth="yes"/>
      <point x="-32" y="-98"/>
      <point x="-14" y="-80"/>
      <point x="0" y="-80" type="qcurve" smooth="yes"/>
      <point x="500" y="-80" type="line"/>
    </contour>
  </outline>
</glyph>
<glyph name="grave" format="1">
  <advance width="500"/>
  <unicode hex="0060"/>
  <outline>
    <contour>
      <point x="322" y="562" type="line"/>
      <point x="332" y="553"/>
      <point x="333" y="527"/>
      <point x="324" y="517" type="qcurve" smooth="yes"/>
      <point x="315" y="506"/>
      <point x="289" y="505"/>
      <point x="279" y="514" type="qcurve" smooth="yes"/>
      <point x="179" y="604" type="line" smooth="yes"/>
      <point x="169" y="613"/>
      <point x="168" y="639"/>
      <point x="176" y="649" type="qcurve" smooth="yes"/>
      <point x="185" y="659"/>
      <point x="212" y="661"/>
      <point x="222" y="652" type="qcurve" smooth="yes"/>
      <point x="322" y="562" type="line"/>
    </contour>
  </outline>
</glyph>
<glyph name="a" format="1">
  <advance width="352"/>
  <unicode hex="0061"/>
  <outline>
    <contour>
      <point x="230" y="262" type="line"/>
      <point x="230" y="330" type="line" smooth="yes"/>
      <point x="230" y="351"/>
      <point x="207" y="385"/>
      <point x="188" y="393" type="qcurve" smooth="yes"/>
      <point x="168" y="401"/>
      <point x="128" y="393"/>
      <point x="114" y="378" type="qcurve" smooth="yes"/>
      <point x="105" y="369"/>
      <point x="80" y="369"/>
      <point x="71" y="378" type="qcurve" smooth="yes"/>
      <point x="62" y="387"/>
      <point x="62" y="412"/>
      <point x="71" y="420" type="qcurve" smooth="yes"/>
      <point x="99" y="448"/>
      <point x="175" y="463"/>
      <point x="211" y="448" type="qcurve" smooth="yes"/>
      <point x="247" y="433"/>
      <point x="290" y="369"/>
      <point x="290" y="330" type="qcurve" smooth="yes"/>
      <point x="290" y="32" type="line" smooth="yes"/>
      <point x="290" y="19"/>
      <point x="272" y="2"/>
      <point x="260" y="2" type="qcurve" smooth="yes"/>
      <point x="160" y="2" type="line" smooth="yes"/>
      <point x="133" y="2"/>
      <point x="86" y="22"/>
      <point x="50" y="58"/>
      <point x="30" y="105"/>
      <point x="30" y="132" type="qcurve" smooth="yes"/>
      <point x="30" y="159"/>
      <point x="50" y="206"/>
      <point x="86" y="242"/>
      <point x="133" y="262"/>
      <point x="160" y="262" type="qcurve" smooth="yes"/>
    </contour>
    <contour>
      <point x="90" y="132" type="qcurve" smooth="yes"/>
      <point x="90" y="103"/>
      <point x="131" y="62"/>
      <point x="160" y="62" type="qcurve" smooth="yes"/>
      <point x="230" y="62" type="line"/>
      <point x="230" y="202" type="line"/>
      <point x="160" y="202" type="line" smooth="yes"/>
      <point x="131" y="202"/>
      <point x="90" y="161"/>
    </contour>
  </outline>
</glyph>
<glyph name="b" format="1">
  <advance width="388"/>
  <unicode hex="0062"/>
  <outline>
    <contour>
      <point x="100" y="2" type="line" smooth="yes"/>
      <point x="87" y="2"/>
      <point x="70" y="19"/>
      <point x="70" y="32" type="qcurve" smooth="yes"/>
      <point x="70" y="628" type="line" smooth="yes"/>
      <point x="70" y="641"/>
      <point x="87" y="658"/>
      <point x="100" y="658" type="qcurve" smooth="yes"/>
      <point x="112" y="658"/>
      <point x="130" y="641"/>
      <point x="130" y="628" type="qcurve" smooth="yes"/>
      <point x="130" y="454" type="line"/>
      <point x="200" y="454" type="line" smooth="yes"/>
      <point x="227" y="454"/>
      <point x="274" y="434"/>
      <point x="309" y="398"/>
      <point x="330" y="351"/>
      <point x="330" y="324" type="qcurve" smooth="yes"/>
      <point x="330" y="132" type="line" smooth="yes"/>
      <point x="330" y="105"/>
      <point x="309" y="58"/>
      <point x="274" y="22"/>
      <point x="227" y="2"/>
      <point x="200" y="2" type="qcurve" smooth="yes"/>
    </contour>
    <contour>
      <point x="130" y="394" type="line"/>
      <point x="130" y="62" type="line"/>
      <point x="200" y="62" type="line" smooth="yes"/>
      <point x="229" y="62"/>
      <point x="270" y="103"/>
      <point x="270" y="132" type="qcurve" smooth="yes"/>
      <point x="270" y="324" type="line" smooth="yes"/>
      <point x="270" y="353"/>
      <point x="229" y="394"/>
      <point x="200" y="394" type="qcurve" smooth="yes"/>
    </contour>
  </outline>
</glyph>
<glyph name="c" format="1">
  <advance width="328"/>
  <unicode hex="0063"/>
  <outline>
    <contour>
      <point x="138" y="8" type="qcurve" smooth="yes"/>
      <point x="101" y="23"/>
      <point x="58" y="88"/>
      <point x="58" y="128" type="qcurve" smooth="yes"/>
      <point x="58" y="328" type="line" smooth="yes"/>
      <point x="58" y="368"/>
      <point x="101" y="433"/>
      <point x="138" y="448" type="qcurve" smooth="yes"/>
      <point x="175" y="463"/>
      <point x="251" y="448"/>
      <point x="280" y="420" type="qcurve" smooth="yes"/>
      <point x="288" y="411"/>
      <point x="288" y="386"/>
      <point x="280" y="377" type="qcurve" smooth="yes"/>
      <point x="271" y="369"/>
      <point x="246" y="369"/>
      <point x="237" y="377" type="qcurve" smooth="yes"/>
      <point x="222" y="393"/>
      <point x="181" y="401"/>
      <point x="161" y="393" type="qcurve" smooth="yes"/>
      <point x="141" y="385"/>
      <point x="118" y="349"/>
      <point x="118" y="328" type="qcurve" smooth="yes"/>
      <point x="118" y="128" type="line" smooth="yes"/>
      <point x="118" y="107"/>
      <point x="141" y="71"/>
      <point x="161" y="63" type="qcurve" smooth="yes"/>
      <point x="181" y="55"/>
      <point x="222" y="63"/>
      <point x="237" y="78" type="qcurve" smooth="yes"/>
      <point x="246" y="87"/>
      <point x="271" y="87"/>
      <point x="280" y="78" type="qcurve" smooth="yes"/>
      <point x="288" y="70"/>
      <point x="288" y="45"/>
      <point x="280" y="36" type="qcurve" smooth="yes"/>
      <point x="251" y="8"/>
      <point x="175" y="-7"/>
    </contour>
  </outline>
</glyph>
<glyph name="d" format="1">
  <advance width="388"/>
  <unicode hex="0064"/>
  <outline>
    <contour>
      <point x="188" y="2" type="line" smooth="yes"/>
      <point x="161" y="2"/>
      <point x="114" y="22"/>
      <point x="78" y="58"/>
      <point x="58" y="105"/>
      <point x="58" y="132" type="qcurve" smooth="yes"/>
      <point x="58" y="324" type="line" smooth="yes"/>
      <point x="58" y="351"/>
      <point x="78" y="398"/>
      <point x="114" y="434"/>
      <point x="161" y="454"/>
      <point x="188" y="454" type="qcurve" smooth="yes"/>
      <point x="258" y="454" type="line"/>
      <point x="258" y="628" type="line" smooth="yes"/>
      <point x="258" y="641"/>
      <point x="275" y="658"/>
      <point x="288" y="658" type="qcurve" smooth="yes"/>
      <point x="300" y="658"/>
      <point x="318" y="641"/>
      <point x="318" y="628" type="qcurve" smooth="yes"/>
      <point x="318" y="32" type="line" smooth="yes"/>
      <point x="318" y="19"/>
      <point x="300" y="2"/>
      <point x="288" y="2" type="qcurve" smooth="yes"/>
    </contour>
    <contour>
      <point x="188" y="394" type="line" smooth="yes"/>
      <point x="159" y="394"/>
      <point x="118" y="353"/>
      <point x="118" y="324" type="qcurve" smooth="yes"/>
      <point x="118" y="132" type="line" smooth="yes"/>
      <point x="118" y="103"/>
      <point x="159" y="62"/>
      <point x="188" y="62" type="qcurve" smooth="yes"/>
      <point x="258" y="62" type="line"/>
      <point x="258" y="394" type="line"/>
    </contour>
  </outline>
</glyph>
<glyph name="e" format="1">
  <advance width="368"/>
  <unicode hex="0065"/>
  <outline>
    <contour>
      <point x="138" y="8" type="qcurve" smooth="yes"/>
      <point x="101" y="23"/>
      <point x="58" y="88"/>
      <point x="58" y="128" type="qcurve" smooth="yes"/>
      <point x="58" y="328" type="line" smooth="yes"/>
      <point x="58" y="355"/>
      <point x="78" y="402"/>
      <point x="114" y="438"/>
      <point x="161" y="458"/>
      <point x="188" y="458" type="qcurve" smooth="yes"/>
      <point x="215" y="458"/>
      <point x="262" y="438"/>
      <point x="298" y="402"/>
      <point x="318" y="355"/>
      <point x="318" y="328" type="qcurve" smooth="yes"/>
      <point x="318" y="228" type="line" smooth="yes"/>
      <point x="318" y="215"/>
      <point x="301" y="198"/>
      <point x="288" y="198" type="qcurve" smooth="yes"/>
      <point x="118" y="198" type="line"/>
      <point x="118" y="128" type="line" smooth="yes"/>
      <point x="118" y="107"/>
      <point x="141" y="71"/>
      <point x="161" y="63" type="qcurve" smooth="yes"/>
      <point x="181" y="55"/>
      <point x="222" y="63"/>
      <point x="237" y="78" type="qcurve" smooth="yes"/>
      <point x="246" y="87"/>
      <point x="271" y="87"/>
      <point x="280" y="78" type="qcurve" smooth="yes"/>
      <point x="289" y="70"/>
      <point x="289" y="45"/>
      <point x="280" y="36" type="qcurve" smooth="yes"/>
      <point x="252" y="8"/>
      <point x="175" y="-7"/>
    </contour>
    <contour>
      <point x="188" y="398" type="qcurve" smooth="yes"/>
      <point x="159" y="398"/>
      <point x="118" y="357"/>
      <point x="118" y="328" type="qcurve" smooth="yes"/>
      <point x="118" y="258" type="line"/>
      <point x="258" y="258" type="line"/>
      <point x="258" y="328" type="line" smooth="yes"/>
      <point x="258" y="357"/>
      <point x="217" y="398"/>
    </contour>
  </outline>
</glyph>
<glyph name="f" format="1">
  <advance width="296"/>
  <unicode hex="0066"/>
  <outline>
    <contour>
      <point x="56" y="394" type="line"/>
      <point x="43" y="394"/>
      <point x="26" y="411"/>
      <point x="26" y="424" type="qcurve" smooth="yes"/>
      <point x="26" y="437"/>
      <point x="43" y="454"/>
      <point x="56" y="454" type="qcurve" smooth="yes"/>
      <point x="106" y="454" type="line"/>
      <point x="106" y="528" type="line" smooth="yes"/>
      <point x="106" y="555"/>
      <point x="126" y="602"/>
      <point x="162" y="638"/>
      <point x="209" y="658"/>
      <point x="236" y="658" type="qcurve" smooth="yes"/>
      <point x="249" y="658"/>
      <point x="266" y="641"/>
      <point x="266" y="628" type="qcurve" smooth="yes"/>
      <point x="266" y="615"/>
      <point x="249" y="598"/>
      <point x="236" y="598" type="qcurve" smooth="yes"/>
      <point x="207" y="598"/>
      <point x="166" y="557"/>
      <point x="166" y="528" type="qcurve" smooth="yes"/>
      <point x="166" y="454" type="line"/>
      <point x="236" y="454" type="line" smooth="yes"/>
      <point x="249" y="454"/>
      <point x="266" y="437"/>
      <point x="266" y="424" type="qcurve" smooth="yes"/>
      <point x="266" y="411"/>
      <point x="249" y="394"/>
      <point x="236" y="394" type="qcurve" smooth="yes"/>
      <point x="166" y="394" type="line"/>
      <point x="166" y="28" type="line" smooth="yes"/>
      <point x="166" y="15"/>
      <point x="149" y="-2"/>
      <point x="136" y="-2" type="qcurve" smooth="yes"/>
      <point x="123" y="-2"/>
      <point x="106" y="15"/>
      <point x="106" y="28" type="qcurve" smooth="yes"/>
      <point x="106" y="394" type="line"/>
      <point x="56" y="394" type="line"/>
    </contour>
  </outline>
</glyph>
<glyph name="g" format="1">
  <advance width="384"/>
  <unicode hex="0067"/>
  <outline>
    <contour>
      <point x="188" y="2" type="line" smooth="yes"/>
      <point x="161" y="2"/>
      <point x="114" y="22"/>
      <point x="78" y="58"/>
      <point x="58" y="105"/>
      <point x="58" y="132" type="qcurve" smooth="yes"/>
      <point x="58" y="324" type="line" smooth="yes"/>
      <point x="58" y="351"/>
      <point x="78" y="398"/>
      <point x="114" y="434"/>
      <point x="161" y="454"/>
      <point x="188" y="454" type="qcurve" smooth="yes"/>
      <point x="288" y="454" type="line" smooth="yes"/>
      <point x="301" y="454"/>
      <point x="318" y="437"/>
      <point x="318" y="424" type="qcurve" smooth="yes"/>
      <point x="318" y="-72" type="line" smooth="yes"/>
      <point x="318" y="-112"/>
      <point x="275" y="-177"/>
      <point x="238" y="-192" type="qcurve" smooth="yes"/>
      <point x="201" y="-207"/>
      <point x="125" y="-192"/>
      <point x="96" y="-164" type="qcurve" smooth="yes"/>
      <point x="87" y="-155"/>
      <point x="87" y="-130"/>
      <point x="96" y="-122" type="qcurve" smooth="yes"/>
      <point x="105" y="-113"/>
      <point x="130" y="-113"/>
      <point x="139" y="-122" type="qcurve" smooth="yes"/>
      <point x="154" y="-137"/>
      <point x="195" y="-145"/>
      <point x="215" y="-137" type="qcurve" smooth="yes"/>
      <point x="235" y="-129"/>
      <point x="258" y="-93"/>
      <point x="258" y="-72" type="qcurve" smooth="yes"/>
      <point x="258" y="2" type="line"/>
    </contour>
    <contour>
      <point x="188" y="394" type="line" smooth="yes"/>
      <point x="159" y="394"/>
      <point x="118" y="353"/>
      <point x="118" y="324" type="qcurve" smooth="yes"/>
      <point x="118" y="132" type="line" smooth="yes"/>
      <point x="118" y="103"/>
      <point x="159" y="62"/>
      <point x="188" y="62" type="qcurve" smooth="yes"/>
      <point x="258" y="62" type="line"/>
      <point x="258" y="394" type="line"/>
    </contour>
  </outline>
</glyph>
<glyph name="h" format="1">
  <advance width="392"/>
  <unicode hex="0068"/>
  <outline>
    <contour>
      <point x="100" y="-2" type="qcurve" smooth="yes"/>
      <point x="88" y="-2"/>
      <point x="70" y="15"/>
      <point x="70" y="28" type="qcurve" smooth="yes"/>
      <point x="70" y="628" type="line" smooth="yes"/>
      <point x="70" y="641"/>
      <point x="88" y="658"/>
      <point x="100" y="658" type="qcurve" smooth="yes"/>
      <point x="113" y="658"/>
      <point x="130" y="641"/>
      <point x="130" y="628" type="qcurve" smooth="yes"/>
      <point x="130" y="454" type="line"/>
      <point x="200" y="454" type="line" smooth="yes"/>
      <point x="227" y="454"/>
      <point x="274" y="434"/>
      <point x="310" y="398"/>
      <point x="330" y="351"/>
      <point x="330" y="324" type="qcurve" smooth="yes"/>
      <point x="330" y="28" type="line" smooth="yes"/>
      <point x="330" y="15"/>
      <point x="313" y="-2"/>
      <point x="300" y="-2" type="qcurve" smooth="yes"/>
      <point x="288" y="-2"/>
      <point x="270" y="15"/>
      <point x="270" y="28" type="qcurve" smooth="yes"/>
      <point x="270" y="324" type="line" smooth="yes"/>
      <point x="270" y="353"/>
      <point x="229" y="394"/>
      <point x="200" y="394" type="qcurve" smooth="yes"/>
      <point x="130" y="394" type="line"/>
      <point x="130" y="28" type="line" smooth="yes"/>
      <point x="130" y="15"/>
      <point x="113" y="-2"/>
    </contour>
  </outline>
</glyph>
<glyph name="i" format="1">
  <advance width="200"/>
  <unicode hex="0069"/>
  <outline>
    <contour>
      <point x="100" y="538" type="qcurve" smooth="yes"/>
      <point x="83" y="538"/>
      <point x="60" y="561"/>
      <point x="60" y="578" type="qcurve" smooth="yes"/>
      <point x="60" y="595"/>
      <point x="83" y="618"/>
      <point x="100" y="618" type="qcurve" smooth="yes"/>
      <point x="117" y="618"/>
      <point x="140" y="595"/>
      <point x="140" y="578" type="qcurve" smooth="yes"/>
      <point x="140" y="561"/>
      <point x="117" y="538"/>
    </contour>
    <contour>
      <point x="130" y="28" type="line" smooth="yes"/>
      <point x="130" y="15"/>
      <point x="113" y="-2"/>
      <point x="100" y="-2" type="qcurve" smooth="yes"/>
      <point x="88" y="-2"/>
      <point x="70" y="15"/>
      <point x="70" y="28" type="qcurve" smooth="yes"/>
      <point x="70" y="428" type="line" smooth="yes"/>
      <point x="70" y="441"/>
      <point x="88" y="458"/>
      <point x="100" y="458" type="qcurve" smooth="yes"/>
      <point x="113" y="458"/>
      <point x="130" y="441"/>
      <point x="130" y="428" type="qcurve" smooth="yes"/>
    </contour>
  </outline>
</glyph>
<glyph name="j" format="1">
  <advance width="208"/>
  <unicode hex="006A"/>
  <outline>
    <contour>
      <point x="108" y="538" type="qcurve" smooth="yes"/>
      <point x="91" y="538"/>
      <point x="68" y="561"/>
      <point x="68" y="578" type="qcurve" smooth="yes"/>
      <point x="68" y="595"/>
      <point x="91" y="618"/>
      <point x="108" y="618" type="qcurve" smooth="yes"/>
      <point x="125" y="618"/>
      <point x="148" y="595"/>
      <point x="148" y="578" type="qcurve" smooth="yes"/>
      <point x="148" y="561"/>
      <point x="125" y="538"/>
    </contour>
    <contour>
      <point x="8" y="-202" type="qcurve" smooth="yes"/>
      <point x="-4" y="-202"/>
      <point x="-22" y="-185"/>
      <point x="-22" y="-172" type="qcurve" smooth="yes"/>
      <point x="-22" y="-159"/>
      <point x="-4" y="-142"/>
      <point x="8" y="-142" type="qcurve" smooth="yes"/>
      <point x="37" y="-142"/>
      <point x="78" y="-101"/>
      <point x="78" y="-72" type="qcurve" smooth="yes"/>
      <point x="78" y="428" type="line" smooth="yes"/>
      <point x="78" y="441"/>
      <point x="96" y="458"/>
      <point x="108" y="458" type="qcurve" smooth="yes"/>
      <point x="121" y="458"/>
      <point x="138" y="441"/>
      <point x="138" y="428" type="qcurve" smooth="yes"/>
      <point x="138" y="-72" type="line" smooth="yes"/>
      <point x="138" y="-99"/>
      <point x="118" y="-146"/>
      <point x="82" y="-182"/>
      <point x="35" y="-202"/>
    </contour>
  </outline>
</glyph>
<glyph name="k" format="1">
  <advance width="380"/>
  <unicode hex="006B"/>
  <outline>
    <contour>
      <point x="346" y="42" type="line" smooth="yes"/>
      <point x="352" y="31"/>
      <point x="345" y="8"/>
      <point x="334" y="2" type="qcurve" smooth="yes"/>
      <point x="323" y="-4"/>
      <point x="299" y="2"/>
      <point x="293" y="13" type="qcurve" smooth="yes"/>
      <point x="178" y="224" type="line"/>
      <point x="130" y="171" type="line"/>
      <point x="130" y="28" type="line" smooth="yes"/>
      <point x="130" y="15"/>
      <point x="112" y="-2"/>
      <point x="100" y="-2" type="qcurve" smooth="yes"/>
      <point x="87" y="-2"/>
      <point x="70" y="15"/>
      <point x="70" y="28" type="qcurve" smooth="yes"/>
      <point x="70" y="628" type="line" smooth="yes"/>
      <point x="70" y="641"/>
      <point x="87" y="658"/>
      <point x="100" y="658" type="qcurve" smooth="yes"/>
      <point x="112" y="658"/>
      <point x="130" y="641"/>
      <point x="130" y="628" type="qcurve" smooth="yes"/>
      <point x="130" y="261" type="line"/>
      <point x="297" y="448" type="line" smooth="yes"/>
      <point x="305" y="457"/>
      <point x="330" y="458"/>
      <point x="340" y="450" type="qcurve" smooth="yes"/>
      <point x="349" y="442"/>
      <point x="350" y="417"/>
      <point x="342" y="408" type="qcurve" smooth="yes"/>
      <point x="220" y="272" type="line"/>
    </contour>
  </outline>
</glyph>
<glyph name="l" format="1">
  <advance width="200"/>
  <unicode hex="006C"/>
  <outline>
    <contour>
      <point x="122" y="2" type="qcurve" smooth="yes"/>
      <point x="97" y="17"/>
      <point x="67" y="68"/>
      <point x="67" y="97" type="qcurve" smooth="yes"/>
      <point x="67" y="628" type="line" smooth="yes"/>
      <point x="67" y="641"/>
      <point x="85" y="658"/>
      <point x="97" y="658" type="qcurve" smooth="yes"/>
      <point x="110" y="658"/>
      <point x="127" y="641"/>
      <point x="127" y="628" type="qcurve" smooth="yes"/>
      <point x="127" y="97" type="line" smooth="yes"/>
      <point x="127" y="83"/>
      <point x="141" y="61"/>
      <point x="152" y="54" type="qcurve" smooth="yes"/>
      <point x="163" y="48"/>
      <point x="170" y="24"/>
      <point x="163" y="13" type="qcurve" smooth="yes"/>
      <point x="157" y="2"/>
      <point x="133" y="-4"/>
    </contour>
  </outline>
</glyph>
<glyph name="m" format="1">
  <advance width="592"/>
  <unicode hex="006D"/>
  <outline>
    <contour>
      <point x="130" y="394" type="line"/>
      <point x="130" y="28" type="line" smooth="yes"/>
      <point x="130" y="15"/>
      <point x="112" y="-2"/>
      <point x="100" y="-2" type="qcurve" smooth="yes"/>
      <point x="87" y="-2"/>
      <point x="70" y="15"/>
      <point x="70" y="28" type="qcurve" smooth="yes"/>
      <point x="70" y="424" type="line" smooth="yes"/>
      <point x="70" y="437"/>
      <point x="87" y="454"/>
      <point x="100" y="454" type="qcurve" smooth="yes"/>
      <point x="400" y="454" type="line" smooth="yes"/>
      <point x="427" y="454"/>
      <point x="474" y="434"/>
      <point x="509" y="398"/>
      <point x="530" y="351"/>
      <point x="530" y="324" type="qcurve" smooth="yes"/>
      <point x="530" y="28" type="line" smooth="yes"/>
      <point x="530" y="15"/>
      <point x="512" y="-2"/>
      <point x="500" y="-2" type="qcurve" smooth="yes"/>
      <point x="487" y="-2"/>
      <point x="470" y="15"/>
      <point x="470" y="28" type="qcurve" smooth="yes"/>
      <point x="470" y="324" type="line" smooth="yes"/>
      <point x="470" y="353"/>
      <point x="429" y="394"/>
      <point x="400" y="394" type="qcurve" smooth="yes"/>
      <point x="330" y="394" type="line"/>
      <point x="330" y="28" type="line" smooth="yes"/>
      <point x="330" y="15"/>
      <point x="312" y="-2"/>
      <point x="300" y="-2" type="qcurve" smooth="yes"/>
      <point x="287" y="-2"/>
      <point x="270" y="15"/>
      <point x="270" y="28" type="qcurve" smooth="yes"/>
      <point x="270" y="394" type="line"/>
    </contour>
  </outline>
</glyph>
<glyph name="n" format="1">
  <advance width="392"/>
  <unicode hex="006E"/>
  <outline>
    <contour>
      <point x="100" y="-2" type="qcurve" smooth="yes"/>
      <point x="87" y="-2"/>
      <point x="70" y="15"/>
      <point x="70" y="28" type="qcurve" smooth="yes"/>
      <point x="70" y="424" type="line" smooth="yes"/>
      <point x="70" y="437"/>
      <point x="87" y="454"/>
      <point x="100" y="454" type="qcurve" smooth="yes"/>
      <point x="200" y="454" type="line" smooth="yes"/>
      <point x="227" y="454"/>
      <point x="274" y="434"/>
      <point x="309" y="398"/>
      <point x="330" y="351"/>
      <point x="330" y="324" type="qcurve" smooth="yes"/>
      <point x="330" y="28" type="line" smooth="yes"/>
      <point x="330" y="15"/>
      <point x="312" y="-2"/>
      <point x="300" y="-2" type="qcurve" smooth="yes"/>
      <point x="287" y="-2"/>
      <point x="270" y="15"/>
      <point x="270" y="28" type="qcurve" smooth="yes"/>
      <point x="270" y="324" type="line" smooth="yes"/>
      <point x="270" y="353"/>
      <point x="229" y="394"/>
      <point x="200" y="394" type="qcurve" smooth="yes"/>
      <point x="130" y="394" type="line"/>
      <point x="130" y="28" type="line" smooth="yes"/>
      <point x="130" y="15"/>
      <point x="112" y="-2"/>
    </contour>
  </outline>
</glyph>
<glyph name="o" format="1">
  <advance width="376"/>
  <unicode hex="006F"/>
  <outline>
    <contour>
      <point x="188" y="-2" type="qcurve" smooth="yes"/>
      <point x="161" y="-2"/>
      <point x="114" y="18"/>
      <point x="78" y="54"/>
      <point x="58" y="101"/>
      <point x="58" y="128" type="qcurve" smooth="yes"/>
      <point x="58" y="328" type="line" smooth="yes"/>
      <point x="58" y="355"/>
      <point x="78" y="402"/>
      <point x="114" y="438"/>
      <point x="161" y="458"/>
      <point x="188" y="458" type="qcurve" smooth="yes"/>
      <point x="215" y="458"/>
      <point x="262" y="438"/>
      <point x="297" y="402"/>
      <point x="318" y="355"/>
      <point x="318" y="328" type="qcurve" smooth="yes"/>
      <point x="318" y="128" type="line" smooth="yes"/>
      <point x="318" y="101"/>
      <point x="297" y="54"/>
      <point x="262" y="18"/>
      <point x="215" y="-2"/>
    </contour>
    <contour>
      <point x="188" y="398" type="qcurve" smooth="yes"/>
      <point x="159" y="398"/>
      <point x="118" y="357"/>
      <point x="118" y="328" type="qcurve" smooth="yes"/>
      <point x="118" y="128" type="line" smooth="yes"/>
      <point x="118" y="99"/>
      <point x="159" y="58"/>
      <point x="188" y="58" type="qcurve" smooth="yes"/>
      <point x="217" y="58"/>
      <point x="258" y="99"/>
      <point x="258" y="128" type="qcurve" smooth="yes"/>
      <point x="258" y="328" type="line" smooth="yes"/>
      <point x="258" y="357"/>
      <point x="217" y="398"/>
    </contour>
  </outline>
</glyph>
<glyph name="p" format="1">
  <advance width="388"/>
  <unicode hex="0070"/>
  <outline>
    <contour>
      <point x="100" y="-202" type="qcurve" smooth="yes"/>
      <point x="87" y="-202"/>
      <point x="70" y="-185"/>
      <point x="70" y="-172" type="qcurve" smooth="yes"/>
      <point x="70" y="424" type="line" smooth="yes"/>
      <point x="70" y="437"/>
      <point x="87" y="454"/>
      <point x="100" y="454" type="qcurve" smooth="yes"/>
      <point x="200" y="454" type="line" smooth="yes"/>
      <point x="227" y="454"/>
      <point x="274" y="434"/>
      <point x="309" y="398"/>
      <point x="330" y="351"/>
      <point x="330" y="324" type="qcurve" smooth="yes"/>
      <point x="330" y="132" type="line" smooth="yes"/>
      <point x="330" y="105"/>
      <point x="309" y="58"/>
      <point x="274" y="22"/>
      <point x="227" y="2"/>
      <point x="200" y="2" type="qcurve" smooth="yes"/>
      <point x="130" y="2" type="line"/>
      <point x="130" y="-172" type="line" smooth="yes"/>
      <point x="130" y="-185"/>
      <point x="112" y="-202"/>
    </contour>
    <contour>
      <point x="270" y="324" type="line" smooth="yes"/>
      <point x="270" y="353"/>
      <point x="229" y="394"/>
      <point x="200" y="394" type="qcurve" smooth="yes"/>
      <point x="130" y="394" type="line"/>
      <point x="130" y="62" type="line"/>
      <point x="200" y="62" type="line" smooth="yes"/>
      <point x="229" y="62"/>
      <point x="270" y="103"/>
      <point x="270" y="132" type="qcurve" smooth="yes"/>
    </contour>
  </outline>
</glyph>
<glyph name="q" format="1">
  <advance width="388"/>
  <unicode hex="0071"/>
  <outline>
    <contour>
      <point x="188" y="2" type="line" smooth="yes"/>
      <point x="161" y="2"/>
      <point x="114" y="22"/>
      <point x="78" y="58"/>
      <point x="58" y="105"/>
      <point x="58" y="132" type="qcurve" smooth="yes"/>
      <point x="58" y="324" type="line" smooth="yes"/>
      <point x="58" y="351"/>
      <point x="78" y="398"/>
      <point x="114" y="434"/>
      <point x="161" y="454"/>
      <point x="188" y="454" type="qcurve" smooth="yes"/>
      <point x="288" y="454" type="line" smooth="yes"/>
      <point x="300" y="454"/>
      <point x="318" y="437"/>
      <point x="318" y="424" type="qcurve" smooth="yes"/>
      <point x="318" y="-172" type="line" smooth="yes"/>
      <point x="318" y="-185"/>
      <point x="300" y="-202"/>
      <point x="288" y="-202" type="qcurve" smooth="yes"/>
      <point x="275" y="-202"/>
      <point x="258" y="-185"/>
      <point x="258" y="-172" type="qcurve" smooth="yes"/>
      <point x="258" y="2" type="line"/>
    </contour>
    <contour>
      <point x="188" y="394" type="line" smooth="yes"/>
      <point x="159" y="394"/>
      <point x="118" y="353"/>
      <point x="118" y="324" type="qcurve" smooth="yes"/>
      <point x="118" y="132" type="line" smooth="yes"/>
      <point x="118" y="103"/>
      <point x="159" y="62"/>
      <point x="188" y="62" type="qcurve" smooth="yes"/>
      <point x="258" y="62" type="line"/>
      <point x="258" y="394" type="line"/>
    </contour>
  </outline>
</glyph>
<glyph name="r" format="1">
  <advance width="299"/>
  <unicode hex="0072"/>
  <outline>
    <contour>
      <point x="100" y="-2" type="qcurve" smooth="yes"/>
      <point x="87" y="-2"/>
      <point x="70" y="15"/>
      <point x="70" y="28" type="qcurve" smooth="yes"/>
      <point x="70" y="424" type="line" smooth="yes"/>
      <point x="70" y="437"/>
      <point x="87" y="454"/>
      <point x="100" y="454" type="qcurve" smooth="yes"/>
      <point x="200" y="454" type="line" smooth="yes"/>
      <point x="234" y="454"/>
      <point x="265" y="437" type="qcurve" smooth="yes"/>
      <point x="276" y="430"/>
      <point x="282" y="407"/>
      <point x="276" y="396" type="qcurve" smooth="yes"/>
      <point x="270" y="385"/>
      <point x="246" y="378"/>
      <point x="235" y="385" type="qcurve" smooth="yes"/>
      <point x="218" y="394"/>
      <point x="200" y="394" type="qcurve" smooth="yes"/>
      <point x="130" y="394" type="line"/>
      <point x="130" y="28" type="line" smooth="yes"/>
      <point x="130" y="15"/>
      <point x="113" y="-2"/>
    </contour>
  </outline>
</glyph>
<glyph name="s" format="1">
  <advance width="329"/>
  <unicode hex="0073"/>
  <outline>
    <contour>
      <point x="202" y="75" type="qcurve" smooth="yes"/>
      <point x="225" y="96"/>
      <point x="222" y="126" type="qcurve" smooth="yes"/>
      <point x="220" y="156"/>
      <point x="195" y="174" type="qcurve" smooth="yes"/>
      <point x="102" y="240" type="line" smooth="yes"/>
      <point x="79" y="256"/>
      <point x="53" y="303"/>
      <point x="51" y="330" type="qcurve" smooth="yes"/>
      <point x="49" y="358"/>
      <point x="70" y="408"/>
      <point x="90" y="426" type="qcurve" smooth="yes"/>
      <point x="110" y="445"/>
      <point x="162" y="461"/>
      <point x="189" y="457" type="qcurve" smooth="yes"/>
      <point x="216" y="452"/>
      <point x="261" y="422"/>
      <point x="275" y="398" type="qcurve" smooth="yes"/>
      <point x="281" y="387"/>
      <point x="275" y="363"/>
      <point x="264" y="357" type="qcurve" smooth="yes"/>
      <point x="253" y="351"/>
      <point x="229" y="357"/>
      <point x="223" y="368" type="qcurve" smooth="yes"/>
      <point x="209" y="392"/>
      <point x="180" y="397" type="qcurve" smooth="yes"/>
      <point x="151" y="402"/>
      <point x="130" y="382" type="qcurve" smooth="yes"/>
      <point x="109" y="363"/>
      <point x="111" y="334" type="qcurve" smooth="yes"/>
      <point x="113" y="305"/>
      <point x="137" y="289" type="qcurve" smooth="yes"/>
      <point x="230" y="224" type="line" smooth="yes"/>
      <point x="253" y="207"/>
      <point x="280" y="159"/>
      <point x="282" y="130" type="qcurve" smooth="yes"/>
      <point x="284" y="101"/>
      <point x="263" y="50"/>
      <point x="242" y="31" type="qcurve" smooth="yes"/>
      <point x="221" y="11"/>
      <point x="168" y="-5"/>
      <point x="140" y="-1" type="qcurve" smooth="yes"/>
      <point x="111" y="4"/>
      <point x="65" y="35"/>
      <point x="51" y="60" type="qcurve" smooth="yes"/>
      <point x="45" y="71"/>
      <point x="51" y="95"/>
      <point x="62" y="101" type="qcurve" smooth="yes"/>
      <point x="73" y="107"/>
      <point x="97" y="101"/>
      <point x="103" y="90" type="qcurve" smooth="yes"/>
      <point x="119" y="64"/>
      <point x="149" y="59" type="qcurve" smooth="yes"/>
      <point x="178" y="54"/>
    </contour>
  </outline>
</glyph>
<glyph name="u" format="1">
  <advance width="392"/>
  <unicode hex="0075"/>
  <outline>
    <contour>
      <point x="192" y="2" type="line"/>
      <point x="165" y="2"/>
      <point x="118" y="22"/>
      <point x="82" y="58"/>
      <point x="62" y="105"/>
      <point x="62" y="132" type="qcurve" smooth="yes"/>
      <point x="62" y="428" type="line" smooth="yes"/>
      <point x="62" y="441"/>
      <point x="79" y="458"/>
      <point x="92" y="458" type="qcurve" smooth="yes"/>
      <point x="105" y="458"/>
      <point x="122" y="441"/>
      <point x="122" y="428" type="qcurve" smooth="yes"/>
      <point x="122" y="132" type="line" smooth="yes"/>
      <point x="122" y="103"/>
      <point x="163" y="62"/>
      <point x="192" y="62" type="qcurve" smooth="yes"/>
      <point x="262" y="62" type="line"/>
      <point x="262" y="428" type="line" smooth="yes"/>
      <point x="262" y="441"/>
      <point x="279" y="458"/>
      <point x="292" y="458" type="qcurve" smooth="yes"/>
      <point x="305" y="458"/>
      <point x="322" y="441"/>
      <point x="322" y="428" type="qcurve" smooth="yes"/>
      <point x="322" y="32" type="line" smooth="yes"/>
      <point x="322" y="19"/>
      <point x="305" y="2"/>
      <point x="292" y="2" type="qcurve" smooth="yes"/>
      <point x="192" y="2" type="line"/>
    </contour>
  </outline>
</glyph>
<glyph name="v" format="1">
  <advance width="370"/>
  <unicode hex="0076"/>
  <outline>
    <contour>
      <point x="36" y="419" type="line" smooth="yes"/>
      <point x="33" y="431"/>
      <point x="45" y="453"/>
      <point x="57" y="457" type="qcurve" smooth="yes"/>
      <point x="68" y="460"/>
      <point x="90" y="448"/>
      <point x="94" y="437" type="qcurve" smooth="yes"/>
      <point x="110" y="381"/>
      <point x="127" y="326" type="qcurve" smooth="yes"/>
      <point x="141" y="279"/>
      <point x="172" y="174"/>
      <point x="185" y="132" type="qcurve"/>
      <point x="197" y="174"/>
      <point x="229" y="279"/>
      <point x="243" y="326" type="qcurve" smooth="yes"/>
      <point x="260" y="381"/>
      <point x="276" y="437" type="qcurve" smooth="yes"/>
      <point x="280" y="448"/>
      <point x="302" y="460"/>
      <point x="314" y="457" type="qcurve" smooth="yes"/>
      <point x="326" y="453"/>
      <point x="338" y="431"/>
      <point x="334" y="419" type="qcurve" smooth="yes"/>
      <point x="214" y="19" type="line" smooth="yes"/>
      <point x="211" y="10"/>
      <point x="195" y="-2"/>
      <point x="185" y="-2" type="qcurve" smooth="yes"/>
      <point x="175" y="-2"/>
      <point x="159" y="10"/>
      <point x="156" y="19" type="qcurve" smooth="yes"/>
    </contour>
  </outline>
</glyph>
<glyph name="w" format="1">
  <advance width="538"/>
  <unicode hex="0077"/>
  <outline>
    <contour>
      <point x="39" y="421" type="line" smooth="yes"/>
      <point x="36" y="433"/>
      <point x="49" y="454"/>
      <point x="61" y="457" type="qcurve" smooth="yes"/>
      <point x="73" y="460"/>
      <point x="94" y="447"/>
      <point x="97" y="435" type="qcurve" smooth="yes"/>
      <point x="110" y="386"/>
      <point x="122" y="337" type="qcurve" smooth="yes"/>
      <point x="133" y="295"/>
      <point x="157" y="196"/>
      <point x="168" y="152" type="qcurve"/>
      <point x="179" y="196"/>
      <point x="204" y="295"/>
      <point x="215" y="337" type="qcurve" smooth="yes"/>
      <point x="227" y="386"/>
      <point x="239" y="435" type="qcurve" smooth="yes"/>
      <point x="246" y="458"/>
      <point x="268" y="458" type="qcurve" smooth="yes"/>
      <point x="279" y="458"/>
      <point x="295" y="446"/>
      <point x="297" y="435" type="qcurve" smooth="yes"/>
      <point x="310" y="386"/>
      <point x="322" y="337" type="qcurve" smooth="yes"/>
      <point x="333" y="295"/>
      <point x="357" y="196"/>
      <point x="368" y="152" type="qcurve"/>
      <point x="379" y="196"/>
      <point x="404" y="295"/>
      <point x="415" y="337" type="qcurve" smooth="yes"/>
      <point x="427" y="386"/>
      <point x="439" y="435" type="qcurve" smooth="yes"/>
      <point x="442" y="447"/>
      <point x="463" y="460"/>
      <point x="476" y="457" type="qcurve" smooth="yes"/>
      <point x="488" y="454"/>
      <point x="500" y="433"/>
      <point x="497" y="421" type="qcurve" smooth="yes"/>
      <point x="397" y="21" type="line" smooth="yes"/>
      <point x="395" y="10"/>
      <point x="379" y="-2"/>
      <point x="368" y="-2" type="qcurve" smooth="yes"/>
      <point x="346" y="-2"/>
      <point x="339" y="21" type="qcurve" smooth="yes"/>
      <point x="327" y="70"/>
      <point x="315" y="119" type="qcurve" smooth="yes"/>
      <point x="304" y="161"/>
      <point x="279" y="259"/>
      <point x="268" y="304" type="qcurve"/>
      <point x="257" y="259"/>
      <point x="233" y="161"/>
      <point x="222" y="119" type="qcurve" smooth="yes"/>
      <point x="210" y="70"/>
      <point x="197" y="21" type="qcurve" smooth="yes"/>
      <point x="195" y="10"/>
      <point x="179" y="-2"/>
      <point x="168" y="-2" type="qcurve" smooth="yes"/>
      <point x="146" y="-2"/>
      <point x="139" y="21" type="qcurve" smooth="yes"/>
    </contour>
  </outline>
</glyph>
<glyph name="x" format="1">
  <advance width="360"/>
  <unicode hex="0078"/>
  <outline>
    <contour>
      <point x="54" y="2" type="qcurve" smooth="yes"/>
      <point x="43" y="8"/>
      <point x="36" y="31"/>
      <point x="42" y="42" type="qcurve" smooth="yes"/>
      <point x="146" y="232" type="line"/>
      <point x="46" y="413" type="line" smooth="yes"/>
      <point x="40" y="424"/>
      <point x="47" y="448"/>
      <point x="58" y="454" type="qcurve" smooth="yes"/>
      <point x="69" y="460"/>
      <point x="93" y="453"/>
      <point x="99" y="442" type="qcurve" smooth="yes"/>
      <point x="180" y="294" type="line"/>
      <point x="262" y="442" type="line" smooth="yes"/>
      <point x="268" y="453"/>
      <point x="292" y="460"/>
      <point x="303" y="454" type="qcurve" smooth="yes"/>
      <point x="314" y="448"/>
      <point x="321" y="424"/>
      <point x="315" y="413" type="qcurve" smooth="yes"/>
      <point x="215" y="232" type="line"/>
      <point x="319" y="42" type="line" smooth="yes"/>
      <point x="325" y="31"/>
      <point x="318" y="8"/>
      <point x="307" y="2" type="qcurve" smooth="yes"/>
      <point x="296" y="-4"/>
      <point x="272" y="2"/>
      <point x="266" y="13" type="qcurve" smooth="yes"/>
      <point x="180" y="169" type="line"/>
      <point x="95" y="13" type="line" smooth="yes"/>
      <point x="89" y="2"/>
      <point x="65" y="-4"/>
    </contour>
  </outline>
</glyph>
<glyph name="y" format="1">
  <advance width="369"/>
  <unicode hex="0079"/>
  <outline>
    <contour>
      <point x="50" y="-202" type="qcurve" smooth="yes"/>
      <point x="37" y="-202"/>
      <point x="20" y="-185"/>
      <point x="20" y="-172" type="qcurve" smooth="yes"/>
      <point x="20" y="-159"/>
      <point x="37" y="-142"/>
      <point x="50" y="-142" type="qcurve" smooth="yes"/>
      <point x="73" y="-142"/>
      <point x="110" y="-115"/>
      <point x="117" y="-92" type="qcurve" smooth="yes"/>
      <point x="153" y="28" type="line"/>
      <point x="36" y="419" type="line" smooth="yes"/>
      <point x="32" y="431"/>
      <point x="44" y="453"/>
      <point x="56" y="457" type="qcurve" smooth="yes"/>
      <point x="68" y="460"/>
      <point x="89" y="448"/>
      <point x="93" y="437" type="qcurve" smooth="yes"/>
      <point x="184" y="132" type="line"/>
      <point x="276" y="437" type="line" smooth="yes"/>
      <point x="279" y="448"/>
      <point x="301" y="460"/>
      <point x="313" y="457" type="qcurve" smooth="yes"/>
      <point x="325" y="453"/>
      <point x="337" y="431"/>
      <point x="333" y="419" type="qcurve" smooth="yes"/>
      <point x="213" y="19" type="line"/>
      <point x="175" y="-109" type="line" smooth="yes"/>
      <point x="161" y="-152"/>
      <point x="128" y="-176" type="qcurve" smooth="yes"/>
      <point x="93" y="-202"/>
    </contour>
  </outline>
</glyph>
<glyph name="z" format="1">
  <advance width="344"/>
  <unicode hex="007A"/>
  <outline>
    <contour>
      <point x="42" y="32" type="qcurve" smooth="yes"/>
      <point x="42" y="38"/>
      <point x="45" y="46" type="qcurve" smooth="yes"/>
      <point x="85" y="125"/>
      <point x="120" y="194" type="qcurve" smooth="yes"/>
      <point x="135" y="223"/>
      <point x="166" y="283"/>
      <point x="194" y="337"/>
      <point x="216" y="381"/>
      <point x="223" y="394" type="qcurve"/>
      <point x="72" y="394" type="line" smooth="yes"/>
      <point x="59" y="394"/>
      <point x="42" y="411"/>
      <point x="42" y="424" type="qcurve" smooth="yes"/>
      <point x="42" y="437"/>
      <point x="59" y="454"/>
      <point x="72" y="454" type="qcurve" smooth="yes"/>
      <point x="272" y="454" type="line" smooth="yes"/>
      <point x="289" y="454"/>
      <point x="297" y="440" type="qcurve" smooth="yes"/>
      <point x="302" y="432"/>
      <point x="302" y="424" type="qcurve" smooth="yes"/>
      <point x="302" y="420"/>
      <point x="300" y="414"/>
      <point x="298" y="410" type="qcurve" smooth="yes"/>
      <point x="258" y="331"/>
      <point x="223" y="262" type="qcurve" smooth="yes"/>
      <point x="208" y="233"/>
      <point x="177" y="172"/>
      <point x="150" y="118"/>
      <point x="127" y="75"/>
      <point x="121" y="62" type="qcurve"/>
      <point x="272" y="62" type="line" smooth="yes"/>
      <point x="284" y="62"/>
      <point x="302" y="45"/>
      <point x="302" y="32" type="qcurve" smooth="yes"/>
      <point x="302" y="19"/>
      <point x="284" y="2"/>
      <point x="272" y="2" type="qcurve" smooth="yes"/>
      <point x="72" y="2" type="line" smooth="yes"/>
      <point x="54" y="2"/>
      <point x="46" y="16" type="qcurve" smooth="yes"/>
      <point x="42" y="23"/>
    </contour>
  </outline>
</glyph>
<glyph name="braceleft" format="1">
  <advance width="256"/>
  <unicode hex="007B"/>
  <outline>
    <contour>
      <point x="160" y="408" type="line"/>
      <point x="160" y="385"/>
      <point x="142" y="343"/>
      <point x="126" y="328" type="qcurve"/>
      <point x="142" y="313"/>
      <point x="160" y="271"/>
      <point x="160" y="248" type="qcurve" smooth="yes"/>
      <point x="160" y="28" type="line" smooth="yes"/>
      <point x="160" y="8"/>
      <point x="188" y="-20"/>
      <point x="208" y="-20" type="qcurve" smooth="yes"/>
      <point x="222" y="-20"/>
      <point x="240" y="-38"/>
      <point x="240" y="-52" type="qcurve" smooth="yes"/>
      <point x="240" y="-66"/>
      <point x="222" y="-84"/>
      <point x="208" y="-84" type="qcurve" smooth="yes"/>
      <point x="185" y="-84"/>
      <point x="144" y="-66"/>
      <point x="114" y="-36"/>
      <point x="96" y="5"/>
      <point x="96" y="28" type="qcurve" smooth="yes"/>
      <point x="96" y="248" type="line" smooth="yes"/>
      <point x="96" y="268"/>
      <point x="68" y="296"/>
      <point x="48" y="296" type="qcurve" smooth="yes"/>
      <point x="34" y="296"/>
      <point x="16" y="314"/>
      <point x="16" y="328" type="qcurve" smooth="yes"/>
      <point x="16" y="342"/>
      <point x="34" y="360"/>
      <point x="48" y="360" type="qcurve" smooth="yes"/>
      <point x="68" y="360"/>
      <point x="96" y="388"/>
      <point x="96" y="408" type="qcurve" smooth="yes"/>
      <point x="96" y="608" type="line" smooth="yes"/>
      <point x="96" y="631"/>
      <point x="114" y="672"/>
      <point x="144" y="702"/>
      <point x="185" y="720"/>
      <point x="208" y="720" type="qcurve" smooth="yes"/>
      <point x="222" y="720"/>
      <point x="240" y="702"/>
      <point x="240" y="688" type="qcurve" smooth="yes"/>
      <point x="240" y="674"/>
      <point x="222" y="656"/>
      <point x="208" y="656" type="qcurve" smooth="yes"/>
      <point x="188" y="656"/>
      <point x="160" y="628"/>
      <point x="160" y="608" type="qcurve" smooth="yes"/>
      <point x="160" y="408" type="line"/>
    </contour>
  </outline>
</glyph>
<glyph name="bar" format="1">
  <advance width="208"/>
  <unicode hex="007C"/>
  <outline>
    <contour>
      <point x="109" y="860" type="qcurve" smooth="yes"/>
      <point x="123" y="860"/>
      <point x="141" y="842"/>
      <point x="141" y="828" type="qcurve" smooth="yes"/>
      <point x="141" y="-172" type="line" smooth="yes"/>
      <point x="141" y="-186"/>
      <point x="123" y="-204"/>
      <point x="109" y="-204" type="qcurve" smooth="yes"/>
      <point x="95" y="-204"/>
      <point x="77" y="-186"/>
      <point x="77" y="-172" type="qcurve" smooth="yes"/>
      <point x="77" y="828" type="line" smooth="yes"/>
      <point x="77" y="842"/>
      <point x="95" y="860"/>
    </contour>
  </outline>
</glyph>
<glyph name="braceright" format="1">
  <advance width="256"/>
  <unicode hex="007D"/>
  <outline>
    <contour>
      <point x="96" y="248" type="line"/>
      <point x="96" y="297"/>
      <point x="129" y="328" type="qcurve"/>
      <point x="96" y="359"/>
      <point x="96" y="408" type="qcurve" smooth="yes"/>
      <point x="96" y="608" type="line" smooth="yes"/>
      <point x="96" y="628"/>
      <point x="68" y="656"/>
      <point x="48" y="656" type="qcurve" smooth="yes"/>
      <point x="34" y="656"/>
      <point x="16" y="674"/>
      <point x="16" y="688" type="qcurve" smooth="yes"/>
      <point x="16" y="702"/>
      <point x="34" y="720"/>
      <point x="48" y="720" type="qcurve" smooth="yes"/>
      <point x="71" y="720"/>
      <point x="112" y="702"/>
      <point x="142" y="672"/>
      <point x="160" y="631"/>
      <point x="160" y="608" type="qcurve" smooth="yes"/>
      <point x="160" y="408" type="line" smooth="yes"/>
      <point x="160" y="388"/>
      <point x="188" y="360"/>
      <point x="208" y="360" type="qcurve" smooth="yes"/>
      <point x="221" y="360"/>
      <point x="240" y="342"/>
      <point x="240" y="328" type="qcurve" smooth="yes"/>
      <point x="240" y="314"/>
      <point x="221" y="296"/>
      <point x="208" y="296" type="qcurve" smooth="yes"/>
      <point x="188" y="296"/>
      <point x="160" y="268"/>
      <point x="160" y="248" type="qcurve" smooth="yes"/>
      <point x="160" y="28" type="line" smooth="yes"/>
      <point x="160" y="5"/>
      <point x="142" y="-36"/>
      <point x="112" y="-66"/>
      <point x="71" y="-84"/>
      <point x="48" y="-84" type="qcurve" smooth="yes"/>
      <point x="34" y="-84"/>
      <point x="16" y="-66"/>
      <point x="16" y="-52" type="qcurve" smooth="yes"/>
      <point x="16" y="-38"/>
      <point x="34" y="-20"/>
      <point x="48" y="-20" type="qcurve" smooth="yes"/>
      <point x="68" y="-20"/>
      <point x="96" y="8"/>
      <point x="96" y="28" type="qcurve" smooth="yes"/>
      <point x="96" y="248" type="line"/>
    </contour>
  </outline>
</glyph>
<glyph name="asciitilde" format="1">
  <advance width="416"/>
  <unicode hex="007E"/>
  <outline>
    <contour>
      <point x="360" y="303" type="qcurve" smooth="yes"/>
      <point x="371" y="296"/>
      <point x="376" y="272"/>
      <point x="369" y="261" type="qcurve" smooth="yes"/>
      <point x="355" y="240"/>
      <point x="313" y="213"/>
      <point x="289" y="209" type="qcurve" smooth="yes"/>
      <point x="238" y="200"/>
      <point x="196" y="231" type="qcurve" smooth="yes"/>
      <point x="184" y="240" type="line" smooth="yes"/>
      <point x="164" y="256"/>
      <point x="138" y="251" type="qcurve" smooth="yes"/>
      <point x="113" y="246"/>
      <point x="99" y="225" type="qcurve" smooth="yes"/>
      <point x="92" y="214"/>
      <point x="68" y="209"/>
      <point x="57" y="217" type="qcurve" smooth="yes"/>
      <point x="46" y="224"/>
      <point x="41" y="248"/>
      <point x="48" y="259" type="qcurve" smooth="yes"/>
      <point x="76" y="303"/>
      <point x="128" y="311" type="qcurve" smooth="yes"/>
      <point x="152" y="316"/>
      <point x="201" y="304"/>
      <point x="221" y="289" type="qcurve" smooth="yes"/>
      <point x="233" y="280" type="line" smooth="yes"/>
      <point x="253" y="264"/>
      <point x="279" y="269" type="qcurve" smooth="yes"/>
      <point x="304" y="274"/>
      <point x="318" y="295" type="qcurve" smooth="yes"/>
      <point x="325" y="306"/>
      <point x="349" y="310"/>
    </contour>
  </outline>
</glyph>
<glyph name="exclamdown" format="1">
  <advance width="200"/>
  <unicode hex="00A1"/>
  <outline>
    <contour>
      <point x="100" y="460" type="qcurve" smooth="yes"/>
      <point x="117" y="460"/>
      <point x="142" y="435"/>
      <point x="142" y="418" type="qcurve" smooth="yes"/>
      <point x="142" y="401"/>
      <point x="117" y="376"/>
      <point x="100" y="376" type="qcurve" smooth="yes"/>
      <point x="83" y="376"/>
      <point x="58" y="401"/>
      <point x="58" y="418" type="qcurve" smooth="yes"/>
      <point x="58" y="435"/>
      <point x="83" y="460"/>
    </contour>
    <contour>
      <point x="100" y="300" type="qcurve" smooth="yes"/>
      <point x="114" y="300"/>
      <point x="132" y="282"/>
      <point x="132" y="268" type="qcurve" smooth="yes"/>
      <point x="132" y="-132" type="line" smooth="yes"/>
      <point x="132" y="-146"/>
      <point x="114" y="-164"/>
      <point x="100" y="-164" type="qcurve" smooth="yes"/>
      <point x="87" y="-164"/>
      <point x="68" y="-146"/>
      <point x="68" y="-132" type="qcurve" smooth="yes"/>
      <point x="68" y="268" type="line" smooth="yes"/>
      <point x="68" y="282"/>
      <point x="87" y="300"/>
    </contour>
  </outline>
</glyph>
<glyph name="cent" format="1">
  <advance width="416"/>
  <unicode hex="00A2"/>
  <outline>
    <contour>
      <point x="196" y="391" type="qcurve" smooth="yes"/>
      <point x="176" y="383"/>
      <point x="154" y="349"/>
      <point x="154" y="328" type="qcurve" smooth="yes"/>
      <point x="154" y="128" type="line" smooth="yes"/>
      <point x="154" y="107"/>
      <point x="176" y="73"/>
      <point x="196" y="65" type="qcurve" smooth="yes"/>
      <point x="209" y="60"/>
      <point x="221" y="60" type="qcurve" smooth="yes"/>
      <point x="222" y="60" type="line"/>
      <point x="223" y="60" type="line" smooth="yes"/>
      <point x="250" y="60"/>
      <point x="270" y="80" type="qcurve" smooth="yes"/>
      <point x="279" y="89"/>
      <point x="305" y="89"/>
      <point x="315" y="80" type="qcurve" smooth="yes"/>
      <point x="324" y="70"/>
      <point x="324" y="44"/>
      <point x="315" y="35" type="qcurve" smooth="yes"/>
      <point x="302" y="21"/>
      <point x="271" y="5"/>
      <point x="254" y="0" type="qcurve"/>
      <point x="254" y="-52" type="line" smooth="yes"/>
      <point x="254" y="-66"/>
      <point x="235" y="-84"/>
      <point x="222" y="-84" type="qcurve" smooth="yes"/>
      <point x="208" y="-84"/>
      <point x="190" y="-66"/>
      <point x="190" y="-52" type="qcurve" smooth="yes"/>
      <point x="190" y="0" type="line"/>
      <point x="180" y="1"/>
      <point x="171" y="6" type="qcurve" smooth="yes"/>
      <point x="134" y="22"/>
      <point x="90" y="87"/>
      <point x="90" y="128" type="qcurve" smooth="yes"/>
      <point x="90" y="328" type="line" smooth="yes"/>
      <point x="90" y="369"/>
      <point x="134" y="434"/>
      <point x="171" y="450" type="qcurve" smooth="yes"/>
      <point x="176" y="452"/>
      <point x="185" y="454"/>
      <point x="190" y="456" type="qcurve"/>
      <point x="190" y="508" type="line" smooth="yes"/>
      <point x="190" y="522"/>
      <point x="208" y="540"/>
      <point x="222" y="540" type="qcurve" smooth="yes"/>
      <point x="235" y="540"/>
      <point x="254" y="522"/>
      <point x="254" y="508" type="qcurve" smooth="yes"/>
      <point x="254" y="456" type="line"/>
      <point x="271" y="451"/>
      <point x="302" y="435"/>
      <point x="315" y="421" type="qcurve" smooth="yes"/>
      <point x="324" y="412"/>
      <point x="324" y="386"/>
      <point x="315" y="376" type="qcurve" smooth="yes"/>
      <point x="305" y="367"/>
      <point x="279" y="367"/>
      <point x="270" y="376" type="qcurve" smooth="yes"/>
      <point x="250" y="396"/>
      <point x="223" y="396" type="qcurve" smooth="yes"/>
      <point x="222" y="396" type="line"/>
      <point x="221" y="396" type="line" smooth="yes"/>
      <point x="209" y="396"/>
    </contour>
  </outline>
</glyph>
<glyph name="sterling" format="1">
  <advance width="416"/>
  <unicode hex="00A3"/>
  <outline>
    <contour>
      <point x="348" y="64" type="line"/>
      <point x="362" y="64"/>
      <point x="380" y="46"/>
      <point x="380" y="32" type="qcurve" smooth="yes"/>
      <point x="380" y="18"/>
      <point x="362" y="0"/>
      <point x="348" y="0" type="qcurve" smooth="yes"/>
      <point x="68" y="0" type="line" smooth="yes"/>
      <point x="57" y="0"/>
      <point x="39" y="15"/>
      <point x="37" y="27" type="qcurve" smooth="yes"/>
      <point x="35" y="38"/>
      <point x="47" y="58"/>
      <point x="58" y="62" type="qcurve" smooth="yes"/>
      <point x="84" y="72"/>
      <point x="116" y="117"/>
      <point x="116" y="145" type="qcurve" smooth="yes"/>
      <point x="116" y="296" type="line"/>
      <point x="68" y="296" type="line" smooth="yes"/>
      <point x="55" y="296"/>
      <point x="36" y="314"/>
      <point x="36" y="328" type="qcurve" smooth="yes"/>
      <point x="36" y="342"/>
      <point x="55" y="360"/>
      <point x="68" y="360" type="qcurve" smooth="yes"/>
      <point x="116" y="360" type="line"/>
      <point x="116" y="508" type="line" smooth="yes"/>
      <point x="116" y="553"/>
      <point x="171" y="624"/>
      <point x="214" y="635" type="qcurve" smooth="yes"/>
      <point x="258" y="647"/>
      <point x="340" y="613"/>
      <point x="363" y="574" type="qcurve" smooth="yes"/>
      <point x="369" y="563"/>
      <point x="362" y="537"/>
      <point x="351" y="530" type="qcurve" smooth="yes"/>
      <point x="340" y="523"/>
      <point x="314" y="531"/>
      <point x="307" y="542" type="qcurve" smooth="yes"/>
      <point x="296" y="562"/>
      <point x="253" y="580"/>
      <point x="231" y="574" type="qcurve" smooth="yes"/>
      <point x="208" y="568"/>
      <point x="180" y="531"/>
      <point x="180" y="508" type="qcurve" smooth="yes"/>
      <point x="180" y="360" type="line"/>
      <point x="268" y="360" type="line" smooth="yes"/>
      <point x="282" y="360"/>
      <point x="300" y="342"/>
      <point x="300" y="328" type="qcurve" smooth="yes"/>
      <point x="300" y="314"/>
      <point x="282" y="296"/>
      <point x="268" y="296" type="qcurve" smooth="yes"/>
      <point x="180" y="296" type="line"/>
      <point x="180" y="145" type="line" smooth="yes"/>
      <point x="180" y="101"/>
      <point x="157" y="64" type="qcurve"/>
      <point x="348" y="64" type="line"/>
    </contour>
  </outline>
</glyph>
<glyph name="currency" format="1">
  <advance width="700"/>
  <unicode hex="00A4"/>
  <outline>
    <contour>
      <point x="664" y="403" type="line" smooth="yes"/>
      <point x="669" y="400"/>
      <point x="669" y="393" type="qcurve" smooth="yes"/>
      <point x="669" y="97" type="line" smooth="yes"/>
      <point x="669" y="89"/>
      <point x="662" y="86" type="qcurve" smooth="yes"/>
      <point x="602" y="56" type="line"/>
      <point x="481" y="-5" type="line"/>
      <point x="420" y="-35" type="line"/>
      <point x="419" y="-36" type="line"/>
      <point x="418" y="-36" type="line" smooth="yes"/>
      <point x="417" y="-37"/>
      <point x="415" y="-37" type="qcurve" smooth="yes"/>
      <point x="412" y="-37"/>
      <point x="412" y="-36" type="qcurve" smooth="yes"/>
      <point x="411" y="-36" type="line" smooth="yes"/>
      <point x="410" y="-36"/>
      <point x="409" y="-35" type="qcurve" smooth="yes"/>
      <point x="46" y="146" type="line" smooth="yes"/>
      <point x="39" y="149"/>
      <point x="39" y="157" type="qcurve" smooth="yes"/>
      <point x="39" y="454" type="line" smooth="yes"/>
      <point x="39" y="455"/>
      <point x="40" y="456" type="qcurve" smooth="yes"/>
      <point x="40" y="457" type="line" smooth="yes"/>
      <point x="40" y="458"/>
      <point x="41" y="459" type="qcurve" smooth="yes"/>
      <point x="41" y="460" type="line"/>
      <point x="162" y="668" type="line" smooth="yes"/>
      <point x="167" y="678"/>
      <point x="178" y="673" type="qcurve" smooth="yes"/>
      <point x="541" y="492" type="line"/>
      <point x="542" y="491" type="line"/>
      <point x="543" y="491" type="line"/>
    </contour>
    <contour>
      <point x="68" y="459" type="line"/>
      <point x="410" y="288" type="line"/>
      <point x="519" y="476" type="line"/>
      <point x="177" y="646" type="line"/>
    </contour>
    <contour>
      <point x="403" y="265" type="line"/>
      <point x="64" y="434" type="line"/>
      <point x="64" y="164" type="line"/>
      <point x="403" y="-5" type="line"/>
    </contour>
    <contour>
      <point x="585" y="74" type="line"/>
      <point x="584" y="343" type="line"/>
      <point x="487" y="295" type="line"/>
      <point x="487" y="25" type="line"/>
    </contour>
    <contour>
      <point x="645" y="387" type="line"/>
      <point x="539" y="463" type="line"/>
      <point x="427" y="269" type="line"/>
      <point x="427" y="-5" type="line"/>
      <point x="463" y="13" type="line"/>
      <point x="463" y="302" type="line" smooth="yes"/>
      <point x="463" y="309"/>
      <point x="470" y="313" type="qcurve" smooth="yes"/>
      <point x="591" y="374" type="line" smooth="yes"/>
      <point x="595" y="377"/>
      <point x="603" y="373" type="qcurve" smooth="yes"/>
      <point x="608" y="370"/>
      <point x="608" y="363" type="qcurve" smooth="yes"/>
      <point x="609" y="86" type="line"/>
      <point x="645" y="104" type="line"/>
    </contour>
    <contour>
      <point x="151" y="210" type="line" smooth="yes"/>
      <point x="144" y="213"/>
      <point x="144" y="221" type="qcurve" smooth="yes"/>
      <point x="144" y="344" type="line" smooth="yes"/>
      <point x="144" y="350"/>
      <point x="150" y="355" type="qcurve" smooth="yes"/>
      <point x="155" y="358"/>
      <point x="162" y="355" type="qcurve" smooth="yes"/>
      <point x="308" y="282" type="line" smooth="yes"/>
      <point x="315" y="278"/>
      <point x="315" y="271" type="qcurve" smooth="yes"/>
      <point x="315" y="148" type="line" smooth="yes"/>
      <point x="315" y="140"/>
      <point x="309" y="137" type="qcurve" smooth="yes"/>
      <point x="305" y="135"/>
      <point x="303" y="135" type="qcurve" smooth="yes"/>
      <point x="301" y="135"/>
      <point x="297" y="137" type="qcurve" smooth="yes"/>
    </contour>
    <contour>
      <point x="169" y="228" type="line"/>
      <point x="291" y="167" type="line"/>
      <point x="291" y="264" type="line"/>
      <point x="169" y="325" type="line"/>
    </contour>
  </outline>
</glyph>
<glyph name="yen" format="1">
  <advance width="416"/>
  <unicode hex="00A5"/>
  <outline>
    <contour>
      <point x="176" y="136" type="line"/>
      <point x="92" y="136" type="line" smooth="yes"/>
      <point x="78" y="136"/>
      <point x="60" y="154"/>
      <point x="60" y="168" type="qcurve" smooth="yes"/>
      <point x="60" y="182"/>
      <point x="78" y="200"/>
      <point x="92" y="200" type="qcurve" smooth="yes"/>
      <point x="176" y="200" type="line"/>
      <point x="176" y="296" type="line"/>
      <point x="92" y="296" type="line" smooth="yes"/>
      <point x="78" y="296"/>
      <point x="60" y="314"/>
      <point x="60" y="328" type="qcurve" smooth="yes"/>
      <point x="60" y="342"/>
      <point x="78" y="360"/>
      <point x="92" y="360" type="qcurve" smooth="yes"/>
      <point x="156" y="360" type="line"/>
      <point x="39" y="594" type="line" smooth="yes"/>
      <point x="33" y="605"/>
      <point x="42" y="631"/>
      <point x="54" y="637" type="qcurve" smooth="yes"/>
      <point x="65" y="642"/>
      <point x="91" y="634"/>
      <point x="97" y="622" type="qcurve" smooth="yes"/>
      <point x="208" y="400" type="line"/>
      <point x="319" y="622" type="line" smooth="yes"/>
      <point x="325" y="634"/>
      <point x="350" y="642"/>
      <point x="362" y="637" type="qcurve" smooth="yes"/>
      <point x="374" y="631"/>
      <point x="382" y="605"/>
      <point x="377" y="594" type="qcurve" smooth="yes"/>
      <point x="260" y="360" type="line"/>
      <point x="332" y="360" type="line" smooth="yes"/>
      <point x="346" y="360"/>
      <point x="364" y="342"/>
      <point x="364" y="328" type="qcurve" smooth="yes"/>
      <point x="364" y="314"/>
      <point x="346" y="296"/>
      <point x="332" y="296" type="qcurve" smooth="yes"/>
      <point x="240" y="296" type="line"/>
      <point x="240" y="200" type="line"/>
      <point x="332" y="200" type="line" smooth="yes"/>
      <point x="346" y="200"/>
      <point x="364" y="182"/>
      <point x="364" y="168" type="qcurve" smooth="yes"/>
      <point x="364" y="154"/>
      <point x="346" y="136"/>
      <point x="332" y="136" type="qcurve" smooth="yes"/>
      <point x="240" y="136" type="line"/>
      <point x="240" y="28" type="line" smooth="yes"/>
      <point x="240" y="14"/>
      <point x="222" y="-4"/>
      <point x="208" y="-4" type="qcurve" smooth="yes"/>
      <point x="194" y="-4"/>
      <point x="176" y="14"/>
      <point x="176" y="28" type="qcurve" smooth="yes"/>
    </contour>
  </outline>
</glyph>
<glyph name="brokenbar" format="1">
  <advance width="208"/>
  <unicode hex="00A6"/>
  <outline>
    <contour>
      <point x="104" y="260" type="qcurve" smooth="yes"/>
      <point x="118" y="260"/>
      <point x="136" y="242"/>
      <point x="136" y="228" type="qcurve" smooth="yes"/>
      <point x="136" y="-172" type="line" smooth="yes"/>
      <point x="136" y="-186"/>
      <point x="118" y="-204"/>
      <point x="104" y="-204" type="qcurve" smooth="yes"/>
      <point x="90" y="-204"/>
      <point x="72" y="-186"/>
      <point x="72" y="-172" type="qcurve" smooth="yes"/>
      <point x="72" y="228" type="line" smooth="yes"/>
      <point x="72" y="242"/>
      <point x="90" y="260"/>
    </contour>
    <contour>
      <point x="104" y="860" type="qcurve" smooth="yes"/>
      <point x="118" y="860"/>
      <point x="136" y="842"/>
      <point x="136" y="828" type="qcurve" smooth="yes"/>
      <point x="136" y="428" type="line" smooth="yes"/>
      <point x="136" y="414"/>
      <point x="118" y="396"/>
      <point x="104" y="396" type="qcurve" smooth="yes"/>
      <point x="90" y="396"/>
      <point x="72" y="414"/>
      <point x="72" y="428" type="qcurve" smooth="yes"/>
      <point x="72" y="828" type="line" smooth="yes"/>
      <point x="72" y="842"/>
      <point x="90" y="860"/>
    </contour>
  </outline>
</glyph>
<glyph name="section" format="1">
  <advance width="416"/>
  <unicode hex="00A7"/>
  <outline>
    <contour>
      <point x="290" y="383" type="line" smooth="yes"/>
      <point x="317" y="362"/>
      <point x="341" y="299"/>
      <point x="334" y="266" type="qcurve" smooth="yes"/>
      <point x="330" y="246"/>
      <point x="310" y="211"/>
      <point x="296" y="197" type="qcurve"/>
      <point x="324" y="164"/>
      <point x="324" y="120" type="qcurve" smooth="yes"/>
      <point x="325" y="93"/>
      <point x="303" y="43"/>
      <point x="282" y="26" type="qcurve" smooth="yes"/>
      <point x="238" y="-11"/>
      <point x="182" y="-2" type="qcurve" smooth="yes"/>
      <point x="155" y="3"/>
      <point x="111" y="33"/>
      <point x="97" y="57" type="qcurve" smooth="yes"/>
      <point x="90" y="68"/>
      <point x="97" y="94"/>
      <point x="109" y="101" type="qcurve" smooth="yes"/>
      <point x="120" y="107"/>
      <point x="145" y="100"/>
      <point x="152" y="89" type="qcurve" smooth="yes"/>
      <point x="166" y="66"/>
      <point x="193" y="61" type="qcurve" smooth="yes"/>
      <point x="219" y="56"/>
      <point x="240" y="74" type="qcurve" smooth="yes"/>
      <point x="250" y="82"/>
      <point x="261" y="106"/>
      <point x="260" y="119" type="qcurve" smooth="yes"/>
      <point x="260" y="147"/>
      <point x="239" y="163" type="qcurve" smooth="yes"/>
      <point x="127" y="252" type="line"/>
      <point x="126" y="252" type="line"/>
      <point x="100" y="274"/>
      <point x="76" y="337"/>
      <point x="83" y="370" type="qcurve" smooth="yes"/>
      <point x="91" y="412"/>
      <point x="121" y="439" type="qcurve"/>
      <point x="94" y="471"/>
      <point x="92" y="516" type="qcurve" smooth="yes"/>
      <point x="92" y="543"/>
      <point x="114" y="593"/>
      <point x="135" y="610" type="qcurve" smooth="yes"/>
      <point x="155" y="628"/>
      <point x="208" y="643"/>
      <point x="235" y="638" type="qcurve" smooth="yes"/>
      <point x="262" y="633"/>
      <point x="306" y="603"/>
      <point x="320" y="579" type="qcurve" smooth="yes"/>
      <point x="327" y="568"/>
      <point x="320" y="542"/>
      <point x="308" y="535" type="qcurve" smooth="yes"/>
      <point x="297" y="528"/>
      <point x="272" y="536"/>
      <point x="265" y="547" type="qcurve" smooth="yes"/>
      <point x="251" y="570"/>
      <point x="224" y="575" type="qcurve" smooth="yes"/>
      <point x="198" y="580"/>
      <point x="177" y="562" type="qcurve" smooth="yes"/>
      <point x="156" y="545"/>
      <point x="156" y="517" type="qcurve" smooth="yes"/>
      <point x="158" y="489"/>
      <point x="178" y="473" type="qcurve" smooth="yes"/>
    </contour>
    <contour>
      <point x="246" y="239" type="line"/>
      <point x="256" y="246"/>
      <point x="269" y="266"/>
      <point x="271" y="277" type="qcurve" smooth="yes"/>
      <point x="274" y="293"/>
      <point x="263" y="323"/>
      <point x="251" y="333" type="qcurve" smooth="yes"/>
      <point x="171" y="397" type="line"/>
      <point x="150" y="382"/>
      <point x="145" y="359" type="qcurve" smooth="yes"/>
      <point x="139" y="324"/>
      <point x="166" y="303" type="qcurve" smooth="yes"/>
    </contour>
  </outline>
</glyph>
<glyph name="dieresis" format="1">
  <advance width="500"/>
  <unicode hex="00A8"/>
  <outline>
    <contour>
      <point x="288" y="578" type="qcurve" smooth="yes"/>
      <point x="288" y="595"/>
      <point x="313" y="620"/>
      <point x="330" y="620" type="qcurve" smooth="yes"/>
      <point x="347" y="620"/>
      <point x="372" y="595"/>
      <point x="372" y="578" type="qcurve" smooth="yes"/>
      <point x="372" y="561"/>
      <point x="347" y="536"/>
      <point x="330" y="536" type="qcurve" smooth="yes"/>
      <point x="313" y="536"/>
      <point x="288" y="561"/>
    </contour>
    <contour>
      <point x="128" y="578" type="qcurve" smooth="yes"/>
      <point x="128" y="595"/>
      <point x="153" y="620"/>
      <point x="170" y="620" type="qcurve" smooth="yes"/>
      <point x="187" y="620"/>
      <point x="212" y="595"/>
      <point x="212" y="578" type="qcurve" smooth="yes"/>
      <point x="212" y="561"/>
      <point x="187" y="536"/>
      <point x="170" y="536" type="qcurve" smooth="yes"/>
      <point x="153" y="536"/>
      <point x="128" y="561"/>
    </contour>
  </outline>
</glyph>
<glyph name="copyright" format="1">
  <advance width="718"/>
  <unicode hex="00A9"/>
  <outline>
    <contour>
      <point x="347" y="436" type="qcurve" smooth="yes"/>
      <point x="330" y="431"/>
      <point x="310" y="405"/>
      <point x="310" y="388" type="qcurve" smooth="yes"/>
      <point x="310" y="248" type="line" smooth="yes"/>
      <point x="310" y="231"/>
      <point x="330" y="205"/>
      <point x="347" y="200" type="qcurve" smooth="yes"/>
      <point x="363" y="195"/>
      <point x="394" y="209"/>
      <point x="402" y="223" type="qcurve" smooth="yes"/>
      <point x="409" y="234"/>
      <point x="433" y="241"/>
      <point x="444" y="234" type="qcurve" smooth="yes"/>
      <point x="455" y="228"/>
      <point x="462" y="204"/>
      <point x="455" y="193" type="qcurve" smooth="yes"/>
      <point x="436" y="160"/>
      <point x="367" y="131"/>
      <point x="331" y="141" type="qcurve" smooth="yes"/>
      <point x="295" y="151"/>
      <point x="249" y="210"/>
      <point x="249" y="248" type="qcurve" smooth="yes"/>
      <point x="249" y="388" type="line" smooth="yes"/>
      <point x="249" y="426"/>
      <point x="295" y="485"/>
      <point x="331" y="495" type="qcurve" smooth="yes"/>
      <point x="367" y="505"/>
      <point x="436" y="475"/>
      <point x="455" y="443" type="qcurve" smooth="yes"/>
      <point x="462" y="432"/>
      <point x="455" y="408"/>
      <point x="444" y="402" type="qcurve" smooth="yes"/>
      <point x="433" y="395"/>
      <point x="409" y="402"/>
      <point x="402" y="413" type="qcurve" smooth="yes"/>
      <point x="394" y="427"/>
      <point x="363" y="441"/>
    </contour>
    <contour>
      <point x="680" y="318" type="qcurve" smooth="yes"/>
      <point x="680" y="253"/>
      <point x="632" y="137"/>
      <point x="586" y="91" type="qcurve" smooth="yes"/>
      <point x="541" y="46"/>
      <point x="424" y="-3"/>
      <point x="359" y="-3" type="qcurve" smooth="yes"/>
      <point x="295" y="-3"/>
      <point x="178" y="46"/>
      <point x="133" y="91" type="qcurve" smooth="yes"/>
      <point x="87" y="137"/>
      <point x="39" y="253"/>
      <point x="39" y="318" type="qcurve" smooth="yes"/>
      <point x="39" y="383"/>
      <point x="87" y="499"/>
      <point x="133" y="545" type="qcurve" smooth="yes"/>
      <point x="178" y="590"/>
      <point x="295" y="638"/>
      <point x="359" y="638" type="qcurve" smooth="yes"/>
      <point x="424" y="638"/>
      <point x="541" y="590"/>
      <point x="586" y="545" type="qcurve" smooth="yes"/>
      <point x="632" y="499"/>
      <point x="680" y="383"/>
    </contour>
    <contour>
      <point x="359" y="58" type="qcurve" smooth="yes"/>
      <point x="412" y="58"/>
      <point x="506" y="97"/>
      <point x="543" y="134" type="qcurve" smooth="yes"/>
      <point x="580" y="171"/>
      <point x="619" y="266"/>
      <point x="619" y="318" type="qcurve" smooth="yes"/>
      <point x="619" y="370"/>
      <point x="580" y="464"/>
      <point x="543" y="501" type="qcurve" smooth="yes"/>
      <point x="506" y="538"/>
      <point x="412" y="577"/>
      <point x="359" y="577" type="qcurve" smooth="yes"/>
      <point x="307" y="577"/>
      <point x="213" y="538"/>
      <point x="176" y="501" type="qcurve" smooth="yes"/>
      <point x="139" y="464"/>
      <point x="100" y="370"/>
      <point x="100" y="318" type="qcurve" smooth="yes"/>
      <point x="100" y="266"/>
      <point x="139" y="171"/>
      <point x="176" y="134" type="qcurve" smooth="yes"/>
      <point x="213" y="97"/>
      <point x="307" y="58"/>
    </contour>
  </outline>
</glyph>
<glyph name="ordfeminine" format="1">
  <advance width="305"/>
  <unicode hex="00AA"/>
  <outline>
    <contour>
      <point x="179" y="633" type="qcurve" smooth="yes"/>
      <point x="211" y="625"/>
      <point x="252" y="572"/>
      <point x="252" y="538" type="qcurve" smooth="yes"/>
      <point x="252" y="328" type="line" smooth="yes"/>
      <point x="252" y="316"/>
      <point x="235" y="299"/>
      <point x="223" y="299" type="qcurve" smooth="yes"/>
      <point x="153" y="299" type="line" smooth="yes"/>
      <point x="111" y="299"/>
      <point x="54" y="356"/>
      <point x="54" y="398" type="qcurve" smooth="yes"/>
      <point x="54" y="418"/>
      <point x="69" y="454"/>
      <point x="96" y="481"/>
      <point x="132" y="497"/>
      <point x="153" y="497" type="qcurve" smooth="yes"/>
      <point x="194" y="497" type="line"/>
      <point x="194" y="538" type="line" smooth="yes"/>
      <point x="194" y="552"/>
      <point x="178" y="574"/>
      <point x="164" y="578" type="qcurve" smooth="yes"/>
      <point x="150" y="582"/>
      <point x="125" y="571"/>
      <point x="117" y="559" type="qcurve" smooth="yes"/>
      <point x="111" y="548"/>
      <point x="89" y="542"/>
      <point x="78" y="548" type="qcurve" smooth="yes"/>
      <point x="67" y="554"/>
      <point x="61" y="577"/>
      <point x="67" y="587" type="qcurve" smooth="yes"/>
      <point x="84" y="616"/>
      <point x="146" y="642"/>
    </contour>
    <contour>
      <point x="112" y="398" type="qcurve" smooth="yes"/>
      <point x="112" y="381"/>
      <point x="136" y="357"/>
      <point x="153" y="357" type="qcurve" smooth="yes"/>
      <point x="194" y="357" type="line"/>
      <point x="194" y="439" type="line"/>
      <point x="153" y="439" type="line" smooth="yes"/>
      <point x="136" y="439"/>
      <point x="112" y="415"/>
    </contour>
  </outline>
</glyph>
<glyph name="guillemotleft" format="1">
  <advance width="419"/>
  <unicode hex="00AB"/>
  <outline>
    <contour>
      <point x="356" y="408" type="qcurve" smooth="yes"/>
      <point x="356" y="398"/>
      <point x="352" y="393" type="qcurve" smooth="yes"/>
      <point x="340" y="370"/>
      <point x="329" y="351" type="qcurve" smooth="yes"/>
      <point x="320" y="334"/>
      <point x="302" y="300"/>
      <point x="297" y="292" type="qcurve"/>
      <point x="302" y="283"/>
      <point x="321" y="246"/>
      <point x="331" y="228" type="qcurve" smooth="yes"/>
      <point x="342" y="207"/>
      <point x="356" y="183" type="qcurve" smooth="yes"/>
      <point x="360" y="176"/>
      <point x="360" y="168" type="qcurve" smooth="yes"/>
      <point x="360" y="150"/>
      <point x="344" y="140" type="qcurve" smooth="yes"/>
      <point x="332" y="133"/>
      <point x="307" y="141"/>
      <point x="300" y="153" type="qcurve" smooth="yes"/>
      <point x="232" y="276" type="line" smooth="yes"/>
      <point x="224" y="291"/>
      <point x="232" y="307" type="qcurve" smooth="yes"/>
      <point x="296" y="423" type="line" smooth="yes"/>
      <point x="303" y="435"/>
      <point x="328" y="443"/>
      <point x="340" y="436" type="qcurve" smooth="yes"/>
      <point x="356" y="426"/>
    </contour>
    <contour>
      <point x="164" y="140" type="qcurve" smooth="yes"/>
      <point x="152" y="133"/>
      <point x="127" y="141"/>
      <point x="120" y="153" type="qcurve" smooth="yes"/>
      <point x="52" y="276" type="line" smooth="yes"/>
      <point x="44" y="291"/>
      <point x="52" y="307" type="qcurve" smooth="yes"/>
      <point x="116" y="423" type="line" smooth="yes"/>
      <point x="123" y="435"/>
      <point x="148" y="443"/>
      <point x="160" y="436" type="qcurve" smooth="yes"/>
      <point x="176" y="426"/>
      <point x="176" y="408" type="qcurve" smooth="yes"/>
      <point x="176" y="398"/>
      <point x="172" y="393" type="qcurve" smooth="yes"/>
      <point x="160" y="370"/>
      <point x="149" y="351" type="qcurve" smooth="yes"/>
      <point x="140" y="334"/>
      <point x="122" y="300"/>
      <point x="117" y="292" type="qcurve"/>
      <point x="122" y="283"/>
      <point x="141" y="246"/>
      <point x="151" y="228" type="qcurve" smooth="yes"/>
      <point x="162" y="207"/>
      <point x="176" y="183" type="qcurve" smooth="yes"/>
      <point x="180" y="176"/>
      <point x="180" y="168" type="qcurve" smooth="yes"/>
      <point x="180" y="150"/>
    </contour>
  </outline>
</glyph>
<glyph name="logicalnot" format="1">
  <advance width="416"/>
  <unicode hex="00AC"/>
  <outline>
    <contour>
      <point x="328" y="320" type="line"/>
      <point x="342" y="320"/>
      <point x="360" y="302"/>
      <point x="360" y="288" type="qcurve" smooth="yes"/>
      <point x="360" y="168" type="line" smooth="yes"/>
      <point x="360" y="154"/>
      <point x="342" y="136"/>
      <point x="328" y="136" type="qcurve" smooth="yes"/>
      <point x="315" y="136"/>
      <point x="296" y="154"/>
      <point x="296" y="168" type="qcurve" smooth="yes"/>
      <point x="296" y="256" type="line"/>
      <point x="88" y="256" type="line" smooth="yes"/>
      <point x="75" y="256"/>
      <point x="56" y="274"/>
      <point x="56" y="288" type="qcurve" smooth="yes"/>
      <point x="56" y="302"/>
      <point x="75" y="320"/>
      <point x="88" y="320" type="qcurve" smooth="yes"/>
      <point x="328" y="320" type="line"/>
    </contour>
  </outline>
</glyph>
<glyph name="registered" format="1">
  <advance width="718"/>
  <unicode hex="00AE"/>
  <outline>
    <contour>
      <point x="289" y="137" type="qcurve" smooth="yes"/>
      <point x="277" y="137"/>
      <point x="259" y="155"/>
      <point x="259" y="168" type="qcurve" smooth="yes"/>
      <point x="259" y="464" type="line" smooth="yes"/>
      <point x="259" y="477"/>
      <point x="277" y="494"/>
      <point x="289" y="494" type="qcurve" smooth="yes"/>
      <point x="369" y="494" type="line" smooth="yes"/>
      <point x="392" y="494"/>
      <point x="432" y="477"/>
      <point x="462" y="447"/>
      <point x="480" y="407"/>
      <point x="480" y="384" type="qcurve" smooth="yes"/>
      <point x="480" y="351"/>
      <point x="446" y="299"/>
      <point x="418" y="285" type="qcurve"/>
      <point x="476" y="183" type="line" smooth="yes"/>
      <point x="482" y="172"/>
      <point x="476" y="148"/>
      <point x="465" y="141" type="qcurve" smooth="yes"/>
      <point x="454" y="135"/>
      <point x="429" y="142"/>
      <point x="423" y="153" type="qcurve" smooth="yes"/>
      <point x="354" y="273" type="line"/>
      <point x="320" y="273" type="line"/>
      <point x="320" y="168" type="line" smooth="yes"/>
      <point x="320" y="155"/>
      <point x="302" y="137"/>
    </contour>
    <contour>
      <point x="419" y="384" type="qcurve" smooth="yes"/>
      <point x="419" y="404"/>
      <point x="390" y="433"/>
      <point x="369" y="433" type="qcurve" smooth="yes"/>
      <point x="320" y="433" type="line"/>
      <point x="320" y="334" type="line"/>
      <point x="369" y="334" type="line" smooth="yes"/>
      <point x="390" y="334"/>
      <point x="419" y="364"/>
    </contour>
    <contour>
      <point x="39" y="318" type="qcurve" smooth="yes"/>
      <point x="39" y="383"/>
      <point x="87" y="499"/>
      <point x="133" y="545" type="qcurve" smooth="yes"/>
      <point x="178" y="590"/>
      <point x="295" y="638"/>
      <point x="359" y="638" type="qcurve" smooth="yes"/>
      <point x="424" y="638"/>
      <point x="541" y="590"/>
      <point x="586" y="545" type="qcurve" smooth="yes"/>
      <point x="632" y="499"/>
      <point x="680" y="383"/>
      <point x="680" y="318" type="qcurve" smooth="yes"/>
      <point x="680" y="253"/>
      <point x="632" y="137"/>
      <point x="586" y="91" type="qcurve" smooth="yes"/>
      <point x="541" y="46"/>
      <point x="424" y="-3"/>
      <point x="359" y="-3" type="qcurve" smooth="yes"/>
      <point x="295" y="-3"/>
      <point x="178" y="46"/>
      <point x="133" y="91" type="qcurve" smooth="yes"/>
      <point x="87" y="137"/>
      <point x="39" y="253"/>
    </contour>
    <contour>
      <point x="359" y="577" type="qcurve" smooth="yes"/>
      <point x="307" y="577"/>
      <point x="213" y="538"/>
      <point x="176" y="501" type="qcurve" smooth="yes"/>
      <point x="139" y="464"/>
      <point x="100" y="370"/>
      <point x="100" y="318" type="qcurve" smooth="yes"/>
      <point x="100" y="266"/>
      <point x="139" y="171"/>
      <point x="176" y="134" type="qcurve" smooth="yes"/>
      <point x="213" y="97"/>
      <point x="307" y="58"/>
      <point x="359" y="58" type="qcurve" smooth="yes"/>
      <point x="412" y="58"/>
      <point x="506" y="97"/>
      <point x="543" y="134" type="qcurve" smooth="yes"/>
      <point x="580" y="171"/>
      <point x="619" y="266"/>
      <point x="619" y="318" type="qcurve" smooth="yes"/>
      <point x="619" y="370"/>
      <point x="580" y="464"/>
      <point x="543" y="501" type="qcurve" smooth="yes"/>
      <point x="506" y="538"/>
      <point x="412" y="577"/>
    </contour>
  </outline>
</glyph>
<glyph name="uni00AF" format="1">
  <advance width="500"/>
  <unicode hex="00AF"/>
  <outline>
    <contour>
      <point x="500" y="780" type="line"/>
      <point x="513" y="780"/>
      <point x="532" y="762"/>
      <point x="532" y="748" type="qcurve" smooth="yes"/>
      <point x="532" y="734"/>
      <point x="513" y="716"/>
      <point x="500" y="716" type="qcurve" smooth="yes"/>
      <point x="0" y="716" type="line" smooth="yes"/>
      <point x="-14" y="716"/>
      <point x="-32" y="734"/>
      <point x="-32" y="748" type="qcurve" smooth="yes"/>
      <point x="-32" y="762"/>
      <point x="-14" y="780"/>
      <point x="0" y="780" type="qcurve" smooth="yes"/>
      <point x="500" y="780" type="line"/>
    </contour>
  </outline>
</glyph>
<glyph name="degree" format="1">
  <advance width="313"/>
  <unicode hex="00B0"/>
  <outline>
    <contour>
      <point x="276" y="518" type="qcurve" smooth="yes"/>
      <point x="276" y="493"/>
      <point x="257" y="450"/>
      <point x="225" y="418"/>
      <point x="181" y="399"/>
      <point x="157" y="399" type="qcurve" smooth="yes"/>
      <point x="132" y="399"/>
      <point x="89" y="418"/>
      <point x="57" y="450"/>
      <point x="38" y="493"/>
      <point x="38" y="518" type="qcurve" smooth="yes"/>
      <point x="38" y="542"/>
      <point x="57" y="586"/>
      <point x="89" y="618"/>
      <point x="132" y="637"/>
      <point x="157" y="637" type="qcurve" smooth="yes"/>
      <point x="181" y="637"/>
      <point x="225" y="618"/>
      <point x="257" y="586"/>
      <point x="276" y="542"/>
    </contour>
    <contour>
      <point x="96" y="518" type="qcurve" smooth="yes"/>
      <point x="96" y="492"/>
      <point x="131" y="457"/>
      <point x="157" y="457" type="qcurve" smooth="yes"/>
      <point x="183" y="457"/>
      <point x="218" y="492"/>
      <point x="218" y="518" type="qcurve" smooth="yes"/>
      <point x="218" y="544"/>
      <point x="183" y="579"/>
      <point x="157" y="579" type="qcurve" smooth="yes"/>
      <point x="131" y="579"/>
      <point x="96" y="544"/>
    </contour>
  </outline>
</glyph>
<glyph name="plusminus" format="1">
  <advance width="416"/>
  <unicode hex="00B1"/>
  <outline>
    <contour>
      <point x="328" y="64" type="line" smooth="yes"/>
      <point x="342" y="64"/>
      <point x="360" y="46"/>
      <point x="360" y="32" type="qcurve" smooth="yes"/>
      <point x="360" y="18"/>
      <point x="342" y="0"/>
      <point x="328" y="0" type="qcurve" smooth="yes"/>
      <point x="88" y="0" type="line" smooth="yes"/>
      <point x="75" y="0"/>
      <point x="56" y="18"/>
      <point x="56" y="32" type="qcurve" smooth="yes"/>
      <point x="56" y="46"/>
      <point x="75" y="64"/>
      <point x="88" y="64" type="qcurve" smooth="yes"/>
    </contour>
    <contour>
      <point x="328" y="320" type="line" smooth="yes"/>
      <point x="342" y="320"/>
      <point x="360" y="302"/>
      <point x="360" y="288" type="qcurve" smooth="yes"/>
      <point x="360" y="274"/>
      <point x="342" y="256"/>
      <point x="328" y="256" type="qcurve" smooth="yes"/>
      <point x="240" y="256" type="line"/>
      <point x="240" y="168" type="line" smooth="yes"/>
      <point x="240" y="154"/>
      <point x="222" y="136"/>
      <point x="208" y="136" type="qcurve" smooth="yes"/>
      <point x="195" y="136"/>
      <point x="176" y="154"/>
      <point x="176" y="168" type="qcurve" smooth="yes"/>
      <point x="176" y="256" type="line"/>
      <point x="88" y="256" type="line" smooth="yes"/>
      <point x="75" y="256"/>
      <point x="56" y="274"/>
      <point x="56" y="288" type="qcurve" smooth="yes"/>
      <point x="56" y="302"/>
      <point x="75" y="320"/>
      <point x="88" y="320" type="qcurve" smooth="yes"/>
      <point x="176" y="320" type="line"/>
      <point x="176" y="408" type="line" smooth="yes"/>
      <point x="176" y="422"/>
      <point x="195" y="440"/>
      <point x="208" y="440" type="qcurve" smooth="yes"/>
      <point x="222" y="440"/>
      <point x="240" y="422"/>
      <point x="240" y="408" type="qcurve" smooth="yes"/>
      <point x="240" y="320" type="line"/>
    </contour>
  </outline>
</glyph>
<glyph name="twosuperior" format="1">
  <advance width="297"/>
  <unicode hex="00B2"/>
  <outline>
    <contour>
      <point x="227" y="485" type="qcurve" smooth="yes"/>
      <point x="211" y="458"/>
      <point x="194" y="432" type="qcurve" smooth="yes"/>
      <point x="180" y="409"/>
      <point x="148" y="360"/>
      <point x="136" y="341" type="qcurve"/>
      <point x="214" y="341" type="line" smooth="yes"/>
      <point x="226" y="341"/>
      <point x="243" y="324"/>
      <point x="243" y="312" type="qcurve" smooth="yes"/>
      <point x="243" y="300"/>
      <point x="226" y="283"/>
      <point x="214" y="283" type="qcurve" smooth="yes"/>
      <point x="83" y="283" type="line" smooth="yes"/>
      <point x="66" y="283"/>
      <point x="58" y="298" type="qcurve" smooth="yes"/>
      <point x="54" y="305"/>
      <point x="54" y="321"/>
      <point x="59" y="327" type="qcurve" smooth="yes"/>
      <point x="179" y="516" type="line" smooth="yes"/>
      <point x="189" y="530"/>
      <point x="184" y="547" type="qcurve" smooth="yes"/>
      <point x="181" y="563"/>
      <point x="165" y="573" type="qcurve" smooth="yes"/>
      <point x="151" y="583"/>
      <point x="134" y="578" type="qcurve" smooth="yes"/>
      <point x="118" y="574"/>
      <point x="108" y="559" type="qcurve" smooth="yes"/>
      <point x="102" y="548"/>
      <point x="80" y="542"/>
      <point x="69" y="548" type="qcurve" smooth="yes"/>
      <point x="58" y="554"/>
      <point x="52" y="577"/>
      <point x="58" y="587" type="qcurve" smooth="yes"/>
      <point x="79" y="623"/>
      <point x="119" y="634" type="qcurve" smooth="yes"/>
      <point x="160" y="643"/>
      <point x="195" y="622" type="qcurve" smooth="yes"/>
      <point x="231" y="602"/>
      <point x="240" y="560" type="qcurve" smooth="yes"/>
      <point x="249" y="519"/>
    </contour>
  </outline>
</glyph>
<glyph name="threesuperior" format="1">
  <advance width="296"/>
  <unicode hex="00B3"/>
  <outline>
    <contour>
      <point x="213" y="468" type="qcurve"/>
      <point x="227" y="454"/>
      <point x="242" y="418"/>
      <point x="242" y="398" type="qcurve" smooth="yes"/>
      <point x="242" y="378" type="line" smooth="yes"/>
      <point x="242" y="344"/>
      <point x="201" y="291"/>
      <point x="169" y="283" type="qcurve" smooth="yes"/>
      <point x="136" y="274"/>
      <point x="74" y="300"/>
      <point x="57" y="329" type="qcurve" smooth="yes"/>
      <point x="51" y="339"/>
      <point x="57" y="362"/>
      <point x="68" y="368" type="qcurve" smooth="yes"/>
      <point x="79" y="374"/>
      <point x="101" y="368"/>
      <point x="107" y="357" type="qcurve" smooth="yes"/>
      <point x="115" y="345"/>
      <point x="140" y="334"/>
      <point x="154" y="338" type="qcurve" smooth="yes"/>
      <point x="168" y="342"/>
      <point x="184" y="364"/>
      <point x="184" y="378" type="qcurve" smooth="yes"/>
      <point x="184" y="398" type="line" smooth="yes"/>
      <point x="184" y="415"/>
      <point x="160" y="439"/>
      <point x="143" y="439" type="qcurve" smooth="yes"/>
      <point x="131" y="439"/>
      <point x="114" y="456"/>
      <point x="114" y="468" type="qcurve" smooth="yes"/>
      <point x="114" y="480"/>
      <point x="131" y="497"/>
      <point x="143" y="497" type="qcurve" smooth="yes"/>
      <point x="166" y="497"/>
      <point x="179" y="517" type="qcurve" smooth="yes"/>
      <point x="190" y="538"/>
      <point x="179" y="559" type="qcurve" smooth="yes"/>
      <point x="166" y="579"/>
      <point x="143" y="579" type="qcurve" smooth="yes"/>
      <point x="120" y="579"/>
      <point x="107" y="559" type="qcurve" smooth="yes"/>
      <point x="101" y="548"/>
      <point x="79" y="542"/>
      <point x="68" y="548" type="qcurve" smooth="yes"/>
      <point x="57" y="554"/>
      <point x="51" y="577"/>
      <point x="57" y="587" type="qcurve" smooth="yes"/>
      <point x="71" y="610"/>
      <point x="117" y="637"/>
      <point x="143" y="637" type="qcurve" smooth="yes"/>
      <point x="169" y="637"/>
      <point x="215" y="610"/>
      <point x="228" y="587" type="qcurve" smooth="yes"/>
      <point x="242" y="564"/>
      <point x="242" y="512"/>
      <point x="228" y="489" type="qcurve" smooth="yes"/>
      <point x="222" y="477"/>
    </contour>
  </outline>
</glyph>
<glyph name="acute" format="1">
  <advance width="500"/>
  <unicode hex="00B4"/>
  <outline>
    <contour>
      <point x="279" y="652" type="line"/>
      <point x="289" y="661"/>
      <point x="315" y="659"/>
      <point x="324" y="649" type="qcurve" smooth="yes"/>
      <point x="333" y="639"/>
      <point x="332" y="613"/>
      <point x="322" y="604" type="qcurve" smooth="yes"/>
      <point x="222" y="514" type="line" smooth="yes"/>
      <point x="212" y="505"/>
      <point x="185" y="506"/>
      <point x="177" y="517" type="qcurve" smooth="yes"/>
      <point x="168" y="527"/>
      <point x="169" y="553"/>
      <point x="179" y="562" type="qcurve" smooth="yes"/>
      <point x="279" y="652" type="line"/>
    </contour>
  </outline>
</glyph>
<glyph name="uni00B5" format="1">
  <advance width="400"/>
  <unicode hex="00B5"/>
  <outline>
    <contour>
      <point x="300" y="458" type="qcurve" smooth="yes"/>
      <point x="313" y="458"/>
      <point x="330" y="441"/>
      <point x="330" y="428" type="qcurve" smooth="yes"/>
      <point x="330" y="28" type="line" smooth="yes"/>
      <point x="330" y="15"/>
      <point x="313" y="-2"/>
      <point x="300" y="-2" type="qcurve" smooth="yes"/>
      <point x="289" y="-2"/>
      <point x="274" y="10"/>
      <point x="271" y="19" type="qcurve"/>
      <point x="239" y="-2"/>
      <point x="200" y="-2" type="qcurve" smooth="yes"/>
      <point x="161" y="-2"/>
      <point x="130" y="18" type="qcurve"/>
      <point x="130" y="-172" type="line" smooth="yes"/>
      <point x="130" y="-185"/>
      <point x="113" y="-202"/>
      <point x="100" y="-202" type="qcurve" smooth="yes"/>
      <point x="87" y="-202"/>
      <point x="70" y="-185"/>
      <point x="70" y="-172" type="qcurve" smooth="yes"/>
      <point x="70" y="428" type="line" smooth="yes"/>
      <point x="70" y="441"/>
      <point x="87" y="458"/>
      <point x="100" y="458" type="qcurve" smooth="yes"/>
      <point x="113" y="458"/>
      <point x="130" y="441"/>
      <point x="130" y="428" type="qcurve" smooth="yes"/>
      <point x="130" y="128" type="line" smooth="yes"/>
      <point x="130" y="99"/>
      <point x="171" y="58"/>
      <point x="200" y="58" type="qcurve" smooth="yes"/>
      <point x="229" y="58"/>
      <point x="270" y="99"/>
      <point x="270" y="128" type="qcurve" smooth="yes"/>
      <point x="270" y="428" type="line" smooth="yes"/>
      <point x="270" y="441"/>
      <point x="287" y="458"/>
    </contour>
  </outline>
</glyph>
